STARTFONT 2.1
COMMENT
COMMENT Converted from OpenType font "Vollda-Bold.otf" by "otf2bdf 3.0".
COMMENT
FONT -FreeType-Vollda-Bold-R-Normal--66-480-100-100-P-366-ISO10646-1
SIZE 48 100 100
FONTBOUNDINGBOX 213 93 -12 -20
STARTPROPERTIES 19
FOUNDRY "FreeType"
FAMILY_NAME "Vollda"
WEIGHT_NAME "Bold"
SLANT "R"
SETWIDTH_NAME "Normal"
ADD_STYLE_NAME ""
PIXEL_SIZE 66
POINT_SIZE 480
RESOLUTION_X 100
RESOLUTION_Y 100
SPACING "P"
AVERAGE_WIDTH 366
CHARSET_REGISTRY "ISO10646"
CHARSET_ENCODING "1"
FONT_ASCENT 63
FONT_DESCENT 29
COPYRIGHT "Copyright 2023 Vollda (https://github.com/alexburba/vollda)"
_OTF_FONTFILE "Vollda-Bold.otf"
_OTF_PSNAME "Vollda-Bold"
ENDPROPERTIES
CHARS 1220
STARTCHAR 0000
ENCODING 0
SWIDTH 0 0
DWIDTH 0 0
BBX 0 0 0 0
BITMAP
ENDCHAR
STARTCHAR 000D
ENCODING 13
SWIDTH 195 0
DWIDTH 13 0
BBX 0 0 0 0
BITMAP
ENDCHAR
STARTCHAR 0020
ENCODING 32
SWIDTH 195 0
DWIDTH 13 0
BBX 0 0 0 0
BITMAP
ENDCHAR
STARTCHAR 0021
ENCODING 33
SWIDTH 405 0
DWIDTH 27 0
BBX 11 49 8 -1
BITMAP
0040
03E0
3FE0
FFE0
FFE0
7FE0
7FE0
7FC0
7FC0
7FC0
7FC0
7FC0
7FC0
3FC0
3FC0
3FC0
3FC0
3F80
3F80
3F80
3F80
3F80
3F80
1F80
1F80
1F80
1F80
1F80
1F80
1F00
1F00
1F00
0000
0000
0000
0000
0000
0000
0F00
3FC0
7FE0
7FE0
FFE0
FFE0
FFE0
7FE0
7FC0
3F80
0200
ENDCHAR
STARTCHAR 0022
ENCODING 34
SWIDTH 375 0
DWIDTH 25 0
BBX 17 18 4 30
BITMAP
040100
3E0780
FE3F80
FE1F80
FE1F80
7E1F80
7E1F80
7C1F80
7C1F80
7C1F80
7C1F00
7C1F00
7C0F00
7C0F00
7C0F00
7C0F00
3C0F00
380F00
ENDCHAR
STARTCHAR 0023
ENCODING 35
SWIDTH 600 0
DWIDTH 40 0
BBX 37 49 2 -1
BITMAP
0002000C00
0007C00F00
0007C00F00
0007C00F00
0007801F00
0007801F00
000F801F00
000F801E00
000F801E00
000F003E00
000F003E00
001F003E00
001F003C00
001F003C00
0FFFFFFFF8
1FFFFFFFF8
1FFFFFFFF8
1FFFFFFFF8
1FFFFFFFF0
003C00F800
003C00F800
007C00F800
007C00F000
007C00F000
007C01F000
007801F000
007801F000
00F801E000
00F801E000
00F803E000
FFFFFFFFC0
FFFFFFFFC0
FFFFFFFFC0
FFFFFFFFC0
FFFFFFFFC0
01E007C000
01E007C000
03E007C000
03E0078000
03E0078000
03C00F8000
03C00F8000
07C00F8000
07C00F0000
07C00F0000
07801F0000
07801F0000
07800F0000
0080000000
ENDCHAR
STARTCHAR 0024
ENCODING 36
SWIDTH 555 0
DWIDTH 37 0
BBX 32 56 3 -6
BITMAP
00038000
0003C000
0003C000
0003C000
0007E000
007FFF00
01FFFFE0
07FFFFF0
0FFFFFF0
1FE3DFF0
1FC3CFF0
3FC3C7F8
3F83C3F8
7F83C3F8
7F83C3F8
7F83C1F8
7FC3C1F8
7FE3C1C0
7FF3C000
7FFBC000
7FFFC000
3FFFC000
3FFFE000
3FFFF800
1FFFFE00
0FFFFF80
07FFFFC0
03FFFFE0
01FFFFF0
00FFFFF8
003FFFFC
000FFFFE
0007FFFE
0007FFFE
0007FFFF
0007CFFF
7E07C7FF
7E07C3FF
7E07C3FF
7E07C1FF
7F07C1FE
7F07C1FE
7F07C3FE
7F87C3FC
FFC7C7FC
FFF7CFF8
FFFFFFF0
3FFFFFE0
0FFFFF80
01FFFE00
0007C000
0007C000
0007C000
0007C000
0007C000
0001C000
ENDCHAR
STARTCHAR 0025
ENCODING 37
SWIDTH 855 0
DWIDTH 57 0
BBX 46 46 6 -1
BITMAP
000000000180
01FE000003E0
07FF800007E0
1FFFC00007C0
3FFFE0000FC0
3F0FF0001F80
7F07F0003F00
7E03F0007E00
FE03F800FC00
FC03F800F800
FC01F801F800
FC01F803F000
FC01F807E000
FE03F80FC000
FE03F81F8000
FE03F01F0000
7F07F03F0000
7F8FE07E0000
3FFFE0FC0000
1FFFC1F80000
0FFF03F00000
01FC03E00000
000007E00000
00000FC00000
00001F800000
00003F003800
00007E03FF80
00007C07FFC0
0000FC1FFFE0
0001F81FCFF0
0003F03F83F8
0007E07F03F8
000FC07E01F8
001F807E01FC
001F807E01FC
003F00FE01FC
007E00FE01FC
00FC007E01FC
01F8007E01F8
03F0007F01F8
03F0007F03F8
07E0003F83F0
0FC0003FEFF0
1F80001FFFE0
1F00000FFFC0
0E000003FF00
ENDCHAR
STARTCHAR 0026
ENCODING 38
SWIDTH 765 0
DWIDTH 51 0
BBX 44 49 4 -1
BITMAP
0000FF000000
000FFFF80000
003FFFFE0000
007FFFFE0000
00FFC7FE0000
01FF01FE0000
01FF00FE0000
01FE00FE0000
03FE007E0000
03FE007E0000
03FE007E0000
03FF007E0000
03FF00000000
03FF00000000
01FF80000000
01FF80000000
01FFC0000000
00FFC007FFE0
00FFE007FFE0
007FF007FFE0
007FF007FFE0
01FFF801FF80
03FFFC007F00
0FFFFE003E00
1FEFFF003C00
1FE7FF003C00
3FC3FF807C00
7FC3FFC07800
7F81FFE07800
FF80FFF0F800
FF807FF8F000
FF803FF9F000
FF801FFDE000
FF801FFFE000
FF800FFFC000
FF8007FFC000
FF8003FFC000
FFC001FFE000
FFC000FFF000
FFE0007FF800
7FE000FFFC00
7FF001FFFE00
3FFC03FFFFC0
3FFFFFFFFFF0
1FFFFFE7FFF0
0FFFFF87FFF0
03FFFF03FFF0
00FFFC01FF80
000780000000
ENDCHAR
STARTCHAR 0027
ENCODING 39
SWIDTH 225 0
DWIDTH 15 0
BBX 7 18 4 30
BITMAP
04
3E
FE
FE
FE
7E
7E
7C
7C
7C
7C
7C
7C
7C
7C
3C
3C
3C
ENDCHAR
STARTCHAR 0028
ENCODING 40
SWIDTH 315 0
DWIDTH 21 0
BBX 17 67 2 -18
BITMAP
000F00
000F00
001E00
003E00
007C00
007C00
00F800
00F800
01F000
03F000
03E000
07E000
07E000
0FC000
0FC000
0FC000
1FC000
1F8000
3F8000
3F8000
3F8000
3F8000
7F8000
7F8000
7F8000
7F0000
7F0000
7F0000
FF0000
FF0000
FF0000
FF0000
FF0000
FF0000
FF0000
FF0000
FF0000
FF0000
7F0000
7F8000
7F8000
7F8000
7F8000
7F8000
3F8000
3F8000
3F8000
1FC000
1FC000
1FC000
0FC000
0FE000
0FE000
07E000
07E000
03F000
03F000
01F000
01F800
00F800
007C00
007C00
003E00
001E00
001F00
000F00
000780
ENDCHAR
STARTCHAR 0029
ENCODING 41
SWIDTH 315 0
DWIDTH 21 0
BBX 16 67 3 -18
BITMAP
F000
7800
7C00
3C00
3E00
1F00
1F00
0F80
0FC0
07C0
07E0
07E0
03F0
03F0
03F8
03F8
01F8
01FC
01FC
01FC
01FE
00FE
00FE
00FE
00FF
00FF
00FF
00FF
00FF
00FF
00FF
00FF
00FF
00FF
00FF
00FF
00FF
00FF
00FF
00FF
00FF
00FE
00FE
00FE
00FE
01FC
01FC
01FC
01FC
01F8
03F8
03F8
03F0
03F0
07E0
07E0
07C0
0FC0
0F80
1F80
1F00
3E00
3E00
7C00
7800
F000
F000
ENDCHAR
STARTCHAR 002A
ENCODING 42
SWIDTH 465 0
DWIDTH 31 0
BBX 24 24 4 27
BITMAP
001F00
001FC0
001F80
101F00
381F00
7C1E00
7E1E00
FF1E02
FF9C1E
3FDCFF
07FFFF
00FFFF
00FFFF
01FC7F
07FE00
1FDE00
7F8F00
7F0F80
3F0FC0
3E0FC0
1C0FE0
0C0FE0
000780
000600
ENDCHAR
STARTCHAR 002B
ENCODING 43
SWIDTH 540 0
DWIDTH 36 0
BBX 31 34 3 0
BITMAP
0000C000
0007C000
0007C000
0007C000
0007C000
0007C000
0007C000
0007C000
0007C000
0007C000
0007C000
0007C000
0007C000
0007C000
0007C000
FFFFFFFE
FFFFFFFE
FFFFFFFE
FFFFFFFC
0007C000
0007C000
0007C000
0007C000
0007C000
0007C000
0007C000
0007C000
0007C000
0007C000
0007C000
0007C000
0007C000
0007C000
00078000
ENDCHAR
STARTCHAR 002C
ENCODING 44
SWIDTH 285 0
DWIDTH 19 0
BBX 10 21 5 -12
BITMAP
0100
0780
FFC0
FFC0
FFC0
FFC0
FFC0
FFC0
FFC0
1FC0
1FC0
0F80
1F80
1F80
1F00
3F00
3E00
7C00
FC00
F800
F000
ENDCHAR
STARTCHAR 002D
ENCODING 45
SWIDTH 405 0
DWIDTH 27 0
BBX 20 6 4 14
BITMAP
7FFFF0
7FFFF0
FFFFF0
FFFFF0
FFFFE0
FFFE00
ENDCHAR
STARTCHAR 002E
ENCODING 46
SWIDTH 270 0
DWIDTH 18 0
BBX 11 12 4 -1
BITMAP
0400
3F80
7FC0
FFE0
FFE0
FFE0
FFE0
FFE0
FFE0
7FC0
3F80
0400
ENDCHAR
STARTCHAR 002F
ENCODING 47
SWIDTH 375 0
DWIDTH 25 0
BBX 22 49 2 -1
BITMAP
000060
000078
00007C
0000F8
0000F8
0000F0
0001F0
0001F0
0003E0
0003E0
0003E0
0007C0
0007C0
000780
000F80
000F80
001F00
001F00
001F00
003E00
003E00
003E00
007C00
007C00
007800
00F800
00F800
01F000
01F000
01F000
03E000
03E000
03C000
07C000
07C000
0F8000
0F8000
0F8000
1F0000
1F0000
1E0000
3E0000
3E0000
7C0000
7C0000
7C0000
F80000
F80000
080000
ENDCHAR
STARTCHAR 0030
ENCODING 48
SWIDTH 615 0
DWIDTH 41 0
BBX 37 35 2 -1
BITMAP
0000FC0000
001FFFC000
007FFFF000
01FFFFFC00
03FFFFFE00
07FC07FF00
0FF803FF80
1FF001FFC0
3FE000FFE0
3FE0007FE0
7FC0007FF0
7FC0003FF0
7FC0003FF0
7FC0003FF0
FFC0001FF8
FFC0001FF8
FFC0001FF8
FFC0001FF8
FFC0001FF8
FFC0001FF8
7FC0001FF0
7FE0001FF0
7FE0001FF0
7FF0001FF0
3FF0003FE0
3FF8003FE0
1FF8007FC0
0FFC007FC0
0FFF00FF80
07FFC3FF00
03FFFFFE00
00FFFFF800
003FFFF000
000FFF8000
0000B00000
ENDCHAR
STARTCHAR 0031
ENCODING 49
SWIDTH 390 0
DWIDTH 26 0
BBX 19 34 4 0
BITMAP
800020
FFFFE0
FFFFE0
FFFFE0
FFFFE0
1FFE00
0FFE00
0FFC00
07FC00
07FC00
07FC00
07FC00
07FC00
07FC00
07FC00
07FC00
07FC00
07FC00
07FC00
07FC00
07FC00
07FC00
07FC00
07FC00
07FC00
07FC00
0FFC00
0FFC00
0FFE00
1FFF00
FFFFE0
FFFFE0
FFFFE0
FFFFE0
ENDCHAR
STARTCHAR 0032
ENCODING 50
SWIDTH 510 0
DWIDTH 34 0
BBX 29 34 3 0
BITMAP
001FC000
03FFFC00
1FFFFF00
3FFFFF80
3FFFFFC0
3F81FFC0
3F80FFE0
3F007FE0
3F007FE0
3E007FE0
3E007FE0
3E007FC0
3E007FC0
0000FF80
0000FF80
0001FF00
0003FE00
0007FC00
000FF000
001FE000
003FC000
007F0000
00FE01F0
01FC01F0
07F801F0
0FE01FF0
1FFFFFF0
3FFFFFF0
7FFFFFF0
FFFFFFF0
FFFFFFF0
FFFFFFF8
7FFFFFF0
7FFFFFF0
ENDCHAR
STARTCHAR 0033
ENCODING 51
SWIDTH 510 0
DWIDTH 34 0
BBX 28 45 3 -11
BITMAP
600000C0
7FFFFFE0
7FFFFFE0
7FFFFFE0
7FFFFFE0
7FFFFFC0
7FFFFFC0
7FFFFF80
7FFFFF00
7E007E00
7C00FC00
7C00FC00
7801F800
1803F000
0007E000
0007E000
000FC000
001F8000
003F0000
007FF800
007FFE00
00FFFF00
00FFFFC0
00FFFFC0
00FFFFE0
0003FFE0
0000FFF0
00007FF0
00003FF0
00003FF0
00003FF0
00003FF0
00003FF0
00003FF0
00003FF0
00003FF0
00007FE0
00007FE0
0000FFC0
C003FF80
F80FFF00
FFFFFE00
FFFFFC00
7FFFF000
0FFF8000
ENDCHAR
STARTCHAR 0034
ENCODING 52
SWIDTH 600 0
DWIDTH 40 0
BBX 36 45 2 -11
BITMAP
000003E000
000007F800
000007F800
00000FF800
00001FF800
00003FF800
00007FF800
00007FF800
0000FFF800
0001FFF800
0003FFF800
0007FFF800
0007DFF800
000F9FF800
001F1FF800
003F1FF800
007E1FF800
007C1FF800
00FC1FF800
01F81FF800
03F01FF800
03E01FF800
07E01FF800
0FC01FF800
1F801FF800
3F801FF800
3FFFFFFFF0
7FFFFFFFF0
FFFFFFFFF0
FFFFFFFFE0
FFFFFFFFE0
FFFFFFFFE0
7FFFFFFFE0
7FFFFFFFE0
00001FF800
00001FF800
00001FF800
00001FF800
00001FF800
00001FF800
00001FF800
00001FF800
00001FF800
00001FF800
00000E0000
ENDCHAR
STARTCHAR 0035
ENCODING 53
SWIDTH 480 0
DWIDTH 32 0
BBX 26 48 3 -11
BITMAP
00000780
00000780
00000F80
07C03F80
07FFFF80
0FFFFF80
0FFFFF80
0FFFFF80
0FFFFF80
1FFFFF80
1FFFFF80
1FFFFF00
1E000000
1E000000
3E000000
3C000000
3C000000
3E000000
7FF00000
7FFE0000
7FFF8000
7FFFE000
7FFFF800
7FFFFC00
3FFFFE00
0FFFFF00
00FFFF80
001FFF80
000FFFC0
0003FFC0
0001FFC0
0001FFC0
0000FFC0
0000FFC0
0000FFC0
0000FFC0
0000FFC0
0000FFC0
0000FF80
0001FF80
0001FF00
0003FF00
0007FE00
403FFC00
FFFFF800
FFFFE000
FFFF8000
3FFE0000
ENDCHAR
STARTCHAR 0036
ENCODING 54
SWIDTH 540 0
DWIDTH 36 0
BBX 32 44 2 -1
BITMAP
00000020
00000FE0
00007FF0
0003FFF0
0007FFC0
001FFC00
003FF000
00FFC000
01FF8000
03FF0000
07FE0000
07FC0000
0FF80000
1FF80000
1FF00000
1FF00000
3FE00000
3FE3FF80
7FFFFFE0
7FFFFFF0
7FFFFFF8
7FFC7FFC
7FC01FFE
FFC00FFE
FFC007FF
FFC003FF
FFC003FF
FFC003FF
FFC001FF
FFC001FF
FFC001FF
7FC001FF
7FE001FF
7FE001FF
7FE003FE
3FF003FE
3FF007FC
1FF807FC
0FFE0FF8
0FFFFFF0
03FFFFE0
01FFFF80
007FFE00
0001C000
ENDCHAR
STARTCHAR 0037
ENCODING 55
SWIDTH 465 0
DWIDTH 31 0
BBX 28 45 2 -12
BITMAP
7FFFFFE0
7FFFFFF0
7FFFFFF0
7FFFFFF0
7FFFFFE0
7FFFFFC0
7FFFFFC0
7FFFFF80
7F800F80
7E001F00
FC003E00
FC003E00
78007C00
0000FC00
0000F800
0001F800
0001F000
0003F000
0007E000
0007E000
000FC000
000FC000
001FC000
001F8000
003F8000
003F8000
007F8000
007F0000
00FF0000
00FF0000
00FF0000
01FF0000
01FF0000
01FF0000
03FF0000
03FF0000
03FF0000
03FF0000
03FF0000
03FF0000
03FF0000
03F80000
03E00000
03800000
01000000
ENDCHAR
STARTCHAR 0038
ENCODING 56
SWIDTH 540 0
DWIDTH 36 0
BBX 30 43 3 -1
BITMAP
007FFC00
03FFFF00
07FFFFC0
0FF87FE0
1FF03FF0
1FE01FF0
3FE00FF8
3FE00FF8
3FE00FF8
3FE00FF8
3FE00FF8
3FF00FF0
3FF81FF0
3FFC1FE0
1FFF3FE0
1FFFBFC0
0FFFFF00
07FFFE00
03FFFC00
01FFFF00
00FFFF80
03FFFFC0
07FFFFE0
0FF3FFF0
1FE1FFF8
3FC07FF8
7FC03FF8
7FC01FFC
7F801FFC
FF800FFC
FF800FFC
FF8007FC
FF8007FC
FFC007FC
FFC007FC
7FC00FF8
7FE00FF8
3FF01FF0
1FFEFFE0
0FFFFFC0
07FFFF80
00FFFE00
00078000
ENDCHAR
STARTCHAR 0039
ENCODING 57
SWIDTH 540 0
DWIDTH 36 0
BBX 33 45 2 -11
BITMAP
0007F00000
007FFF0000
01FFFFC000
03FFFFF000
0FFFFFF800
0FF81FF800
1FF00FFC00
3FE007FE00
3FE007FE00
7FC003FF00
7FC003FF00
7FC003FF00
FFC001FF00
FFC001FF00
FFC001FF80
FFC001FF80
FFC001FF80
FFE001FF80
7FE001FF80
7FF001FF80
7FF001FF00
3FFC01FF00
1FFE07FF00
1FFFFFFF00
0FFFFFFF00
03FFFFFE00
01FFFBFE00
001F87FE00
000007FC00
000007FC00
00000FF800
00001FF800
00001FF000
00003FE000
00007FC000
0000FF8000
0003FF0000
0007FE0000
001FFC0000
007FF80000
01FFE00000
0FFF800000
0FFE000000
0FF8000000
0FC0000000
ENDCHAR
STARTCHAR 003A
ENCODING 58
SWIDTH 270 0
DWIDTH 18 0
BBX 11 29 4 1
BITMAP
0600
3F80
7FC0
FFE0
FFE0
FFE0
FFE0
FFE0
7FC0
3F80
0E00
0000
0000
0000
0000
0000
0000
0000
0000
1F00
3F80
7FC0
FFE0
FFE0
FFE0
FFE0
FFC0
7FC0
3F80
ENDCHAR
STARTCHAR 003B
ENCODING 59
SWIDTH 285 0
DWIDTH 19 0
BBX 11 42 5 -12
BITMAP
0C00
3F80
7FC0
FFC0
FFE0
FFE0
FFE0
FFC0
FFC0
7F80
1E00
0000
0000
0000
0000
0000
0000
0000
0000
0000
0000
0100
0780
7FC0
FFC0
FFC0
FFE0
FFE0
FFC0
7FC0
1FC0
0FC0
0FC0
0F80
1F80
1F00
1F00
3E00
7E00
7C00
F800
F000
ENDCHAR
STARTCHAR 003C
ENCODING 60
SWIDTH 540 0
DWIDTH 36 0
BBX 28 32 4 1
BITMAP
000003C0
000007F0
00001FF0
00007FC0
0001FF80
0003FE00
000FF800
003FF000
007FC000
01FF0000
07FC0000
0FF80000
3FE00000
7F800000
FE000000
FC000000
FE000000
FF800000
7FE00000
1FF80000
07FE0000
03FF0000
00FFC000
003FF000
000FFC00
0003FF00
0000FFC0
00007FE0
00001FE0
000007E0
000003E0
000000E0
ENDCHAR
STARTCHAR 003D
ENCODING 61
SWIDTH 540 0
DWIDTH 36 0
BBX 30 16 3 9
BITMAP
7FFFFFFC
7FFFFFFC
FFFFFFFC
FFFFFFFC
00000000
00000000
00000000
00000000
00000000
00000000
00000000
00000000
7FFFFFFC
7FFFFFFC
FFFFFFFC
FFFFFFFC
ENDCHAR
STARTCHAR 003E
ENCODING 62
SWIDTH 540 0
DWIDTH 36 0
BBX 27 34 5 0
BITMAP
18000000
7C000000
7F000000
FF800000
3FE00000
1FF00000
07FC0000
01FF0000
00FF8000
003FE000
000FF000
0007FC00
0001FF00
00007F80
00003FE0
00000FE0
000003E0
000007E0
00001FE0
00007FE0
0001FF80
0003FE00
000FF800
003FE000
00FF8000
03FF0000
07FC0000
1FF00000
7FE00000
7F800000
7E000000
7C000000
30000000
20000000
ENDCHAR
STARTCHAR 003F
ENCODING 63
SWIDTH 525 0
DWIDTH 35 0
BBX 23 49 8 -1
BITMAP
00FE00
0FFFE0
7FFFF0
FFFFF8
FF9FFC
FE0FFE
FE07FE
FC03FE
FC03FE
FC03FE
F803FE
F803FE
7807FE
0007FC
000FFC
001FF8
003FF0
007FE0
007FC0
00FF80
01FF00
01FE00
03FE00
03FC00
03FC00
03F800
03F800
03F800
03F800
01F800
01F800
01F800
00FC00
007800
000000
000000
000000
003800
00FE00
01FF00
03FF80
03FF80
07FF80
07FF80
03FF80
03FF80
01FF00
00FE00
001800
ENDCHAR
STARTCHAR 0040
ENCODING 64
SWIDTH 990 0
DWIDTH 66 0
BBX 53 57 7 -13
BITMAP
000001FFE00000
00001FFFFE0000
0000FFFFFFC000
0003FFFFFFE000
000FFC003FF800
001FE00003FC00
007F000000FE00
00FE0000007F00
01F80000001F80
03F00000000FC0
03E00000000FC0
07C000000007E0
0FC000000003E0
0F8007FE3E03F0
1F001FFFFF01F0
1F003FFFFF01F0
3E007FFFFF01F0
3E00FF07FF00F8
7E01FE01FF00F8
7C03FC01FF00F8
7C03FC01FF00F8
7C07FC01FF00F8
FC07FC01FF00F8
F807F801FF00F8
F80FF801FF00F8
F80FF801FF00F8
F80FF801FF00F0
F80FF801FF00F0
F80FF803FF00F0
F80FF803FF00F0
F80FF803FF01F0
F80FF803FF01E0
F80FF807FF01E0
F80FFC07FF03C0
FC0FFC0FFF03C0
FC0FFC0FFF07C0
7C0FFC1FFF8780
7C0FFE3DFF8F00
7E07FFFDFFFF00
7E07FFF9FFFE00
3E03FFF9FFFC00
3F03FFF0FFF800
3F01FFE0FFE000
1F80FF807FC000
1FC00C00080000
0FC00000000000
0FE00000000100
07F000000003C0
03F800000007C0
01FE0000001F80
00FF0000007F00
007FE00001FE00
003FFC000FFC00
001FFFFFFFF000
0007FFFFFFC000
0000FFFFFF0000
00001FFFF80000
ENDCHAR
STARTCHAR 0041
ENCODING 65
SWIDTH 705 0
DWIDTH 47 0
BBX 45 45 1 0
BITMAP
00000F000000
00001F800000
00001F800000
00001FC00000
00003FC00000
00003FE00000
00007FE00000
00007FF00000
0000FFF00000
0000FFF00000
0000FFF80000
0001FFF80000
0001FFFC0000
0003CFFC0000
0003CFFE0000
0003CFFE0000
000787FF0000
000787FF0000
000F83FF0000
000F03FF8000
000F03FF8000
001F01FFC000
001E01FFC000
003E00FFE000
003C00FFE000
003C007FF000
007C007FF000
0078007FF000
00F8003FF800
00FFFFFFF800
00FFFFFFFC00
01FFFFFFFC00
01FF800FFE00
03E0000FFE00
03C0000FFF00
03C00007FF00
07C00007FF00
07C00003FF80
0FC00003FF80
1FC00003FFC0
3FE00007FFE0
7FF8001FFFF8
FFF8001FFFF8
FFF8003FFFF8
FFF8003FFFF8
ENDCHAR
STARTCHAR 0042
ENCODING 66
SWIDTH 660 0
DWIDTH 44 0
BBX 39 45 3 0
BITMAP
FFFFFFE000
FFFFFFFE00
FFFFFFFF00
FFFFFFFFC0
1FFE07FFE0
0FFE01FFE0
0FFE00FFE0
07FE007FF0
07FE007FF0
07FE003FF0
07FE003FF0
07FE003FF0
07FE003FF0
07FE003FE0
07FE007FE0
07FE007FC0
07FE007FC0
07FE00FF80
07FE03FE00
07FE1FF800
07FFFFE000
07FFFFFF00
07FFFFFFC0
07FFFFFFE0
07FE03FFF0
07FE00FFF8
07FE003FFC
07FE003FFC
07FE001FFC
07FE001FFE
07FE000FFE
07FE000FFE
07FE000FFE
07FE000FFE
07FE000FFE
07FE001FFC
07FE001FFC
07FE001FFC
0FFE003FF8
0FFF007FF0
1FFF81FFF0
FFFFFFFFC0
FFFFFFFF80
FFFFFFFE00
FFFFFFE000
ENDCHAR
STARTCHAR 0043
ENCODING 67
SWIDTH 630 0
DWIDTH 42 0
BBX 38 47 2 -1
BITMAP
000007C000
0001FFFE00
0007FFFFE0
001FFFFFF8
007FFC7FFC
00FFC00FF8
01FF0007F8
03FE0003F8
07FC0001F8
0FFC0001F8
0FF80001F8
1FF80001F8
1FF00000F8
3FF00000F8
3FF00000F0
7FE0000000
7FE0000000
7FE0000000
7FE0000000
7FE0000000
FFE0000000
FFE0000000
FFE0000000
FFE0000000
FFE0000000
FFE0000000
FFE0000000
7FE0000000
7FF0000000
7FF0000000
7FF0000000
3FF0000000
3FF8000000
3FF8000000
1FFC000000
1FFE000000
0FFE000000
0FFF000000
07FF800008
03FFE0003C
01FFF800FC
00FFFFFFFC
007FFFFFF8
001FFFFFE0
0007FFFF80
0001FFFC00
0000070000
ENDCHAR
STARTCHAR 0044
ENCODING 68
SWIDTH 735 0
DWIDTH 49 0
BBX 44 45 3 0
BITMAP
FFFFFFF00000
FFFFFFFE0000
FFFFFFFFC000
FFFFFFFFF000
1FFE00FFF800
0FFE003FFC00
0FFE000FFE00
07FE0007FF00
07FE0007FF80
07FE0003FF80
07FE0001FFC0
07FE0001FFC0
07FE0000FFC0
07FE0000FFE0
07FE0000FFE0
07FE00007FE0
07FE00007FE0
07FE00007FE0
07FE00007FF0
07FE00007FF0
07FE00007FF0
07FE00007FF0
07FE00007FF0
07FE00007FF0
07FE00007FF0
07FE00007FE0
07FE00007FE0
07FE00007FE0
07FE00007FE0
07FE00007FE0
07FE0000FFC0
07FE0000FFC0
07FE0000FFC0
07FE0000FF80
07FE0001FF80
07FE0001FF00
07FE0003FE00
07FE0007FC00
0FFE000FFC00
0FFF001FF000
1FFF80FFE000
FFFFFFFFC000
FFFFFFFF0000
FFFFFFF80000
FFFFFF800000
ENDCHAR
STARTCHAR 0045
ENCODING 69
SWIDTH 615 0
DWIDTH 41 0
BBX 37 45 3 0
BITMAP
FFFFFFFF80
FFFFFFFF80
FFFFFFFF80
FFFFFFFF80
1FFE00FF80
0FFE003FC0
0FFE001FC0
07FE000FC0
07FE0007C0
07FE0007C0
07FE0007C0
07FE000780
07FE000000
07FE000000
07FE000000
07FE01F000
07FE01F000
07FE01F000
07FE03F000
07FE03F000
07FFFFF000
07FFFFF000
07FFFFF000
07FFFFF000
07FE3FF000
07FE03F000
07FE03F000
07FE01F000
07FE01F000
07FE01F000
07FE000000
07FE000000
07FE000080
07FE0001F0
07FE0001F8
07FE0001F0
07FE0003F0
07FE0003F0
0FFE0007F0
0FFF001FE0
1FFF807FE0
FFFFFFFFE0
FFFFFFFFE0
FFFFFFFFE0
FFFFFFFFE0
ENDCHAR
STARTCHAR 0046
ENCODING 70
SWIDTH 585 0
DWIDTH 39 0
BBX 34 45 3 0
BITMAP
FFFFFFFF80
FFFFFFFF80
FFFFFFFF80
FFFFFFFF80
1FFE007FC0
0FFE003FC0
0FFE001FC0
07FE000FC0
07FE0007C0
07FE0007C0
07FE0007C0
07FE000380
07FE000000
07FE000000
07FE000000
07FE000000
07FE000000
07FE00F800
07FE00F800
07FE00F800
07FE00F800
07FE03F800
07FFFFF800
07FFFFF800
07FFFFF800
07FFFFF800
07FE07F800
07FE01F800
07FE00F800
07FE00F800
07FE00F800
07FE007800
07FE000000
07FE000000
07FE000000
07FE000000
07FE000000
07FE000000
0FFF000000
0FFF000000
1FFFC00000
FFFFF80000
FFFFFC0000
FFFFFC0000
FFFFFC0000
ENDCHAR
STARTCHAR 0047
ENCODING 71
SWIDTH 705 0
DWIDTH 47 0
BBX 43 47 2 -1
BITMAP
000003E00000
0001FFFF8000
0007FFFFF800
001FFFFFFE00
007FFC7FFF00
00FFE007FE00
01FF8001FE00
03FF0000FE00
07FE0000FE00
0FFC00007E00
1FF800007E00
1FF800007E00
3FF000003E00
3FF000003E00
3FF000003800
7FF000000000
7FE000000000
7FE000000000
7FE000000000
7FE000000000
FFE000000000
FFE000000000
FFE000000000
FFE000000000
FFE0007FFFE0
FFE0007FFFE0
FFE0007FFFE0
7FE0007FFFC0
7FE00007FF80
7FF00003FF00
7FF00001FF00
7FF00001FE00
3FF00001FE00
3FF80001FE00
1FF80001FE00
1FFC0001FE00
0FFC0001FE00
0FFE0001FF00
07FF0001FF00
03FF8001FF00
01FFC003FF00
00FFF007FF00
007FFFFFFE00
001FFFFFF800
000FFFFFE000
0001FFFF0000
000003000000
ENDCHAR
STARTCHAR 0048
ENCODING 72
SWIDTH 765 0
DWIDTH 51 0
BBX 46 45 3 0
BITMAP
FFFFF03FFFFC
FFFFF03FFFFC
FFFFF03FFFFC
FFFFE01FFFFC
1FFF8007FFE0
0FFF0003FFC0
0FFE0001FF80
07FE0001FF80
07FE0001FF80
07FE0001FF80
07FE0001FF80
07FE0001FF80
07FE0001FF80
07FE0001FF80
07FE0001FF80
07FE0001FF80
07FE0001FF80
07FE0001FF80
07FE0001FF80
07FE0001FF80
07FFFFFFFF80
07FFFFFFFF80
07FFFFFFFF80
07FFFFFFFF80
07FE0001FF80
07FE0001FF80
07FE0001FF80
07FE0001FF80
07FE0001FF80
07FE0001FF80
07FE0001FF80
07FE0001FF80
07FE0001FF80
07FE0001FF80
07FE0001FF80
07FE0001FF80
07FE0001FF80
07FE0001FF80
0FFE0001FFC0
0FFE0003FFC0
1FFF8007FFE0
FFFFE01FFFFC
FFFFF03FFFFC
FFFFF03FFFFC
FFFFF03FFFFC
ENDCHAR
STARTCHAR 0049
ENCODING 73
SWIDTH 375 0
DWIDTH 25 0
BBX 20 45 3 0
BITMAP
FFFFF0
FFFFF0
FFFFF0
FFFFE0
1FFF80
0FFF00
0FFE00
07FE00
07FE00
07FE00
07FE00
07FE00
07FE00
07FE00
07FE00
07FE00
07FE00
07FE00
07FE00
07FE00
07FE00
07FE00
07FE00
07FE00
07FE00
07FE00
07FE00
07FE00
07FE00
07FE00
07FE00
07FE00
07FE00
07FE00
07FE00
07FE00
07FE00
07FE00
0FFE00
0FFE00
1FFF80
FFFFE0
FFFFF0
FFFFF0
FFFFF0
ENDCHAR
STARTCHAR 004A
ENCODING 74
SWIDTH 360 0
DWIDTH 24 0
BBX 22 62 0 -17
BITMAP
3FFFFC
3FFFFC
3FFFFC
3FFFF8
07FFE0
03FFC0
01FF80
01FF80
01FF80
01FF80
01FF80
01FF80
01FF80
01FF80
01FF80
01FF80
01FF80
01FF80
01FF80
01FF80
01FF80
01FF80
01FF80
01FF80
01FF80
01FF80
01FF80
01FF80
01FF80
01FF80
01FF80
01FF80
01FF80
01FF80
01FF80
01FF80
01FF80
01FF80
01FF80
01FF80
01FF80
01FF80
01FF80
01FF00
01FF00
01FF00
01FF00
03FF00
03FE00
03FE00
03FE00
07FC00
07F800
0FF800
0FF000
1FE000
3FC000
FF8000
FE0000
FC0000
F00000
400000
ENDCHAR
STARTCHAR 004B
ENCODING 75
SWIDTH 720 0
DWIDTH 48 0
BBX 44 45 3 -1
BITMAP
FFFFF03FFFC0
FFFFF03FFFC0
FFFFF03FFF80
FFFFE03FFF80
1FFF800FFC00
0FFF000FF000
0FFE000FE000
07FE001F8000
07FE003F0000
07FE003E0000
07FE007C0000
07FE00FC0000
07FE01F80000
07FE03F00000
07FE07E00000
07FE0FC00000
07FE1F800000
07FE3F000000
07FE7E000000
07FEFF000000
07FFFF000000
07FFFF800000
07FFFFC00000
07FFFFE00000
07FFFFF00000
07FEFFF00000
07FE7FF80000
07FE3FFC0000
07FE1FFE0000
07FE1FFE0000
07FE0FFF0000
07FE07FF8000
07FE03FFC000
07FE03FFC000
07FE01FFE000
07FE00FFF000
07FE00FFF000
07FE007FF800
0FFE003FFC00
0FFE003FFF00
1FFF801FFFC0
FFFFE00FFFF0
FFFFF00FFFF0
FFFFF007FFF0
FFFFF007FFF0
ENDCHAR
STARTCHAR 004C
ENCODING 76
SWIDTH 600 0
DWIDTH 40 0
BBX 36 45 3 0
BITMAP
FFFFF00000
FFFFF00000
FFFFF00000
FFFFE00000
1FFF800000
0FFE000000
0FFE000000
07FE000000
07FE000000
07FE000000
07FE000000
07FE000000
07FE000000
07FE000000
07FE000000
07FE000000
07FE000000
07FE000000
07FE000000
07FE000000
07FE000000
07FE000000
07FE000000
07FE000000
07FE000000
07FE000000
07FE000000
07FE000000
07FE000000
07FE000000
07FE000000
07FE000000
07FE000180
07FE0001E0
07FE0003F0
07FE0003F0
07FE0007F0
07FE0007E0
0FFE000FE0
0FFF001FE0
1FFF807FE0
FFFFFFFFE0
FFFFFFFFC0
FFFFFFFFC0
FFFFFFFFC0
ENDCHAR
STARTCHAR 004D
ENCODING 77
SWIDTH 960 0
DWIDTH 64 0
BBX 62 46 1 -1
BITMAP
0FFFC000000FFFE0
0FFFE000000FFFE0
0FFFE000000FFFE0
0FFFF000001FFFE0
01FFF000001FFF00
00FFF800003FFE00
00FFF800003FFE00
00FFF800003FFC00
00FFFC00007FFC00
00FFFC00007FFC00
00FFFE00007FFC00
00FFFE0000FFFC00
00FFFF0000FFFE00
00FFFF0001FFFE00
00F7FF0001F7FE00
00F3FF8001E7FE00
00F3FF8003E7FE00
00F1FFC003C7FE00
00F1FFC003C7FE00
01F0FFE007C7FE00
01F0FFE00787FE00
01F07FF00F87FE00
01F07FF00F07FF00
01E07FF00F07FF00
01E03FF81F03FF00
01E03FF81E03FF00
01E01FFC3E03FF00
01E01FFC3C03FF00
01E00FFE3C03FF00
01E00FFE7C03FF00
03E007FE7803FF00
03E007FF7803FF00
03E007FFF003FF80
03C003FFF001FF80
03C003FFF001FF80
03C001FFE001FF80
03E001FFE001FF80
07E000FFC001FF80
07E000FFC001FFC0
0FE0007FC003FFC0
1FF8007F8007FFE0
7FFE007F801FFFFC
7FFE003F003FFFFC
7FFE003F003FFFFC
FFFE001F003FFFFC
0000001800000000
ENDCHAR
STARTCHAR 004E
ENCODING 78
SWIDTH 720 0
DWIDTH 48 0
BBX 44 46 2 -1
BITMAP
FFFC0003FFF0
FFFE0003FFF0
FFFE0003FFF0
7FFF0003FFF0
0FFF80007F80
07FFC0003F80
03FFC0001F00
03FFE0001F00
03FFF0001F00
03FFF8001F00
03FFF8001F00
03FFFC001F00
03FFFE001F00
03DFFF001F00
03CFFF001F00
03CFFF801F00
03C7FFC01F00
03C3FFE01F00
03C1FFE01F00
03C1FFF01F00
03C0FFF81F00
03C07FFC1F00
03C03FFC1F00
03C03FFE1F00
03C01FFF1F00
03C00FFF9F00
03C007FF9F00
03C007FFDF00
03C003FFFF00
03C001FFFF00
03C000FFFF00
03C000FFFF00
03C0007FFF00
03C0003FFF00
03C0001FFF00
03C0001FFF00
07C0000FFF00
07C00007FF00
07E00003FF00
0FE00003FF00
1FF00001FF00
7FFE0000FF00
FFFE00007F00
FFFE00007F00
FFFE00003F00
000000001000
ENDCHAR
STARTCHAR 004F
ENCODING 79
SWIDTH 735 0
DWIDTH 49 0
BBX 45 47 2 -1
BITMAP
000007800000
0001FFFE0000
0007FFFF8000
001FFFFFE000
007FFBFFF800
00FFC03FFC00
01FF000FFE00
03FE0007FF00
07FC0003FF80
0FFC0001FFC0
0FF80001FFC0
1FF00000FFE0
1FF000007FE0
3FF000007FF0
3FE000007FF0
7FE000003FF0
7FE000003FF8
7FE000003FF8
7FE000003FF8
7FE000001FF8
FFE000001FF8
FFE000001FF8
FFE000001FF8
FFE000001FF8
FFE000001FF8
FFE000001FF8
FFE000001FF8
7FE000001FF8
7FE000001FF8
7FF000001FF8
7FF000003FF0
7FF000003FF0
3FF000003FF0
3FF800003FE0
1FF800007FE0
1FFC00007FC0
0FFC0000FFC0
0FFE0000FF80
07FF0001FF00
03FF8003FF00
01FFC007FE00
00FFF00FFC00
007FFFFFF000
001FFFFFE000
0007FFFF8000
0001FFFC0000
000003000000
ENDCHAR
STARTCHAR 0050
ENCODING 80
SWIDTH 630 0
DWIDTH 42 0
BBX 37 45 3 0
BITMAP
FFFFFFE000
FFFFFFFC00
FFFFFFFF00
FFFFFFFFC0
1FFE07FFC0
0FFE01FFE0
0FFE00FFF0
07FE007FF0
07FE003FF8
07FE003FF8
07FE003FF8
07FE001FF8
07FE001FF8
07FE001FF8
07FE001FF8
07FE001FF8
07FE001FF8
07FE001FF8
07FE001FF8
07FE003FF0
07FE003FF0
07FE003FE0
07FE007FE0
07FE00FFC0
07FE01FF80
07FE7FFF00
07FE7FFE00
07FE7FFC00
07FE7FE000
07FE000000
07FE000000
07FE000000
07FE000000
07FE000000
07FE000000
07FE000000
07FE000000
07FE000000
0FFF000000
0FFF000000
1FFFC00000
FFFFF80000
FFFFFC0000
FFFFFC0000
FFFFFC0000
ENDCHAR
STARTCHAR 0051
ENCODING 81
SWIDTH 735 0
DWIDTH 49 0
BBX 50 59 2 -13
BITMAP
00000780000000
0001FFFE000000
0007FFFF800000
001FFFFFE00000
007FFBFFF80000
00FFC03FFC0000
01FF000FFE0000
03FE0007FF0000
07FC0003FF8000
0FFC0001FFC000
0FF80001FFC000
1FF00000FFE000
1FF000007FE000
3FF000007FF000
3FE000007FF000
7FE000003FF000
7FE000003FF800
7FE000003FF800
7FE000003FF800
7FE000001FF800
FFE000001FF800
FFE000001FF800
FFE000001FF800
FFE000001FF800
FFE000001FF800
FFE000001FF800
FFE000001FF800
7FE000001FF800
7FE000001FF800
7FF000001FF800
7FF000003FF000
7FF000003FF000
3FF000003FF000
3FF800003FE000
1FF800007FE000
1FFC00007FC000
0FFC0000FFC000
0FFE0000FF8000
07FF0001FF0000
03FF8003FF0000
01FFC007FE0000
00FFF00FFC0000
007FFFFFF00000
001FFFFFE00000
0007FFFF800000
0001FFFF800000
000003FFE00000
0000003FF80000
0000000FFC0000
00000007FF0000
00000003FFC000
00000001FFF000
00000001FFFFC0
00000000FFFFC0
000000007FFFC0
000000007FFF80
000000003FFF00
000000001FF000
00000000078000
ENDCHAR
STARTCHAR 0052
ENCODING 82
SWIDTH 690 0
DWIDTH 46 0
BBX 43 46 3 -1
BITMAP
FFFFFFF80000
FFFFFFFE0000
FFFFFFFF8000
FFFFFFFFC000
1FFE01FFE000
0FFE00FFF000
0FFE007FF800
07FE003FF800
07FE001FF800
07FE001FFC00
07FE001FFC00
07FE001FFC00
07FE001FFC00
07FE001FFC00
07FE001FFC00
07FE001FF800
07FE001FF800
07FE003FF800
07FE003FF000
07FE007FE000
07FE01FFE000
07FE07FFC000
07FFFFFF0000
07FFFFFE0000
07FFFFF00000
07FFFFF80000
07FE3FFC0000
07FE0FFE0000
07FE0FFE0000
07FE07FF0000
07FE03FF8000
07FE01FF8000
07FE01FFC000
07FE00FFC000
07FE00FFE000
07FE007FF000
07FE007FF000
07FE007FF800
0FFE003FF800
0FFE003FFC00
1FFF001FFF00
FFFFE01FFFE0
FFFFE00FFFE0
FFFFE00FFFC0
FFFFE007FFC0
000000040000
ENDCHAR
STARTCHAR 0053
ENCODING 83
SWIDTH 555 0
DWIDTH 37 0
BBX 32 47 3 -1
BITMAP
0007E000
007FFF00
01FFFFE0
07FFFFF0
0FFFFFF0
1FE01FF0
1FC00FF0
3FC007F8
3F8003F8
7F8003F8
7F8003F8
7F8001F8
7FC001F8
7FE001C0
7FF00000
7FF80000
7FFE0000
3FFF8000
3FFFE000
3FFFF800
1FFFFE00
0FFFFF80
07FFFFC0
03FFFFE0
01FFFFF0
00FFFFF8
003FFFFC
000FFFFE
0003FFFE
0000FFFE
00003FFF
00000FFF
7E0007FF
7E0003FF
7E0003FF
7E0001FF
7F0001FE
7F0001FE
7F0001FE
7F8003FC
FFC007FC
FFE01FF8
FFFFFFF0
3FFFFFE0
0FFFFF80
01FFFE00
000B8000
ENDCHAR
STARTCHAR 0054
ENCODING 84
SWIDTH 645 0
DWIDTH 43 0
BBX 40 45 2 0
BITMAP
7FFFFFFFFE
7FFFFFFFFE
7FFFFFFFFE
7FFFFFFFFE
7FC1FF83FE
7F01FF80FE
7E01FF807E
FC01FF803E
FC01FF803F
FC01FF803F
F801FF803F
F801FF801F
0001FF8000
0001FF8000
0001FF8000
0001FF8000
0001FF8000
0001FF8000
0001FF8000
0001FF8000
0001FF8000
0001FF8000
0001FF8000
0001FF8000
0001FF8000
0001FF8000
0001FF8000
0001FF8000
0001FF8000
0001FF8000
0001FF8000
0001FF8000
0001FF8000
0001FF8000
0001FF8000
0001FF8000
0001FF8000
0001FF8000
0003FF8000
0003FFC000
000FFFE000
007FFFFE00
00FFFFFE00
00FFFFFE00
00FFFFFE00
ENDCHAR
STARTCHAR 0055
ENCODING 85
SWIDTH 675 0
DWIDTH 45 0
BBX 41 46 2 -1
BITMAP
FFFFE00FFF80
FFFFE00FFF80
FFFFE00FFF80
FFFFE00FFF80
1FFF0003FE00
0FFE0001FC00
0FFE0000F800
07FE0000F800
07FE0000F800
07FE00007800
07FE00007800
07FE00007800
07FE00007800
07FE00007800
07FE00007800
07FE00007800
07FE00007800
07FE00007800
07FE00007800
07FE00007800
07FE00007800
07FE00007800
07FE00007800
07FE00007800
07FE00007800
07FE00007800
07FE00007800
07FE00007800
07FE00007800
07FE00007800
07FE00007800
07FE0000F800
07FE0000F800
07FE0000F800
07FE0000F000
07FF0000F000
07FF0001F000
03FF8001F000
03FF8003E000
01FFC007E000
01FFF01FC000
00FFFFFF8000
007FFFFF0000
001FFFFE0000
0007FFF80000
00002E000000
ENDCHAR
STARTCHAR 0056
ENCODING 86
SWIDTH 690 0
DWIDTH 46 0
BBX 44 45 1 -1
BITMAP
FFFFE001FFF0
FFFFE001FFF0
FFFFE001FFF0
FFFFE001FFF0
3FFF00003FC0
1FFF00003F80
0FFF00003F00
0FFF00001F00
07FF00003E00
07FF00003E00
03FF80003C00
03FF80003C00
01FFC0007C00
01FFC0007800
00FFC000F800
00FFE000F000
00FFE000F000
007FF001F000
007FF001E000
003FF001E000
003FF803C000
003FF803C000
001FFC07C000
001FFC078000
000FFC078000
000FFE0F0000
0007FE0F0000
0007FE1F0000
0007FF1E0000
0003FF3E0000
0003FF3C0000
0001FFBC0000
0001FFFC0000
0001FFF80000
0000FFF80000
0000FFF00000
0000FFF00000
00007FF00000
00007FE00000
00003FE00000
00003FC00000
00003FC00000
00001F800000
00001F800000
00000F800000
ENDCHAR
STARTCHAR 0057
ENCODING 87
SWIDTH 990 0
DWIDTH 66 0
BBX 64 47 1 -1
BITMAP
0000000008000000
FFFFE000F8003FFF
FFFFE000FC003FFF
FFFFE000FC003FFF
FFFFE001FC003FFF
3FFF0001FE0007FC
1FFE0001FE0003F8
0FFE0003FF0001F8
0FFE0003FF0001F0
07FE0003FF0001F0
07FF0007FF8001E0
07FF0007FF8001E0
03FF000FFF8003E0
03FF800FFFC003C0
03FF800FFFC003C0
01FF801FFFE003C0
01FFC01EFFE00780
01FFC01EFFE00780
01FFC03E7FF00780
00FFE03C7FF00F00
00FFE03C3FF00F00
00FFE07C3FF80F00
007FE0783FF81F00
007FF0781FFC1E00
007FF0F81FFC1E00
003FF0F01FFC3E00
003FF8F00FFE3C00
003FF9F00FFE3C00
001FF9E007FE3C00
001FFDE007FF7800
001FFFE007FF7800
000FFFC003FF7800
000FFFC003FFF000
000FFFC003FFF000
0007FF8001FFF000
0007FF8001FFF000
0007FF8000FFE000
0003FF0000FFE000
0003FF0000FFE000
0003FF00007FC000
0003FE00007FC000
0001FE00007FC000
0001FE00003F8000
0001FC00003F8000
0000FC00001F8000
0000F800001F8000
0000800000180000
ENDCHAR
STARTCHAR 0058
ENCODING 88
SWIDTH 690 0
DWIDTH 46 0
BBX 43 45 2 0
BITMAP
7FFFF81FFFC0
7FFFF81FFFC0
7FFFF81FFFC0
7FFFF81FFF80
1FFFE003FE00
0FFFC003FC00
07FFC003F800
03FFC003F000
01FFE003E000
01FFE007C000
00FFF00FC000
007FF80F8000
007FF81F0000
003FFC1F0000
001FFE3E0000
001FFE7C0000
000FFF7C0000
0007FFF80000
0007FFF00000
0003FFF00000
0001FFE00000
0001FFE00000
0000FFF00000
0000FFF00000
0000FFF80000
0001FFFC0000
0003FFFC0000
0003FFFE0000
0007CFFE0000
000F8FFF0000
000F87FF8000
001F07FF8000
003E03FFC000
003E01FFC000
007C01FFE000
00F800FFF000
01F800FFF000
03F0007FF800
07F0007FFC00
0FF0007FFE00
3FF8007FFF00
FFFE01FFFFC0
FFFE03FFFFC0
FFFE03FFFFE0
FFFF03FFFFE0
ENDCHAR
STARTCHAR 0059
ENCODING 89
SWIDTH 630 0
DWIDTH 42 0
BBX 40 45 1 0
BITMAP
FFFFE01FFF
FFFFE01FFF
FFFFE00FFF
7FFFE00FFF
1FFF8003FC
0FFF0001F8
07FF8001F0
07FF8001E0
03FF8003E0
03FFC003C0
01FFC007C0
01FFC00780
00FFE00F80
00FFE00F00
007FF01F00
007FF01E00
003FF81E00
003FF83C00
001FFC3C00
001FFC7800
000FFC7800
000FFEF800
0007FEF000
0007FFF000
0003FFE000
0003FFE000
0001FFC000
0001FFC000
0001FF8000
0001FF8000
0001FF8000
0001FF8000
0001FF8000
0001FF8000
0001FF8000
0001FF8000
0001FF8000
0001FFC000
0001FFC000
0003FFC000
0007FFF000
007FFFFE00
007FFFFF00
007FFFFF00
007FFFFF00
ENDCHAR
STARTCHAR 005A
ENCODING 90
SWIDTH 600 0
DWIDTH 40 0
BBX 34 45 3 0
BITMAP
1FFFFFFF80
3FFFFFFF80
1FFFFFFF80
3FFFFFFF80
3FE007FF80
3FC007FF00
3F800FFF00
3F000FFE00
3F001FFE00
3F003FFC00
3E003FFC00
7E007FF800
3E007FF800
0000FFF000
0000FFF000
0001FFE000
0001FFC000
0003FFC000
0007FF8000
0007FF8000
000FFF0000
000FFF0000
001FFE0000
001FFC0000
003FFC0000
007FF80000
007FF80000
00FFF00000
00FFF00000
01FFE00000
03FFC00000
03FFC00000
07FF800600
07FF8007C0
0FFF000FC0
0FFE000FC0
1FFE000FC0
3FFC001FC0
3FFC001FC0
7FF8003F80
7FF001FF80
FFFFFFFF80
FFFFFFFF80
FFFFFFFF80
FFFFFFFF80
ENDCHAR
STARTCHAR 005B
ENCODING 91
SWIDTH 285 0
DWIDTH 19 0
BBX 15 67 2 -18
BITMAP
FFFC
FFFE
FFFE
FFFE
FF80
FF00
FE00
FE00
FE00
FE00
FE00
FE00
FE00
FE00
FE00
FE00
FE00
FE00
FE00
FE00
FE00
FE00
FE00
FE00
FE00
FE00
FE00
FE00
FE00
FE00
FE00
FE00
FE00
FE00
FE00
FE00
FE00
FE00
FE00
FE00
FE00
FE00
FE00
FE00
FE00
FE00
FE00
FE00
FE00
FE00
FE00
FE00
FE00
FE00
FE00
FE00
FE00
FE00
FE00
FE00
FF00
FF00
FFF0
FFFC
FFFE
FFFE
FFFE
ENDCHAR
STARTCHAR 005C
ENCODING 92
SWIDTH 390 0
DWIDTH 26 0
BBX 22 48 2 0
BITMAP
380000
F80000
F80000
7C0000
7C0000
3C0000
3E0000
3E0000
1F0000
1F0000
1F0000
0F8000
0F8000
078000
07C000
07C000
03C000
03E000
03E000
01F000
01F000
00F000
00F800
00F800
007800
007C00
007C00
003E00
003E00
003E00
001F00
001F00
000F00
000F80
000F80
0007C0
0007C0
0007C0
0003E0
0003E0
0001E0
0001F0
0001F0
0000F0
0000F8
0000F8
00007C
00007C
ENDCHAR
STARTCHAR 005D
ENCODING 93
SWIDTH 285 0
DWIDTH 19 0
BBX 14 67 3 -18
BITMAP
FFFC
FFFC
FFFC
FFFC
07FC
01FC
01FC
01FC
01FC
00FC
00FC
00FC
00FC
00FC
00FC
00FC
00FC
00FC
00FC
00FC
00FC
00FC
00FC
00FC
00FC
00FC
00FC
00FC
00FC
00FC
00FC
00FC
00FC
00FC
00FC
00FC
00FC
00FC
00FC
00FC
00FC
00FC
00FC
00FC
00FC
00FC
00FC
00FC
00FC
00FC
00FC
00FC
00FC
00FC
00FC
00FC
00FC
00FC
01FC
01FC
01FC
03FC
3FFC
FFFC
FFFC
FFFC
FFFC
ENDCHAR
STARTCHAR 005E
ENCODING 94
SWIDTH 540 0
DWIDTH 36 0
BBX 31 22 3 25
BITMAP
0003C000
0007C000
000FE000
001FF000
003FF000
003EF800
007CFC00
00FC7C00
01F83E00
03F03F00
03E01F00
07C00F80
0F800FC0
1F8007C0
3F0003E0
3E0001F0
7C0001F8
F80000F8
F800007C
F000007E
6000003C
20000000
ENDCHAR
STARTCHAR 005F
ENCODING 95
SWIDTH 540 0
DWIDTH 36 0
BBX 33 5 2 -10
BITMAP
FFFFFFFF80
FFFFFFFF80
FFFFFFFF80
FFFFFFFF80
FFFFFFFF00
ENDCHAR
STARTCHAR 0060
ENCODING 96
SWIDTH 300 0
DWIDTH 20 0
BBX 13 12 4 36
BITMAP
0700
FF00
FF80
7F80
3F80
1FC0
0FC0
0FE0
07E0
03F0
01F0
01F8
ENDCHAR
STARTCHAR 0061
ENCODING 97
SWIDTH 495 0
DWIDTH 33 0
BBX 31 32 2 -1
BITMAP
000FF800
007FFE00
00FFFF00
03FFFF80
07FFFF80
1F83FFC0
3F81FFC0
7F80FFC0
7F80FFE0
FF807FE0
FF807FE0
FF807FE0
00007FE0
0003FFE0
000FFFE0
003FFFC0
01FE7FC0
07F87FC0
1FF07FC0
7FC07FC0
7FC07FC0
FF807FC0
FF807FC0
FFC07FE0
FFC07FF0
FFC07FFC
FFE0FFFE
7FFFFFFE
7FFFFFFE
3FFE3FFC
0FF81FE0
00000C00
ENDCHAR
STARTCHAR 0062
ENCODING 98
SWIDTH 600 0
DWIDTH 40 0
BBX 38 49 0 -1
BITMAP
0008000000
007C000000
7FFC000000
FFFE000000
FFFE000000
FFFE000000
3FFE000000
0FFE000000
07FE000000
07FE000000
07FE000000
07FE000000
07FE000000
07FE000000
07FE000000
07FE000000
07FE000000
07FE07F800
07FE1FFF00
07FE7FFF80
07FEFFFFC0
07FFFFFFE0
07FFF1FFF0
07FF007FF0
07FE003FF8
07FE003FF8
07FE001FF8
07FE001FF8
07FE001FFC
07FE000FFC
07FE000FFC
07FE000FFC
07FE000FFC
07FE000FFC
07FE000FF8
07FE000FF8
07FE000FF8
07FE001FF8
07FE001FF0
07FE001FF0
07FE003FE0
07FE003FE0
0FFE007FC0
0FFF00FF80
0FFFC7FF00
03FFFFFC00
00FFFFF800
001FFFC000
0000380000
ENDCHAR
STARTCHAR 0063
ENCODING 99
SWIDTH 465 0
DWIDTH 31 0
BBX 27 32 2 -1
BITMAP
001FFC00
00FFFF80
01FFFFE0
03FFFFE0
07F83FE0
0FF01FC0
1FF00FC0
3FE00FC0
3FE007C0
7FC007C0
7FC007C0
7FC00700
7FC00000
FFC00000
FFC00000
FFC00000
FFC00000
FFC00000
FFC00000
7FC00000
7FE00000
7FE00000
7FF00000
3FF00000
3FF80040
1FFE00E0
0FFFCFE0
07FFFFE0
03FFFFC0
01FFFF80
007FFE00
0001A000
ENDCHAR
STARTCHAR 0064
ENCODING 100
SWIDTH 600 0
DWIDTH 40 0
BBX 37 49 2 -1
BITMAP
0000000200
0000001F00
00001FFF80
00001FFF80
00001FFF80
00003FFF80
000007FF80
000003FF80
000001FF80
000001FF80
000001FF80
000001FF80
000001FF80
000001FF80
000001FF80
000001FF80
000001FF80
0007FFFF80
003FFFFF80
00FFFFFF80
01FFFFFF80
03FE07FF80
07FC01FF80
0FF801FF80
1FF001FF80
3FE001FF80
3FE001FF80
3FE001FF80
7FE001FF80
7FC001FF80
7FC001FF80
7FC001FF80
FFC001FF80
FFC001FF80
FFC001FF80
FFC001FF80
FFE001FF80
FFE001FF80
7FE001FF80
7FF001FF80
7FF801FF80
3FFC01FFC0
3FFE01FFF8
1FFFFFFFF8
1FFFFFFFF8
0FFFFEFFF8
03FFF8FFE0
01FFE0F000
000E000000
ENDCHAR
STARTCHAR 0065
ENCODING 101
SWIDTH 510 0
DWIDTH 34 0
BBX 30 32 2 -1
BITMAP
001FF800
00FFFE00
01FFFF80
07FFFFC0
0FFC7FE0
1FF01FE0
1FF01FF0
3FE00FF0
3FE00FF8
7FC00FF8
7FC00FF8
7FC007F8
7FC007FC
FFFFFFFC
FFFFFFFC
FFFFFFF8
FFFFFFF8
FFFC0000
FFC00000
7FE00000
7FE00000
7FE00000
7FF00000
3FF00000
3FF80038
1FFE00F8
0FFFCFF8
0FFFFFF8
03FFFFE0
01FFFFC0
007FFE00
0001C000
ENDCHAR
STARTCHAR 0066
ENCODING 102
SWIDTH 390 0
DWIDTH 26 0
BBX 29 48 2 0
BITMAP
00003F00
0003FFE0
000FFFF8
001FFFF8
007FFFF8
00FF07F8
00FF03F8
01FE03F8
01FE03F8
03FE01F8
03FE01F8
03FE0000
03FE0000
07FE0000
07FE0000
07FE0000
07FE0000
07FE0000
7FFFFC00
FFFFFC00
FFFFFC00
FFFFFC00
1FFFF800
07FE0000
07FE0000
07FE0000
07FE0000
07FE0000
07FE0000
07FE0000
07FE0000
07FE0000
07FE0000
07FE0000
07FE0000
07FE0000
07FE0000
07FE0000
07FE0000
07FE0000
07FE0000
07FF0000
0FFF0000
1FFFC000
7FFFF800
FFFFFC00
FFFFFC00
FFFFFC00
ENDCHAR
STARTCHAR 0067
ENCODING 103
SWIDTH 540 0
DWIDTH 36 0
BBX 33 48 2 -17
BITMAP
007FFFFF00
03FFFFFF00
07FFFFFF80
0FFCFFFF80
1FF03FEF80
3FE01FE080
3FE01FF000
7FE00FF800
7FC00FF800
7FC00FF800
7FC00FF800
7FC00FF800
7FE00FF800
7FE00FF800
7FE00FF800
3FF01FF000
3FF01FF000
1FFE7FE000
0FFFFFC000
03FFFF8000
07FFFE0000
0FC7C00000
1F80000000
1F80000000
3F80000000
3FFC000000
3FFFFFE000
3FFFFFF800
3FFFFFFC00
3FFFFFFE00
1FFFFFFF00
1FFFFFFF00
07FFFFFF00
1FFFFFFF00
3F801FFF00
7F0001FF00
FF0000FF00
FF0000FE00
FF0000FE00
FF0001FC00
FF0001FC00
FF8007F800
7FE01FF000
7FFFFFE000
3FFFFF8000
1FFFFE0000
07FFF80000
001D000000
ENDCHAR
STARTCHAR 0068
ENCODING 104
SWIDTH 645 0
DWIDTH 43 0
BBX 39 48 2 0
BITMAP
0008000000
00FC000000
FFFC000000
FFFC000000
FFFC000000
FFFC000000
3FFC000000
0FFC000000
0FFC000000
07FC000000
07FC000000
07FC000000
07FC000000
07FC000000
07FC000000
07FC000000
07FC000000
07FC03F000
07FC1FFE00
07FC7FFF00
07FCFFFF80
07FDFFFFC0
07FFFFFFC0
07FFC1FFE0
07FC00FFE0
07FC007FE0
07FC007FE0
07FC003FE0
07FC003FE0
07FC003FE0
07FC003FE0
07FC003FE0
07FC003FE0
07FC003FE0
07FC003FE0
07FC003FE0
07FC003FE0
07FC003FE0
07FC003FE0
07FC003FE0
07FC003FE0
0FFE003FF0
0FFE007FF0
1FFF00FFF8
FFFFC3FFFE
FFFFC3FFFE
FFFFE3FFFE
FFFFE3FFFE
ENDCHAR
STARTCHAR 0069
ENCODING 105
SWIDTH 345 0
DWIDTH 23 0
BBX 19 46 2 0
BITMAP
03F800
07FC00
0FFE00
0FFE00
0FFE00
0FFE00
0FFE00
07FC00
07F800
006000
000000
000000
000000
000000
000000
001C00
01FC00
7FFE00
FFFE00
FFFE00
FFFE00
1FFE00
07FE00
07FE00
07FE00
07FE00
07FE00
07FE00
07FE00
07FE00
07FE00
07FE00
07FE00
07FE00
07FE00
07FE00
07FE00
07FE00
07FE00
07FE00
07FE00
0FFF00
7FFFE0
FFFFE0
FFFFE0
FFFFE0
ENDCHAR
STARTCHAR 006A
ENCODING 106
SWIDTH 300 0
DWIDTH 20 0
BBX 16 62 1 -17
BITMAP
01F8
03FE
07FE
07FF
07FF
07FF
07FF
07FE
03FC
0060
0000
0000
0000
0000
0000
000E
00FE
3FFE
7FFF
7FFF
7FFF
0FFF
07FF
03FF
03FF
03FF
03FF
03FF
03FF
03FF
03FF
03FF
03FF
03FF
03FF
03FF
03FF
03FF
03FF
03FF
03FF
03FF
03FF
03FE
03FE
03FE
03FE
03FE
03FE
03FC
07FC
07F8
07F8
0FF0
0FF0
1FE0
3FC0
7F80
FF00
FE00
FC00
7000
ENDCHAR
STARTCHAR 006B
ENCODING 107
SWIDTH 615 0
DWIDTH 41 0
BBX 39 48 2 0
BITMAP
0008000000
00FC000000
FFFC000000
FFFC000000
FFFC000000
FFFC000000
3FFC000000
0FFC000000
0FFC000000
07FC000000
07FC000000
07FC000000
07FC000000
07FC000000
07FC000000
07FC000000
07FC000000
07FC03FFF8
07FC03FFF8
07FC03FFF8
07FC03FFF8
07FC01FFF0
07FC00FF00
07FC00FC00
07FC01F800
07FC03F000
07FC07E000
07FC0FC000
07FC1F8000
07FC3F0000
07FCFF8000
07FDFF8000
07FDFFC000
07FCFFE000
07FC7FF000
07FC3FF800
07FC3FFC00
07FC1FFC00
07FC0FFE00
07FC07FF00
07FC03FF80
0FFE03FFC0
0FFE01FFE0
1FFF00FFF0
FFFFC07FFE
FFFFC07FFC
FFFFC03FFC
FFFFC01FFC
ENDCHAR
STARTCHAR 006C
ENCODING 108
SWIDTH 330 0
DWIDTH 22 0
BBX 19 48 2 0
BITMAP
000800
00FC00
FFFC00
FFFC00
FFFC00
FFFC00
3FFC00
0FFC00
0FFC00
07FC00
07FC00
07FC00
07FC00
07FC00
07FC00
07FC00
07FC00
07FC00
07FC00
07FC00
07FC00
07FC00
07FC00
07FC00
07FC00
07FC00
07FC00
07FC00
07FC00
07FC00
07FC00
07FC00
07FC00
07FC00
07FC00
07FC00
07FC00
07FC00
07FC00
07FC00
07FC00
0FFE00
0FFE00
1FFF00
FFFFE0
FFFFE0
FFFFE0
FFFFE0
ENDCHAR
STARTCHAR 006D
ENCODING 109
SWIDTH 960 0
DWIDTH 64 0
BBX 60 31 2 0
BITMAP
001C03F8000F0000
01FC0FFE003FF000
7FFC3FFF00FFF800
7FFCFFFF83FFFC00
FFFDFFFFC7FFFE00
FFFFFFFFFFFFFE00
1FFFC1FFFF0FFF00
0FFE007FF807FF00
07FE007FF003FF00
07FE003FF003FF00
07FE003FF001FF00
07FE003FF001FF00
07FE003FF001FF00
07FE003FF001FF00
07FE003FF001FF00
07FE003FF001FF00
07FE003FF001FF00
07FE003FF001FF00
07FE003FF001FF00
07FE003FF001FF00
07FE003FF001FF00
07FE003FF001FF00
07FE003FF001FF00
07FE003FF001FF80
07FE003FF003FF80
07FE007FF003FF80
1FFF00FFF807FFC0
7FFFE3FFFF1FFFF0
FFFFE3FFFF1FFFF0
FFFFE3FFFF1FFFF0
FFFFE3FFFF1FFFF0
ENDCHAR
STARTCHAR 006E
ENCODING 110
SWIDTH 645 0
DWIDTH 43 0
BBX 40 31 2 0
BITMAP
001C01F000
01FC0FFE00
7FFE3FFF80
7FFC7FFFC0
FFFDFFFFC0
FFFFFFFFE0
1FFFC1FFE0
07FE007FE0
07FE007FF0
07FE003FF0
07FE003FF0
07FE003FF0
07FE003FF0
07FE003FF0
07FE003FF0
07FE003FF0
07FE003FF0
07FE003FF0
07FE003FF0
07FE003FF0
07FE003FF0
07FE003FF0
07FE003FF0
07FE003FF0
07FE003FF0
07FE007FF0
0FFF007FF8
7FFFE3FFFE
FFFFE3FFFF
FFFFE3FFFF
FFFFE3FFFF
ENDCHAR
STARTCHAR 006F
ENCODING 111
SWIDTH 570 0
DWIDTH 38 0
BBX 34 32 2 -1
BITMAP
000FFE0000
007FFF8000
01FFFFE000
03FFFFF800
07FC1FFC00
0FF80FFE00
1FF007FE00
3FE003FF00
3FE003FF00
7FE001FF80
7FC001FF80
7FC001FF80
7FC000FFC0
FFC000FFC0
FFC000FFC0
FFC000FFC0
FFC000FFC0
FFC000FFC0
FFC000FFC0
7FE000FF80
7FE000FF80
7FE000FF80
7FF001FF00
3FF001FF00
3FF803FE00
1FF803FE00
0FFE07FC00
07FFFFF800
03FFFFF000
00FFFFC000
003FFF0000
0002C00000
ENDCHAR
STARTCHAR 0070
ENCODING 112
SWIDTH 630 0
DWIDTH 42 0
BBX 38 47 2 -16
BITMAP
001C07F800
01FC1FFF00
7FFE7FFF80
7FFEFFFFC0
FFFFFFFFE0
FFFFF1FFF0
1FFF007FF0
07FE003FF8
07FE001FF8
07FE001FF8
07FE001FFC
07FE000FFC
07FE000FFC
07FE000FFC
07FE000FFC
07FE000FFC
07FE000FFC
07FE000FF8
07FE000FF8
07FE000FF8
07FE001FF8
07FE001FF0
07FE001FF0
07FE003FE0
07FE003FE0
07FE007FC0
07FF00FF80
07FFC7FF00
07FFFFFC00
07FFFFF800
07FFFFC000
07FE780000
07FE000000
07FE000000
07FE000000
07FE000000
07FE000000
07FE000000
07FE000000
07FE000000
07FF000000
0FFF000000
1FFFC00000
7FFFF80000
FFFFFC0000
FFFFFC0000
FFFFFC0000
ENDCHAR
STARTCHAR 0071
ENCODING 113
SWIDTH 585 0
DWIDTH 39 0
BBX 38 47 2 -16
BITMAP
0007FF8000
003FFFF800
00FFFFFE00
01FFFFFF80
03FE07FFC0
07FC01FFC0
0FF801FFC0
1FF001FF80
3FF001FF80
3FE001FF80
7FE001FF80
7FE001FF80
7FC001FF80
7FC001FF80
FFC001FF80
FFC001FF80
FFC001FF80
FFC001FF80
FFC001FF80
FFC001FF80
7FE001FF80
7FE001FF80
7FE001FF80
7FF001FF80
3FF801FF80
3FFC03FF80
1FFFFFFF80
0FFFFFFF80
07FFFDFF80
03FFF1FF80
007F81FF80
000001FF80
000001FF80
000001FF80
000001FF80
000001FF80
000001FF80
000001FF80
000001FF80
000001FF80
000001FF80
000003FFC0
000007FFE0
00007FFFF8
00007FFFF8
0000FFFFFC
0000FFFFFC
ENDCHAR
STARTCHAR 0072
ENCODING 114
SWIDTH 465 0
DWIDTH 31 0
BBX 28 31 2 0
BITMAP
001C0380
01FC1FF0
7FFC3FF0
7FFC7FF0
FFFCFFF0
FFFDFFF0
1FFDFFF0
07FBFFF0
07FF87F0
07FE03F0
07FE03F0
07FE03F0
07FE0000
07FE0000
07FE0000
07FE0000
07FE0000
07FE0000
07FE0000
07FE0000
07FE0000
07FE0000
07FE0000
07FE0000
07FF0000
0FFF0000
1FFFC000
7FFFF800
FFFFFC00
FFFFFC00
FFFFFC00
ENDCHAR
STARTCHAR 0073
ENCODING 115
SWIDTH 450 0
DWIDTH 30 0
BBX 25 32 3 -1
BITMAP
01FFE000
0FFFFC00
1FFFFE00
3FFFFE00
7FC1FE00
FF80FE00
FF007E00
FF007E00
FF803E00
FFC03C00
FFF00000
FFFC0000
7FFF0000
7FFFC000
3FFFF000
1FFFFC00
0FFFFE00
03FFFF00
007FFF80
001FFF80
7807FF80
F801FF80
F801FF80
FC00FF80
FC00FF80
FE01FF80
FF01FF00
FFFFFF00
FFFFFE00
FFFFF800
1FFFE000
007C0000
ENDCHAR
STARTCHAR 0074
ENCODING 116
SWIDTH 375 0
DWIDTH 25 0
BBX 23 42 1 -1
BITMAP
001C00
007C00
01FC00
07FC00
07FC00
07FC00
07FC00
07FC00
07FC00
07FC00
07FC00
FFFFFC
FFFFFC
FFFFFC
FFFFFC
3FFFF0
07FC00
07FC00
07FC00
07FC00
07FC00
07FC00
07FC00
07FC00
07FC00
07FC00
07FC00
07FC00
07FC00
07FC00
07FC00
07FC00
07FC00
07FC00
07FE00
07FE00
07FF0C
03FFFE
03FFFE
01FFFC
007FF0
000600
ENDCHAR
STARTCHAR 0075
ENCODING 117
SWIDTH 600 0
DWIDTH 40 0
BBX 38 31 1 -1
BITMAP
0038000380
03F801FFC0
7FFC0FFFC0
FFFC0FFFC0
FFFC0FFFC0
FFFC0FFFC0
1FFC01FFC0
0FFC00FFC0
0FFC00FFC0
0FFC00FFC0
0FFC00FFC0
0FFC00FFC0
0FFC00FFC0
0FFC00FFC0
0FFC00FFC0
0FFC00FFC0
0FFC00FFC0
0FFC00FFC0
0FFC00FFC0
0FFC00FFC0
0FFC00FFC0
0FFC00FFC0
0FFC00FFC0
0FFE00FFC0
07FE00FFE0
07FF80FFFC
07FFFFFFFC
03FFFFFFFC
03FFFF7FFC
01FFFC7FF0
007FE07800
ENDCHAR
STARTCHAR 0076
ENCODING 118
SWIDTH 555 0
DWIDTH 37 0
BBX 35 32 1 -1
BITMAP
FFFFC3FFE0
FFFFC3FFE0
FFFFC3FFE0
FFFFC1FFE0
7FFF00FFC0
1FFE003F00
1FFC003E00
0FFE003E00
07FE003C00
07FF007C00
03FF007800
03FF007800
03FF80F800
01FF80F000
01FFC1F000
00FFC1E000
00FFE3E000
007FE3C000
007FE3C000
003FF78000
003FF78000
001FFF8000
001FFF0000
000FFF0000
000FFE0000
000FFE0000
0007FC0000
0007FC0000
0003F80000
0003F80000
0001F80000
0001C00000
ENDCHAR
STARTCHAR 0077
ENCODING 119
SWIDTH 780 0
DWIDTH 52 0
BBX 51 32 1 -1
BITMAP
FFFF801C03FFE0
FFFF803E03FFE0
FFFF807E03FFC0
FFFF807F01FFC0
7FFF00FF01FF80
1FFC00FF007F00
1FFC00FF803E00
0FFC01FF803E00
0FFE01FFC03C00
07FE03FFC03C00
07FE03FFC07C00
07FF03FFE07800
03FF07FFE07800
03FF07FFF0F800
01FF8FBFF0F000
01FF8F9FF0F000
01FF8F1FF8F000
00FF9F1FF9E000
00FFDE0FFDE000
00FFFE0FFDE000
007FFC07FFC000
007FFC07FFC000
007FFC03FFC000
003FF803FF8000
003FF803FF8000
003FF001FF8000
001FF001FF0000
001FE000FF0000
001FE000FF0000
000FE000FE0000
000FC0007E0000
000F0000780000
ENDCHAR
STARTCHAR 0078
ENCODING 120
SWIDTH 555 0
DWIDTH 37 0
BBX 34 31 2 0
BITMAP
FFFFC7FF80
FFFFC7FF80
FFFFC7FF80
FFFFC7FF80
3FFF81FF00
0FFF01FC00
07FF01F800
07FF81F000
03FF83E000
01FFC7E000
00FFE7C000
00FFEF8000
007FFF8000
003FFF0000
003FFE0000
001FFE0000
003FFF0000
003FFF8000
007FFF8000
00FDFFC000
00F9FFE000
01F8FFE000
03F07FF000
03E07FF800
07E03FFC00
0FE03FFC00
1FE03FFF00
FFF0FFFFC0
FFF0FFFFC0
FFF8FFFFC0
FFF8FFFFC0
ENDCHAR
STARTCHAR 0079
ENCODING 121
SWIDTH 555 0
DWIDTH 37 0
BBX 36 48 1 -17
BITMAP
FFFFE3FFF0
FFFFE3FFE0
FFFFE1FFE0
FFFFE1FFE0
7FFFC1FFE0
1FFE003F80
0FFE003F00
0FFE003E00
07FE003E00
07FF003C00
03FF007C00
03FF807800
01FF807800
01FFC0F800
00FFC0F000
00FFC1F000
007FE1E000
007FE1E000
003FF3E000
003FF3C000
003FF7C000
001FFF8000
001FFF8000
000FFF0000
000FFF0000
0007FF0000
0007FE0000
0003FE0000
0003FC0000
0003FC0000
0001FC0000
0001F80000
0000F80000
0000F00000
0001F00000
0001E00000
0003E00000
0003C00000
0007C00000
383F800000
3FFF800000
7FFF000000
7FFF000000
7FFE000000
7FFC000000
3FF8000000
1FF0000000
0180000000
ENDCHAR
STARTCHAR 007A
ENCODING 122
SWIDTH 510 0
DWIDTH 34 0
BBX 29 31 3 0
BITMAP
7FFFFFE0
7FFFFFE0
7FFFFFF0
7FFFFFF0
7FF0FFE0
7F01FFE0
7E01FFC0
7E03FF80
7C07FF80
7C07FF00
7C0FFE00
001FFE00
001FFC00
003FF800
007FF800
007FF000
00FFE000
01FFC000
03FFC000
03FF81C0
07FF01F0
0FFF01F0
0FFE01F0
1FFC01F0
3FF803F0
7FF803F0
7FF00FF8
FFFFFFF8
FFFFFFF8
FFFFFFF8
7FFFFFF0
ENDCHAR
STARTCHAR 007B
ENCODING 123
SWIDTH 375 0
DWIDTH 25 0
BBX 20 68 2 -18
BITMAP
000060
0001F0
0007F0
001FF0
003FC0
007F00
00FE00
00FE00
01FE00
01FC00
01FC00
01FC00
03FC00
03FC00
03FC00
03FE00
01FE00
01FE00
01FE00
01FE00
01FE00
01FF00
01FF00
01FF00
01FF00
01FF00
01FF00
03FE00
03FE00
07FC00
0FFC00
3FF800
7FE000
FF0000
FFC000
7FF000
1FF800
0FFC00
07FE00
03FE00
03FE00
01FF00
01FF00
01FF00
01FF00
01FF00
01FF00
01FE00
01FE00
01FE00
01FE00
01FE00
01FE00
01FE00
01FE00
01FC00
01FC00
01FC00
01FE00
01FE00
00FE00
00FF00
007F00
003F80
001FE0
000FF0
0003F0
0000F0
ENDCHAR
STARTCHAR 007C
ENCODING 124
SWIDTH 180 0
DWIDTH 12 0
BBX 5 64 4 -16
BITMAP
18
F8
F8
F8
F8
F8
F8
F8
F8
F8
F8
F8
F8
F8
F8
F8
F8
F8
F8
F8
F8
F8
F8
F8
F8
F8
F8
F8
F8
F8
F8
F8
F8
F8
F8
F8
F8
F8
F8
F8
F8
F8
F8
F8
F8
F8
F8
F8
F8
F8
F8
F8
F8
F8
F8
F8
F8
F8
F8
F8
F8
F8
F8
F8
ENDCHAR
STARTCHAR 007D
ENCODING 125
SWIDTH 375 0
DWIDTH 25 0
BBX 20 68 3 -18
BITMAP
600000
780000
FF0000
7F8000
1FC000
0FE000
07F000
07F800
03F800
03F800
03F800
03FC00
03FC00
03FC00
03FC00
03FC00
07FC00
07F800
07F800
07F800
07F800
07F800
0FF800
0FF800
0FF800
0FF800
07F800
07FC00
07FC00
03FE00
01FF00
00FFC0
003FF0
0007F0
003FF0
00FFE0
01FF80
03FF00
07FE00
07FC00
07FC00
0FFC00
0FF800
0FF800
0FF800
0FF800
0FF800
07F800
07F800
07F800
07F800
07FC00
07FC00
07FC00
03FC00
03FC00
03F800
03F800
03F800
07F800
07F000
07F000
0FE000
1FE000
7FC000
FF0000
FE0000
F00000
ENDCHAR
STARTCHAR 007E
ENCODING 126
SWIDTH 540 0
DWIDTH 36 0
BBX 31 10 3 12
BITMAP
03F80000
07FE001C
0FFF803E
1FFFE07C
3FFFFFFC
7E1FFFF8
F803FFF0
F001FFE0
E0007FC0
60001F00
ENDCHAR
STARTCHAR 00A0
ENCODING 160
SWIDTH 195 0
DWIDTH 13 0
BBX 0 0 0 0
BITMAP
ENDCHAR
STARTCHAR 00A1
ENCODING 161
SWIDTH 405 0
DWIDTH 27 0
BBX 11 48 8 -17
BITMAP
1F00
3FC0
7FC0
FFE0
FFE0
FFE0
FFE0
7FC0
7FC0
3F80
0000
0000
0000
0000
0000
0000
0F00
1F00
1F00
1F00
1F00
1F80
1F80
1F80
1F80
3F80
3F80
3F80
3F80
3F80
3F80
3F80
3FC0
3FC0
3FC0
3FC0
7FC0
7FC0
7FC0
7FC0
7FE0
7FE0
7FE0
7FE0
7FE0
FFE0
7E00
7000
ENDCHAR
STARTCHAR 00A2
ENCODING 162
SWIDTH 465 0
DWIDTH 31 0
BBX 27 50 2 -9
BITMAP
00020000
0003C000
0003C000
0003C000
0003C000
0003C000
0003C000
0003C000
0003C000
0003C000
001FFC00
00FFFF80
01FFFFE0
03FFFFE0
07FBFFE0
0FF3DFC0
1FF3CFC0
3FE3CFC0
3FE3C7C0
7FC3C7C0
7FC3C7C0
7FC3C700
7FC3C000
FFC3C000
FFC3C000
FFC3C000
FFC3C000
FFC3C000
FFC3C000
7FC3C000
7FE3C000
7FE3C000
7FF3C000
3FF3C000
3FFBC040
1FFFC0E0
0FFFCFE0
07FFFFE0
03FFFFC0
01FFFF80
007FFE00
0003C000
0003C000
0003C000
0003C000
0003C000
0003C000
0003C000
0003C000
0003C000
ENDCHAR
STARTCHAR 00A3
ENCODING 163
SWIDTH 570 0
DWIDTH 38 0
BBX 33 47 3 -1
BITMAP
0001FC0000
001FFFE000
007FFFFC00
01FFFFFC00
03FFFFFC00
07FE07FC00
0FFC03FC00
0FF803FC00
1FF801FC00
1FF801FC00
1FF801FC00
1FF801FC00
1FF800F000
1FF8000000
1FF8000000
1FFC000000
1FFE000000
1FFE000000
0FFF000000
0FFF000000
0FFF800000
07FF800000
7FFFFF8000
7FFFFF8000
7FFFFF8000
FFFFFF0000
FFFFFF0000
01FF800000
01FF000000
01FF000000
01FF000000
01FE000000
01FE000000
01FC000000
01F8380000
03F1FF0700
03F7FFFF80
07FFFFFF80
07FFFFFF80
0FFFFFFF00
1FFFFFFE00
3FFFFFFC00
7FFFFFFC00
FE007FF800
F8001FF800
700003F000
2000001000
ENDCHAR
STARTCHAR 00A4
ENCODING 164
SWIDTH 555 0
DWIDTH 37 0
BBX 29 27 4 3
BITMAP
300000E0
F81FC1F0
7CFFF3E0
3FFFFFC0
1FFFFF80
0FC07F00
0F801F80
0F000F80
1F000FC0
1E0007C0
1E0007C0
3E0003C0
3E0003C0
3E0003C0
3E0003C0
1F0003C0
1F0007C0
1F8007C0
0F800F80
0FC01F00
07F03F80
0FFFFFC0
1FFFFFE0
3E7FF3F0
7C0F81F8
780000F0
10000040
ENDCHAR
STARTCHAR 00A5
ENCODING 165
SWIDTH 630 0
DWIDTH 42 0
BBX 40 45 1 0
BITMAP
FFFFE01FFF
FFFFE01FFF
FFFFE00FFF
7FFFE00FFF
1FFF8003FC
0FFF0001F8
07FF8001F0
07FF8001E0
03FF8003E0
03FFC003C0
01FFC007C0
01FFC00780
00FFE00F80
00FFE00F00
007FF01F00
007FF01E00
003FF81E00
003FF83C00
001FFC3C00
03FFFC7FE0
03FFFC7FE0
03FFFEFFE0
03FFFEFFE0
03FFFFFFE0
0003FFE000
0003FFE000
0001FFC000
0001FFC000
03FFFFFFE0
03FFFFFFE0
03FFFFFFE0
07FFFFFFE0
0001FF8000
0001FF8000
0001FF8000
0001FF8000
0001FF8000
0001FFC000
0001FFC000
0003FFC000
0007FFF000
007FFFFE00
007FFFFF00
007FFFFF00
007FFFFF00
ENDCHAR
STARTCHAR 00A6
ENCODING 166
SWIDTH 180 0
DWIDTH 12 0
BBX 5 64 4 -16
BITMAP
38
F8
F8
F8
F8
F8
F8
F0
F0
F0
F0
F0
F0
F0
F0
F0
F8
F0
F0
F8
F8
F8
F8
F8
F8
F8
E0
00
00
00
00
00
00
00
00
00
78
F8
F8
F8
F8
F8
F8
F0
F0
F0
F0
F0
F0
F0
F0
F0
F0
F0
F0
F0
F8
F8
F8
F8
F8
F8
F8
F8
ENDCHAR
STARTCHAR 00A7
ENCODING 167
SWIDTH 570 0
DWIDTH 38 0
BBX 31 64 3 -16
BITMAP
0003C000
003FFE00
00FFFF80
01FFFF80
03FFFF80
07F03F80
0FE01F80
0FC00F80
0FC00F80
1FC00780
1FE00780
1FE00600
1FF00000
0FF80000
0FFE0000
0FFF0000
0FFFC000
07FFF000
07FFFC00
03FFFF00
01FFFFC0
00FFFFE0
03FFFFF0
07FFFFF8
1FF7FFF8
3FC1FFFC
3F80FFFC
7F003FFE
7F000FFE
FF0007FE
FF0003FE
FF0001FE
FF0001FE
FF8001FE
FFC000FE
FFE001FC
FFF001FC
7FFC01FC
7FFF03F8
3FFF8FF0
3FFFFFE0
1FFFFF80
0FFFFE00
07FFFE00
03FFFF00
00FFFF80
003FFFC0
000FFFC0
0003FFE0
0001FFE0
00007FE0
00003FE0
07801FE0
07800FE0
07C00FE0
07C007E0
07C00FE0
07E00FE0
07F00FC0
07F83FC0
07FFFF80
07FFFF00
03FFFC00
007FF000
ENDCHAR
STARTCHAR 00A8
ENCODING 168
SWIDTH 300 0
DWIDTH 20 0
BBX 26 9 -3 35
BITMAP
1F003E00
3F80FF00
7FC0FF80
7FC1FFC0
FFE1FFC0
FFC1FFC0
7FC0FF80
7FC0FF80
3F807F00
ENDCHAR
STARTCHAR 00A9
ENCODING 169
SWIDTH 795 0
DWIDTH 53 0
BBX 46 46 4 -8
BITMAP
00007FF80000
0003FFFF0000
000FFFFFC000
003FFCFFF000
007F8003F800
00FC0000FC00
01F000003E00
03E000001F00
07C01FF80F80
0F80FFFE07C0
1F01FFFF83C0
1E03FFFF81E0
3E07F03F81F0
3C0FE01F80F0
7C1FE00F80F0
781FC00F8078
783FC0078078
703FC0078078
F03FC0060038
F03FC000003C
F07FC000003C
F07FC000003C
F07FC000003C
F07FC000003C
F07FC000003C
F07FC000003C
F03FC000003C
F03FC0000038
783FE0000078
781FE0000078
781FF0000078
3C1FF80380F0
3C0FFC0780F0
1E07FFFF81E0
1F03FFFF03E0
0F01FFFE07C0
0F807FF80F80
07E007001F80
03F000003F00
01FC0000FE00
00FF0003F800
003FE01FF000
001FFFFFE000
0007FFFF8000
0000FFFC0000
000003000000
ENDCHAR
STARTCHAR 00AA
ENCODING 170
SWIDTH 435 0
DWIDTH 29 0
BBX 24 24 3 24
BITMAP
01FC00
0FFF80
3FFFC0
7F1FE0
3E0FF0
3E07F0
3E07F0
3C07F0
1C07F0
000FF8
01FFF8
0FFFF8
1FE7F8
7F87F8
7F07F8
FE07F8
FE0FF8
FE0FF8
FF1FF8
FFFFFF
FFFFFF
FFF7FE
7FE7F8
1FC380
ENDCHAR
STARTCHAR 00AB
ENCODING 171
SWIDTH 495 0
DWIDTH 33 0
BBX 26 23 4 5
BITMAP
00200000
007C0780
00F80FC0
01F01F80
03F03F00
07E07F00
0FC0FE00
3F81FC00
7F83FC00
7F03F800
FF03F000
FF07F800
FF87F800
7F83FC00
3FC1FC00
1FC0FE00
0FE0FE00
07F07F00
03F03F80
01F81F80
00F80F80
00780700
00300200
ENDCHAR
STARTCHAR 00AC
ENCODING 172
SWIDTH 540 0
DWIDTH 36 0
BBX 30 17 3 7
BITMAP
7FFFFFFC
7FFFFFFC
7FFFFFFC
FFFFFFFC
FFFFFFFC
0000003C
0000003C
0000003C
0000003C
0000003C
0000003C
0000003C
0000003C
0000003C
0000003C
0000003C
00000030
ENDCHAR
STARTCHAR 00AD
ENCODING 173
SWIDTH 405 0
DWIDTH 27 0
BBX 20 6 4 14
BITMAP
7FFFF0
7FFFF0
FFFFF0
FFFFF0
FFFFE0
FFFE00
ENDCHAR
STARTCHAR 00AE
ENCODING 174
SWIDTH 525 0
DWIDTH 35 0
BBX 28 28 4 25
BITMAP
001F8000
00FFF000
03FFFC00
07F0FE00
0F801F00
1E000F80
3C000780
387F83C0
787FE1E0
7071E1E0
F070E0E0
E070E0E0
E070E0F0
E070E0F0
E07FC0F0
E07F80F0
E073C0E0
F071C0E0
7070E0E0
7870F1E0
3870E3C0
3C0003C0
1E000F80
0F801F00
07F0FE00
03FFFC00
00FFF000
001F8000
ENDCHAR
STARTCHAR 00AF
ENCODING 175
SWIDTH 300 0
DWIDTH 20 0
BBX 24 4 -2 38
BITMAP
FFFFFF
FFFFFF
FFFFFF
FFFC00
ENDCHAR
STARTCHAR 00B0
ENCODING 176
SWIDTH 405 0
DWIDTH 27 0
BBX 19 18 4 29
BITMAP
00E000
07FE00
1FFF00
3FFF80
7E0FC0
7E0FE0
FC07E0
FC07E0
FC07E0
FC07E0
FC07E0
FE07E0
7E07E0
7F07C0
3FDFC0
3FFF80
0FFE00
03F800
ENDCHAR
STARTCHAR 00B1
ENCODING 177
SWIDTH 540 0
DWIDTH 36 0
BBX 29 30 4 3
BITMAP
000F8000
000F8000
000F8000
000F8000
000F8000
000F8000
000F8000
000F8000
000F8000
000F8000
3FFFFFE0
3FFFFFE0
3FFFFFE0
3FFFFFC0
000F8000
000F8000
000F8000
000F8000
000F8000
000F8000
000F8000
000F8000
000F8000
000E0000
00000000
00000000
FFFFFFF8
FFFFFFF8
FFFFFFF8
FFFFFFF8
ENDCHAR
STARTCHAR 00B2
ENCODING 178
SWIDTH 375 0
DWIDTH 25 0
BBX 21 24 2 27
BITMAP
07FE00
3FFF80
3FFFC0
3FFFE0
3E1FE0
3E1FE0
3C0FE0
3C0FE0
3C0FE0
1C1FE0
001FC0
003F80
007F00
00FE00
01FC00
03F078
07E0F8
0FC1F8
1FFFF8
3FFFF8
7FFFF8
FFFFF8
7FFFF8
7FFFF0
ENDCHAR
STARTCHAR 00B3
ENCODING 179
SWIDTH 375 0
DWIDTH 25 0
BBX 21 32 2 19
BITMAP
3FFFE0
3FFFE0
3FFFE0
3FFFE0
3FFFC0
3FFF80
3E0F80
3C1F00
783E00
003C00
007C00
00F800
01F000
03FF00
03FFC0
03FFE0
01FFF0
000FF0
0007F8
0007F8
0003F8
0003F8
0003F8
0007F8
0007F0
0007F0
000FE0
703FE0
7FFFC0
FFFF00
7FFC00
0FE000
ENDCHAR
STARTCHAR 00B4
ENCODING 180
SWIDTH 300 0
DWIDTH 20 0
BBX 13 13 3 35
BITMAP
03F8
0FF8
0FF0
0FE0
1FC0
1FC0
1F80
3F00
3E00
7E00
7C00
FC00
1800
ENDCHAR
STARTCHAR 00B5
ENCODING 181
SWIDTH 630 0
DWIDTH 42 0
BBX 39 47 2 -16
BITMAP
0018000180
01FC007FC0
7FFC0FFFC0
FFFC0FFFC0
FFFC0FFFC0
FFFC0FFFC0
1FFC01FFC0
0FFC00FFC0
0FFC007FC0
0FFC007FC0
0FFC007FC0
07FC007FC0
07FC007FC0
07FC007FC0
07FC007FC0
07FC007FC0
07FC007FC0
07FC007FC0
07FC007FC0
07FC00FFC0
07FC00FFC0
07FC00FFC0
07FC01FFC0
07FE01FFE0
07FE03FFE0
07FF07FFFE
07FFFFBFFE
07FFFF3FFE
07FFFE3FFC
07FFFC3FF8
07FFF01E00
07F8000000
07F8000000
07F8000000
07F8000000
07F8000000
07F8000000
0FF8000000
0FF8000000
0FF8000000
0FF8000000
0FF8000000
0FF8000000
0FF0000000
0FC0000000
0F00000000
0600000000
ENDCHAR
STARTCHAR 00B6
ENCODING 182
SWIDTH 585 0
DWIDTH 39 0
BBX 36 62 2 -17
BITMAP
001FFFFFF0
00FFFFFFF0
03FFFFFFE0
0FFFDFFFE0
1FFC1E3F00
3FF01E3E00
3FE01E3E00
7FE01E3E00
7FE01E3E00
7FC01E3E00
7FC01E3E00
FFC01E3E00
FFC01E3E00
FFC01E3E00
7FC01E3E00
7FE01E3E00
7FE01E3E00
7FE01E3E00
7FF01E3E00
3FF81E3E00
1FFE1E3E00
0FFFFE3E00
07FFFE3E00
01FFFE3E00
001FFE3E00
00001E3E00
00001E3E00
00001E3E00
00001E3E00
00001E3E00
00001E3E00
00001E3E00
00001E3E00
00001E3E00
00001E3E00
00001E3E00
00001E3E00
00001E3E00
00001E3E00
00001E3E00
00001E3E00
00001E3E00
00001E3E00
00001E3E00
00001E3E00
00001E3E00
00001E3E00
00001E3E00
00001E3E00
00001E3E00
00001E3E00
00001E3E00
00001E3E00
00001E3E00
00001E3E00
00001E3E00
00001E3E00
00001E3E00
00001E3E00
00001E3E00
00001E3E00
0000002000
ENDCHAR
STARTCHAR 00B7
ENCODING 183
SWIDTH 270 0
DWIDTH 18 0
BBX 11 10 4 13
BITMAP
3F80
7FC0
FFE0
FFE0
FFE0
FFE0
FFE0
7FC0
7F80
1F00
ENDCHAR
STARTCHAR 00B8
ENCODING 184
SWIDTH 300 0
DWIDTH 20 0
BBX 10 17 5 -16
BITMAP
1E00
3C00
3C00
7800
FC00
FF00
FF80
FFC0
1FC0
0FC0
07C0
07C0
0FC0
1F80
FF80
FE00
F800
ENDCHAR
STARTCHAR 00B9
ENCODING 185
SWIDTH 330 0
DWIDTH 22 0
BBX 16 24 3 27
BITMAP
FFFF
FFFF
7FFF
7FFE
3FFC
0FF0
0FF0
0FF0
0FF0
0FF0
0FF0
0FF0
0FF0
0FF0
0FF0
0FF0
0FF0
0FF0
0FF0
1FF8
7FFE
7FFF
FFFF
FFFF
ENDCHAR
STARTCHAR 00BA
ENCODING 186
SWIDTH 435 0
DWIDTH 29 0
BBX 25 24 2 24
BITMAP
003F0000
01FFE000
07FFF800
0FFFFC00
1FC3FC00
3F81FE00
3F80FF00
7F80FF00
7F00FF00
7F00FF00
FF007F80
FF007F80
FF007F80
FF007F80
FF007F00
7F807F00
7F80FF00
7F80FF00
3FC0FE00
3FC1FE00
1FF3FC00
0FFFF800
07FFE000
01FF8000
ENDCHAR
STARTCHAR 00BB
ENCODING 187
SWIDTH 510 0
DWIDTH 34 0
BBX 26 23 4 5
BITMAP
00010000
780F8000
FC07C000
7E07E000
7F03F800
3F81FC00
1FC1FE00
1FE0FF00
0FF07F80
0FF07FC0
07F83FC0
07F83FC0
07F83FC0
07F03F80
0FE07F00
1FC0FE00
1F80FC00
3F81F800
7F03F000
7E07E000
7C07C000
38078000
10030000
ENDCHAR
STARTCHAR 00BC
ENCODING 188
SWIDTH 870 0
DWIDTH 58 0
BBX 53 49 3 -1
BITMAP
00080000000000
007C0000001000
3FFC0000003E00
FFFC0000003E00
FFFC0000007C00
FFFC000000FC00
1FFC000001F800
03FC000001F000
03FC000003E000
03FC000007E000
03FC00000FC000
03FC00000F8000
03FC00001F8000
03FC00003F0000
03FC00007E0000
03FC00007C0000
03FC0000FC0000
03FC0001F80000
03FC0001F00000
03FC0003E03F00
03FC0007E03F00
03FC000FC07F00
03FC000F80FF00
03FC001F00FF00
03FC003F01FF00
07FE007E03FF00
0FFF007C07FF00
7FFFE0F80FFF00
FFFFF1F80F7F00
FFFFF3F01E7F00
000003E03C7F00
000007E07C7F00
00000FC0787F00
00001F80F07F00
00001F01E07F00
00003F03E07F00
00007E07FFFFF8
00007C07FFFFF8
0000F807FFFFF8
0001F807FFFFF0
0003F007FFFFF0
0003E003FF7F00
0007C000007F00
000FC000007F00
001F800000FF80
001F00000FFFF0
003F00000FFFF0
007E00000FFFF0
003C00000FFFF0
ENDCHAR
STARTCHAR 00BD
ENCODING 189
SWIDTH 975 0
DWIDTH 65 0
BBX 61 49 3 -1
BITMAP
0008000000000000
007C000000100000
3FFC0000003E0000
FFFC0000003E0000
FFFC0000007C0000
FFFC000000FC0000
1FFC000001F80000
03FC000001F00000
03FC000003E00000
03FC000007E00000
03FC00000FC00000
03FC00000F800000
03FC00001F800000
03FC00003F000000
03FC00007E000000
03FC00007C000000
03FC0000FC000000
03FC0001F8000000
03FC0001F0000000
03FC0003E01FFC00
03FC0007E1FFFF00
03FC000FC3FFFFC0
03FC000F83FFFFE0
03FC001F03FC7FE0
03FC003F03F83FE0
07FE007E03F03FE0
0FFF007C03F03FE0
7FFFE0F803F03FE0
FFFFF1F803E03FE0
FFFFF3F003E03FE0
000003E000003FC0
000007E000007FC0
00000FC000007F80
00001F800000FF00
00001F000001FE00
00003F000003FC00
00007E000007F000
00007C00000FE000
0000F800001FC0F8
0001F800003F80F8
0003F000007F01F8
0003E00000FFFFF8
0007C00001FFFFF8
000FC00003FFFFF8
001F800003FFFFF8
001F000003FFFFF8
003F000003FFFFF8
007E000003FFFFF8
003C000003FFFFF0
ENDCHAR
STARTCHAR 00BE
ENCODING 190
SWIDTH 855 0
DWIDTH 57 0
BBX 53 48 2 -1
BITMAP
7FFFF000001000
7FFFF000003E00
7FFFF000003E00
7FFFF000007C00
7FFFE00000FC00
7FFFC00001F800
7FFF800001F000
781F000003F000
F83F000007E000
703E00000FC000
007C00000F8000
00F800001F8000
01FE00003F0000
03FFC0003E0000
07FFE0007C0000
03FFF000FC0000
03FFF801F80000
003FF801F00000
000FF803E03F00
0007F807E03F00
0007F80FC07F00
0007F80F80FF00
0007F81F80FF00
000FF83F01FF00
001FF07E03FF00
E03FE07C07FF00
FFFFC0FC0FFF00
FFFF81F80F7F00
7FFE01F01E7F00
0FF003E03C7F00
000007E07C7F00
00000FC0787F00
00000F80F07F00
00001F01E07F00
00003F03E07F00
00007E07FFFFF8
00007C07FFFFF8
0000F807FFFFF8
0001F807FFFFF0
0003F007FFFFF0
0003E003FF7F00
0007E000007F00
000FC000007F00
001F800000FF80
001F00000FFFF0
003F00000FFFF0
007E00000FFFF0
003C00000FFFF0
ENDCHAR
STARTCHAR 00BF
ENCODING 191
SWIDTH 525 0
DWIDTH 35 0
BBX 24 48 4 -17
BITMAP
003E00
00FF80
00FFC0
01FFC0
01FFC0
01FFC0
01FFC0
01FFC0
01FF80
00FF80
003E00
000000
000000
000000
000400
003E00
003F00
003F80
001F80
001F80
001FC0
001FC0
003FC0
003FC0
003FC0
007F80
007F80
00FF80
01FF00
03FF00
07FE00
0FFC00
1FF800
3FF000
3FE000
7FE018
7FC01F
7FC01F
7FC03F
FFC03F
FFC03F
7FC07F
7FE07F
7FF0FF
3FFFFF
1FFFFF
0FFFFC
01FFC0
ENDCHAR
STARTCHAR 00C0
ENCODING 192
SWIDTH 705 0
DWIDTH 47 0
BBX 45 58 1 0
BITMAP
0003FC000000
0003FC000000
0001FC000000
0000FE000000
00007E000000
00003F000000
00003F000000
00001F800000
00000F800000
000000000000
000000000000
000000000000
000000000000
00000F000000
00001F800000
00001F800000
00001FC00000
00003FC00000
00003FE00000
00007FE00000
00007FF00000
0000FFF00000
0000FFF00000
0000FFF80000
0001FFF80000
0001FFFC0000
0003CFFC0000
0003CFFE0000
0003CFFE0000
000787FF0000
000787FF0000
000F83FF0000
000F03FF8000
000F03FF8000
001F01FFC000
001E01FFC000
003E00FFE000
003C00FFE000
003C007FF000
007C007FF000
0078007FF000
00F8003FF800
00FFFFFFF800
00FFFFFFFC00
01FFFFFFFC00
01FF800FFE00
03E0000FFE00
03C0000FFF00
03C00007FF00
07C00007FF00
07C00003FF80
0FC00003FF80
1FC00003FFC0
3FE00007FFE0
7FF8001FFFF8
FFF8001FFFF8
FFF8003FFFF8
FFF8003FFFF8
ENDCHAR
STARTCHAR 00C1
ENCODING 193
SWIDTH 705 0
DWIDTH 47 0
BBX 45 59 1 0
BITMAP
000000FC0000
000003FE0000
000003F80000
000007F80000
000007F00000
00000FE00000
00000FC00000
00001F800000
00001F000000
00001F000000
000000000000
000000000000
000000000000
000000000000
00000F000000
00001F800000
00001F800000
00001FC00000
00003FC00000
00003FE00000
00007FE00000
00007FF00000
0000FFF00000
0000FFF00000
0000FFF80000
0001FFF80000
0001FFFC0000
0003CFFC0000
0003CFFE0000
0003CFFE0000
000787FF0000
000787FF0000
000F83FF0000
000F03FF8000
000F03FF8000
001F01FFC000
001E01FFC000
003E00FFE000
003C00FFE000
003C007FF000
007C007FF000
0078007FF000
00F8003FF800
00FFFFFFF800
00FFFFFFFC00
01FFFFFFFC00
01FF800FFE00
03E0000FFE00
03C0000FFF00
03C00007FF00
07C00007FF00
07C00003FF80
0FC00003FF80
1FC00003FFC0
3FE00007FFE0
7FF8001FFFF8
FFF8001FFFF8
FFF8003FFFF8
FFF8003FFFF8
ENDCHAR
STARTCHAR 00C2
ENCODING 194
SWIDTH 705 0
DWIDTH 47 0
BBX 45 59 1 0
BITMAP
00000F800000
00001FC00000
00003FE00000
0000FFF00000
0001FFF80000
0003FFFE0000
000FFBFF0000
003FE0FF8000
001F803F8000
000E000F0000
000000000000
000000000000
000000000000
000000000000
00000F000000
00001F800000
00001F800000
00001FC00000
00003FC00000
00003FE00000
00007FE00000
00007FF00000
0000FFF00000
0000FFF00000
0000FFF80000
0001FFF80000
0001FFFC0000
0003CFFC0000
0003CFFE0000
0003CFFE0000
000787FF0000
000787FF0000
000F83FF0000
000F03FF8000
000F03FF8000
001F01FFC000
001E01FFC000
003E00FFE000
003C00FFE000
003C007FF000
007C007FF000
0078007FF000
00F8003FF800
00FFFFFFF800
00FFFFFFFC00
01FFFFFFFC00
01FF800FFE00
03E0000FFE00
03C0000FFF00
03C00007FF00
07C00007FF00
07C00003FF80
0FC00003FF80
1FC00003FFC0
3FE00007FFE0
7FF8001FFFF8
FFF8001FFFF8
FFF8003FFFF8
FFF8003FFFF8
ENDCHAR
STARTCHAR 00C3
ENCODING 195
SWIDTH 705 0
DWIDTH 47 0
BBX 45 58 1 0
BITMAP
0000F8000000
0007FE03C000
000FFFC7C000
001FFFFFC000
003FFFFF8000
003FFFFF0000
003C1FFE0000
001007FC0000
000000400000
000000000000
000000000000
000000000000
000000000000
00000F000000
00001F800000
00001F800000
00001FC00000
00003FC00000
00003FE00000
00007FE00000
00007FF00000
0000FFF00000
0000FFF00000
0000FFF80000
0001FFF80000
0001FFFC0000
0003CFFC0000
0003CFFE0000
0003CFFE0000
000787FF0000
000787FF0000
000F83FF0000
000F03FF8000
000F03FF8000
001F01FFC000
001E01FFC000
003E00FFE000
003C00FFE000
003C007FF000
007C007FF000
0078007FF000
00F8003FF800
00FFFFFFF800
00FFFFFFFC00
01FFFFFFFC00
01FF800FFE00
03E0000FFE00
03C0000FFF00
03C00007FF00
07C00007FF00
07C00003FF80
0FC00003FF80
1FC00003FFC0
3FE00007FFE0
7FF8001FFFF8
FFF8001FFFF8
FFF8003FFFF8
FFF8003FFFF8
ENDCHAR
STARTCHAR 00C4
ENCODING 196
SWIDTH 705 0
DWIDTH 47 0
BBX 45 58 1 0
BITMAP
0007000E0000
001FC03F8000
003FE07FC000
003FE0FFC000
007FF0FFE000
007FF0FFE000
003FE07FC000
003FE07FC000
001FC03F8000
000200060000
000000000000
000000000000
000000000000
00000F000000
00001F800000
00001F800000
00001FC00000
00003FC00000
00003FE00000
00007FE00000
00007FF00000
0000FFF00000
0000FFF00000
0000FFF80000
0001FFF80000
0001FFFC0000
0003CFFC0000
0003CFFE0000
0003CFFE0000
000787FF0000
000787FF0000
000F83FF0000
000F03FF8000
000F03FF8000
001F01FFC000
001E01FFC000
003E00FFE000
003C00FFE000
003C007FF000
007C007FF000
0078007FF000
00F8003FF800
00FFFFFFF800
00FFFFFFFC00
01FFFFFFFC00
01FF800FFE00
03E0000FFE00
03C0000FFF00
03C00007FF00
07C00007FF00
07C00003FF80
0FC00003FF80
1FC00003FFC0
3FE00007FFE0
7FF8001FFFF8
FFF8001FFFF8
FFF8003FFFF8
FFF8003FFFF8
ENDCHAR
STARTCHAR 00C5
ENCODING 197
SWIDTH 705 0
DWIDTH 47 0
BBX 45 59 1 0
BITMAP
00003FC00000
00007FF00000
0001F9F80000
0001F0F80000
0001E0FC0000
0003E07C0000
0003E0780000
0001F0F80000
0001FFF00000
0000FFE00000
00003FC00000
000000000000
000000000000
000000000000
00000F000000
00001F800000
00001F800000
00001FC00000
00003FC00000
00003FE00000
00007FE00000
00007FF00000
0000FFF00000
0000FFF00000
0000FFF80000
0001FFF80000
0001FFFC0000
0003CFFC0000
0003CFFE0000
0003CFFE0000
000787FF0000
000787FF0000
000F83FF0000
000F03FF8000
000F03FF8000
001F01FFC000
001E01FFC000
003E00FFE000
003C00FFE000
003C007FF000
007C007FF000
0078007FF000
00F8003FF800
00FFFFFFF800
00FFFFFFFC00
01FFFFFFFC00
01FF800FFE00
03E0000FFE00
03C0000FFF00
03C00007FF00
07C00007FF00
07C00003FF80
0FC00003FF80
1FC00003FFC0
3FE00007FFE0
7FF8001FFFF8
FFF8001FFFF8
FFF8003FFFF8
FFF8003FFFF8
ENDCHAR
STARTCHAR 00C6
ENCODING 198
SWIDTH 945 0
DWIDTH 63 0
BBX 61 45 1 0
BITMAP
00001FFFFFFFFF80
00001FFFFFFFFF80
00000FFFFFFFFF80
00000FFFFFFFFF80
000001FFFF007FC0
000001FBFF003FC0
000001FBFF001FC0
000001F3FF000FC0
000001F3FF0007C0
000003E3FF0007C0
000003E3FF0007E0
000007C3FF000380
00000783FF000000
00000F83FF000000
00001F03FF000000
00001F03FF000000
00003E03FF00F000
00003E03FF01F000
00007C03FF01F000
0000F803FF01F000
0000F803FF03F000
0001F003FF07F000
0001FFFFFFFFF000
0003FFFFFFFFF000
0003FFFFFFFFF000
0007FFFFFFFFF000
000F8003FF03F000
000F8003FF01F000
001F0003FF01F000
001F0003FF01F000
003E0003FF01F000
003C0003FF001000
007C0003FF000080
00F80003FF0000F0
00F80003FF0001F8
01F00003FF0001F8
01F00003FF0003F0
03F00007FF0003F0
07F00007FF0007F0
0FF00007FF800FF0
1FF0000FFFC03FF0
7FFE007FFFFFFFE0
FFFE007FFFFFFFE0
FFFE007FFFFFFFE0
FFFE007FFFFFFFE0
ENDCHAR
STARTCHAR 00C7
ENCODING 199
SWIDTH 630 0
DWIDTH 42 0
BBX 38 62 2 -16
BITMAP
000007C000
0001FFFE00
0007FFFFE0
001FFFFFF8
007FFC7FFC
00FFC00FF8
01FF0007F8
03FE0003F8
07FC0001F8
0FFC0001F8
0FF80001F8
1FF80001F8
1FF00000F8
3FF00000F8
3FF00000F0
7FE0000000
7FE0000000
7FE0000000
7FE0000000
7FE0000000
FFE0000000
FFE0000000
FFE0000000
FFE0000000
FFE0000000
FFE0000000
FFE0000000
7FE0000000
7FF0000000
7FF0000000
7FF0000000
7FF0000000
3FF8000000
3FF8000000
1FFC000000
1FFE000000
0FFE000000
0FFF000000
07FF800008
03FFE0003C
01FFF800FC
00FFFFFFFC
007FFFFFF0
001FFFFFE0
0007FFFF80
0001FFFC00
00000F0000
00001E0000
00003E0000
00003F0000
00007FC000
00007FE000
00003FE000
000007F000
000003F000
000003F000
000003F000
000003F000
000007E000
00007FC000
00007F8000
00007E0000
ENDCHAR
STARTCHAR 00C8
ENCODING 200
SWIDTH 615 0
DWIDTH 41 0
BBX 37 58 3 0
BITMAP
007F800000
007F800000
003FC00000
001FC00000
000FE00000
0007E00000
0003F00000
0003F00000
0001F00000
0000000000
0000000000
0000000000
0000000000
FFFFFFFF80
FFFFFFFF80
FFFFFFFF80
FFFFFFFF80
1FFE00FF80
0FFE003FC0
0FFE001FC0
07FE000FC0
07FE0007C0
07FE0007C0
07FE0007C0
07FE000780
07FE000000
07FE000000
07FE000000
07FE01F000
07FE01F000
07FE01F000
07FE03F000
07FE03F000
07FFFFF000
07FFFFF000
07FFFFF000
07FFFFF000
07FE3FF000
07FE03F000
07FE03F000
07FE01F000
07FE01F000
07FE01F000
07FE000000
07FE000000
07FE000080
07FE0001F0
07FE0001F8
07FE0001F0
07FE0003F0
07FE0003F0
0FFE0007F0
0FFF001FE0
1FFF807FE0
FFFFFFFFE0
FFFFFFFFE0
FFFFFFFFE0
FFFFFFFFE0
ENDCHAR
STARTCHAR 00C9
ENCODING 201
SWIDTH 615 0
DWIDTH 41 0
BBX 37 59 3 0
BITMAP
00000F0000
00007FC000
00007F8000
0000FF0000
0000FE0000
0001FC0000
0001F80000
0003F00000
0003F00000
0003E00000
0000000000
0000000000
0000000000
0000000000
FFFFFFFF80
FFFFFFFF80
FFFFFFFF80
FFFFFFFF80
1FFE00FF80
0FFE003FC0
0FFE001FC0
07FE000FC0
07FE0007C0
07FE0007C0
07FE0007C0
07FE000780
07FE000000
07FE000000
07FE000000
07FE01F000
07FE01F000
07FE01F000
07FE03F000
07FE03F000
07FFFFF000
07FFFFF000
07FFFFF000
07FFFFF000
07FE3FF000
07FE03F000
07FE03F000
07FE01F000
07FE01F000
07FE01F000
07FE000000
07FE000000
07FE000080
07FE0001F0
07FE0001F8
07FE0001F0
07FE0003F0
07FE0003F0
0FFE0007F0
0FFF001FE0
1FFF807FE0
FFFFFFFFE0
FFFFFFFFE0
FFFFFFFFE0
FFFFFFFFE0
ENDCHAR
STARTCHAR 00CA
ENCODING 202
SWIDTH 615 0
DWIDTH 41 0
BBX 37 59 3 0
BITMAP
0001F00000
0003F80000
0007FC0000
001FFE0000
003FFF0000
007FFFC000
01FF7FE000
03FC1FF000
03F007F000
01C001E000
0000000000
0000000000
0000000000
0000000000
FFFFFFFF80
FFFFFFFF80
FFFFFFFF80
FFFFFFFF80
1FFE00FF80
0FFE003FC0
0FFE001FC0
07FE000FC0
07FE0007C0
07FE0007C0
07FE0007C0
07FE000780
07FE000000
07FE000000
07FE000000
07FE01F000
07FE01F000
07FE01F000
07FE03F000
07FE03F000
07FFFFF000
07FFFFF000
07FFFFF000
07FFFFF000
07FE3FF000
07FE03F000
07FE03F000
07FE01F000
07FE01F000
07FE01F000
07FE000000
07FE000000
07FE000080
07FE0001F0
07FE0001F8
07FE0001F0
07FE0003F0
07FE0003F0
0FFE0007F0
0FFF001FE0
1FFF807FE0
FFFFFFFFE0
FFFFFFFFE0
FFFFFFFFE0
FFFFFFFFE0
ENDCHAR
STARTCHAR 00CB
ENCODING 203
SWIDTH 615 0
DWIDTH 41 0
BBX 37 58 3 0
BITMAP
00E001C000
03F807F000
07FC0FF800
07FC0FFC00
0FFE1FFC00
0FFE1FFC00
07FC0FFC00
07FC0FF800
03F807F000
006000C000
0000000000
0000000000
0000000000
FFFFFFFF80
FFFFFFFF80
FFFFFFFF80
FFFFFFFF80
1FFE00FF80
0FFE003FC0
0FFE001FC0
07FE000FC0
07FE0007C0
07FE0007C0
07FE0007C0
07FE000780
07FE000000
07FE000000
07FE000000
07FE01F000
07FE01F000
07FE01F000
07FE03F000
07FE03F000
07FFFFF000
07FFFFF000
07FFFFF000
07FFFFF000
07FE3FF000
07FE03F000
07FE03F000
07FE01F000
07FE01F000
07FE01F000
07FE000000
07FE000000
07FE000080
07FE0001F0
07FE0001F8
07FE0001F0
07FE0003F0
07FE0003F0
0FFE0007F0
0FFF001FE0
1FFF807FE0
FFFFFFFFE0
FFFFFFFFE0
FFFFFFFFE0
FFFFFFFFE0
ENDCHAR
STARTCHAR 00CC
ENCODING 204
SWIDTH 375 0
DWIDTH 25 0
BBX 20 58 3 0
BITMAP
3F8000
3FC000
1FC000
0FE000
07E000
07F000
03F000
01F800
00F800
000000
000000
000000
000000
FFFFF0
FFFFF0
FFFFF0
FFFFE0
1FFF80
0FFF00
0FFE00
07FE00
07FE00
07FE00
07FE00
07FE00
07FE00
07FE00
07FE00
07FE00
07FE00
07FE00
07FE00
07FE00
07FE00
07FE00
07FE00
07FE00
07FE00
07FE00
07FE00
07FE00
07FE00
07FE00
07FE00
07FE00
07FE00
07FE00
07FE00
07FE00
07FE00
07FE00
0FFE00
0FFE00
1FFF80
FFFFE0
FFFFF0
FFFFF0
FFFFF0
ENDCHAR
STARTCHAR 00CD
ENCODING 205
SWIDTH 375 0
DWIDTH 25 0
BBX 20 59 3 0
BITMAP
000F00
003FC0
007F80
007F00
007E00
00FE00
00FC00
01F800
01F000
01E000
000000
000000
000000
000000
FFFFF0
FFFFF0
FFFFF0
FFFFE0
1FFF80
0FFF00
0FFE00
07FE00
07FE00
07FE00
07FE00
07FE00
07FE00
07FE00
07FE00
07FE00
07FE00
07FE00
07FE00
07FE00
07FE00
07FE00
07FE00
07FE00
07FE00
07FE00
07FE00
07FE00
07FE00
07FE00
07FE00
07FE00
07FE00
07FE00
07FE00
07FE00
07FE00
07FE00
0FFE00
0FFE00
1FFF80
FFFFE0
FFFFF0
FFFFF0
FFFFF0
ENDCHAR
STARTCHAR 00CE
ENCODING 206
SWIDTH 375 0
DWIDTH 25 0
BBX 20 59 3 0
BITMAP
001000
01F800
03FC00
07FE00
0FFE00
1FFF00
3FFF80
7F7FC0
FE1FE0
F80FF0
7003C0
200100
000000
000000
FFFFF0
FFFFF0
FFFFF0
FFFFE0
1FFF80
0FFF00
0FFE00
07FE00
07FE00
07FE00
07FE00
07FE00
07FE00
07FE00
07FE00
07FE00
07FE00
07FE00
07FE00
07FE00
07FE00
07FE00
07FE00
07FE00
07FE00
07FE00
07FE00
07FE00
07FE00
07FE00
07FE00
07FE00
07FE00
07FE00
07FE00
07FE00
07FE00
07FE00
0FFE00
0FFE00
1FFF80
FFFFE0
FFFFF0
FFFFF0
FFFFF0
ENDCHAR
STARTCHAR 00CF
ENCODING 207
SWIDTH 375 0
DWIDTH 25 0
BBX 23 57 1 0
BITMAP
1F01F8
7F83FC
7FC7FE
FFC7FE
FFC7FE
FFC7FE
7FC7FE
3F83FC
0E00F0
000000
000000
000000
3FFFFC
3FFFFC
3FFFFC
3FFFF8
07FFE0
03FFC0
03FF80
01FF80
01FF80
01FF80
01FF80
01FF80
01FF80
01FF80
01FF80
01FF80
01FF80
01FF80
01FF80
01FF80
01FF80
01FF80
01FF80
01FF80
01FF80
01FF80
01FF80
01FF80
01FF80
01FF80
01FF80
01FF80
01FF80
01FF80
01FF80
01FF80
01FF80
01FF80
03FF80
03FF80
07FFE0
3FFFF8
3FFFFC
3FFFFC
3FFFFC
ENDCHAR
STARTCHAR 00D0
ENCODING 208
SWIDTH 735 0
DWIDTH 49 0
BBX 45 45 2 0
BITMAP
7FFFFFF80000
7FFFFFFF0000
7FFFFFFFE000
7FFFFFFFF800
0FFF007FFC00
07FF001FFE00
07FF0007FF00
03FF0003FF80
03FF0003FFC0
03FF0001FFC0
03FF0000FFE0
03FF0000FFE0
03FF00007FE0
03FF00007FF0
03FF00007FF0
03FF00003FF0
03FF00003FF0
03FF00003FF0
03FF00003FF8
03FF00003FF8
FFFFFF803FF8
FFFFFF803FF8
FFFFFF803FF8
FFFFFF003FF8
FFFFFF003FF8
03FF00003FF0
03FF00003FF0
03FF00003FF0
03FF00003FF0
03FF00003FF0
03FF00007FE0
03FF00007FE0
03FF00007FE0
03FF00007FC0
03FF0000FFC0
03FF0000FF80
03FF0001FF00
03FF0003FE00
07FF0007FE00
07FF800FF800
0FFFC07FF000
7FFFFFFFE000
7FFFFFFF8000
7FFFFFFC0000
7FFFFFC00000
ENDCHAR
STARTCHAR 00D1
ENCODING 209
SWIDTH 720 0
DWIDTH 48 0
BBX 44 59 2 -1
BITMAP
0000F8000000
0003FF01C000
000FFFC7E000
001FFFFFC000
003FFFFFC000
003FFFFF8000
003C0FFF0000
001803FC0000
000000600000
000000000000
000000000000
000000000000
000000000000
FFFC0003FFF0
FFFE0003FFF0
FFFE0003FFF0
7FFF0003FFF0
0FFF80007F80
07FFC0003F80
03FFC0001F00
03FFE0001F00
03FFF0001F00
03FFF8001F00
03FFF8001F00
03FFFC001F00
03FFFE001F00
03DFFF001F00
03CFFF001F00
03CFFF801F00
03C7FFC01F00
03C3FFE01F00
03C1FFE01F00
03C1FFF01F00
03C0FFF81F00
03C07FFC1F00
03C03FFC1F00
03C03FFE1F00
03C01FFF1F00
03C00FFF9F00
03C007FF9F00
03C007FFDF00
03C003FFFF00
03C001FFFF00
03C000FFFF00
03C000FFFF00
03C0007FFF00
03C0003FFF00
03C0001FFF00
03C0001FFF00
07C0000FFF00
07C00007FF00
07E00003FF00
0FE00003FF00
1FF00001FF00
7FFE0000FF00
FFFE00007F00
FFFE00007F00
FFFE00003F00
000000001000
ENDCHAR
STARTCHAR 00D2
ENCODING 210
SWIDTH 735 0
DWIDTH 49 0
BBX 45 59 2 -1
BITMAP
0001FE000000
0001FE000000
0000FE000000
00007F000000
00003F000000
00001F800000
00001F800000
00000FC00000
000007C00000
000000000000
000000000000
000000000000
000007800000
0001FFFE0000
0007FFFF8000
001FFFFFE000
007FFBFFF800
00FFC03FFC00
01FF000FFE00
03FE0007FF00
07FC0003FF80
0FFC0001FFC0
0FF80001FFC0
1FF00000FFE0
1FF000007FE0
3FF000007FF0
3FE000007FF0
7FE000003FF0
7FE000003FF8
7FE000003FF8
7FE000003FF8
7FE000001FF8
FFE000001FF8
FFE000001FF8
FFE000001FF8
FFE000001FF8
FFE000001FF8
FFE000001FF8
FFE000001FF8
7FE000001FF8
7FE000001FF8
7FF000001FF8
7FF000003FF0
7FF000003FF0
3FF000003FF0
3FF800003FE0
1FF800007FE0
1FFC00007FC0
0FFC0000FFC0
0FFE0000FF80
07FF0001FF00
03FF8003FF00
01FFC007FE00
00FFF00FFC00
007FFFFFF000
001FFFFFE000
0007FFFF8000
0001FFFC0000
000003000000
ENDCHAR
STARTCHAR 00D3
ENCODING 211
SWIDTH 735 0
DWIDTH 49 0
BBX 45 60 2 -1
BITMAP
000000780000
000001FE0000
000001FC0000
000003F80000
000003F80000
000007F00000
000007E00000
00000FC00000
00000F800000
00000F800000
000000000000
000000000000
000000000000
000007800000
0001FFFE0000
0007FFFF8000
001FFFFFE000
007FFBFFF800
00FFC03FFC00
01FF000FFE00
03FE0007FF00
07FC0003FF80
0FFC0001FFC0
0FF80001FFC0
1FF00000FFE0
1FF000007FE0
3FF000007FF0
3FE000007FF0
7FE000003FF0
7FE000003FF8
7FE000003FF8
7FE000003FF8
7FE000001FF8
FFE000001FF8
FFE000001FF8
FFE000001FF8
FFE000001FF8
FFE000001FF8
FFE000001FF8
FFE000001FF8
7FE000001FF8
7FE000001FF8
7FF000001FF8
7FF000003FF0
7FF000003FF0
3FF000003FF0
3FF800003FE0
1FF800007FE0
1FFC00007FC0
0FFC0000FFC0
0FFE0000FF80
07FF0001FF00
03FF8003FF00
01FFC007FE00
00FFF00FFC00
007FFFFFF000
001FFFFFE000
0007FFFF8000
0001FFFC0000
000003000000
ENDCHAR
STARTCHAR 00D4
ENCODING 212
SWIDTH 735 0
DWIDTH 49 0
BBX 45 60 2 -1
BITMAP
000007C00000
00000FE00000
00001FF00000
00007FF80000
0000FFFC0000
0003FFFE0000
0007FDFF8000
001FF07FC000
000FC01FC000
000F000F8000
000000000000
000000000000
000000000000
000007800000
0001FFFE0000
0007FFFF8000
001FFFFFE000
007FFBFFF800
00FFC03FFC00
01FF000FFE00
03FE0007FF00
07FC0003FF80
0FFC0001FFC0
0FF80001FFC0
1FF00000FFE0
1FF000007FE0
3FF000007FF0
3FE000007FF0
7FE000003FF0
7FE000003FF8
7FE000003FF8
7FE000003FF8
7FE000001FF8
FFE000001FF8
FFE000001FF8
FFE000001FF8
FFE000001FF8
FFE000001FF8
FFE000001FF8
FFE000001FF8
7FE000001FF8
7FE000001FF8
7FF000001FF8
7FF000003FF0
7FF000003FF0
3FF000003FF0
3FF800003FE0
1FF800007FE0
1FFC00007FC0
0FFC0000FFC0
0FFE0000FF80
07FF0001FF00
03FF8003FF00
01FFC007FE00
00FFF00FFC00
007FFFFFF000
001FFFFFE000
0007FFFF8000
0001FFFC0000
000003000000
ENDCHAR
STARTCHAR 00D5
ENCODING 213
SWIDTH 735 0
DWIDTH 49 0
BBX 45 59 2 -1
BITMAP
0000FC000000
0003FF01C000
0007FFE3E000
000FFFFFE000
001FFFFFC000
001FFFFF8000
001C0FFF0000
001803FE0000
000000200000
000000000000
000000000000
000000000000
000007800000
0001FFFE0000
0007FFFF8000
001FFFFFE000
007FFBFFF800
00FFC03FFC00
01FF000FFE00
03FE0007FF00
07FC0003FF80
0FFC0001FFC0
0FF80001FFC0
1FF00000FFE0
1FF000007FE0
3FF000007FF0
3FE000007FF0
7FE000003FF0
7FE000003FF8
7FE000003FF8
7FE000003FF8
7FE000001FF8
FFE000001FF8
FFE000001FF8
FFE000001FF8
FFE000001FF8
FFE000001FF8
FFE000001FF8
FFE000001FF8
7FE000001FF8
7FE000001FF8
7FF000001FF8
7FF000003FF0
7FF000003FF0
3FF000003FF0
3FF800003FE0
1FF800007FE0
1FFC00007FC0
0FFC0000FFC0
0FFE0000FF80
07FF0001FF00
03FF8003FF00
01FFC007FE00
00FFF00FFC00
007FFFFFF000
001FFFFFE000
0007FFFF8000
0001FFFC0000
000003000000
ENDCHAR
STARTCHAR 00D6
ENCODING 214
SWIDTH 735 0
DWIDTH 49 0
BBX 45 59 2 -1
BITMAP
000380070000
000FE01FC000
001FF03FE000
001FF07FE000
003FF07FF000
003FF07FF000
003FF03FE000
001FF03FE000
000FE01FC000
000100030000
000000000000
000000000000
000007800000
0001FFFE0000
0007FFFF8000
001FFFFFE000
007FFBFFF800
00FFC03FFC00
01FF000FFE00
03FE0007FF00
07FC0003FF80
0FFC0001FFC0
0FF80001FFC0
1FF00000FFE0
1FF000007FE0
3FF000007FF0
3FE000007FF0
7FE000003FF0
7FE000003FF8
7FE000003FF8
7FE000003FF8
7FE000001FF8
FFE000001FF8
FFE000001FF8
FFE000001FF8
FFE000001FF8
FFE000001FF8
FFE000001FF8
FFE000001FF8
7FE000001FF8
7FE000001FF8
7FF000001FF8
7FF000003FF0
7FF000003FF0
3FF000003FF0
3FF800003FE0
1FF800007FE0
1FFC00007FC0
0FFC0000FFC0
0FFE0000FF80
07FF0001FF00
03FF8003FF00
01FFC007FE00
00FFF00FFC00
007FFFFFF000
001FFFFFE000
0007FFFF8000
0001FFFC0000
000003000000
ENDCHAR
STARTCHAR 00D7
ENCODING 215
SWIDTH 540 0
DWIDTH 36 0
BBX 31 32 3 1
BITMAP
30000038
F800007E
FC0000FC
7E0001F8
3F0003F0
1F8007E0
1FC007E0
0FE00FC0
07F01F80
03F83F00
01F87E00
00FCFC00
007FF800
003FF000
001FE000
000FC000
000FE000
001FF000
003FF800
007EFC00
00FCFE00
01F87F00
03F03F80
07E01F80
0FC00FC0
1FC007E0
1F8003F0
3F0001F8
7E0000FC
FC00007E
F800003C
10000030
ENDCHAR
STARTCHAR 00D8
ENCODING 216
SWIDTH 735 0
DWIDTH 49 0
BBX 45 49 2 -2
BITMAP
000000000180
000007C003F0
0001FFFE07F0
0007FFFF87E0
001FFFFFEFC0
007FFBFFFF80
00FFC03FFF00
01FF000FFF00
03FE0007FF00
07FC0003FF80
0FFC0001FFC0
0FF80003FFC0
1FF00007FFE0
1FF0000FFFE0
3FF0000FFFF0
3FE0001FFFF0
7FE0003F3FF0
7FE0007F3FF8
7FE0007E3FF8
7FE000FC3FF8
7FE001F81FF8
FFE003F01FF8
FFE003F01FF8
FFE007E01FF8
FFE00FC01FF8
FFE01F801FF8
FFE03F801FF8
FFE03F001FF8
7FE07E001FF8
7FE0FC001FF8
7FF1FC001FF8
7FF1F8003FF0
7FF3F0003FF0
3FF7E0003FF0
3FFFC0003FE0
1FFFC0007FE0
1FFF80007FC0
0FFF0000FFC0
0FFE0000FF80
07FF0001FF00
03FF8003FF00
03FFC007FE00
03FFF00FFC00
07FFFFFFF000
0FDFFFFFE000
1F87FFFF8000
3F81FFFC0000
3F000F000000
0E0000000000
ENDCHAR
STARTCHAR 00D9
ENCODING 217
SWIDTH 675 0
DWIDTH 45 0
BBX 41 59 2 -1
BITMAP
0000FE000000
0001FF000000
00007F000000
00003F800000
00003F800000
00001FC00000
00000FC00000
000007E00000
000003E00000
000000000000
000000000000
000000000000
000000000000
FFFFE00FFF80
FFFFE00FFF80
FFFFE00FFF80
FFFFE00FFF80
1FFF0003FE00
0FFE0001FC00
0FFE0000F800
07FE0000F800
07FE0000F800
07FE00007800
07FE00007800
07FE00007800
07FE00007800
07FE00007800
07FE00007800
07FE00007800
07FE00007800
07FE00007800
07FE00007800
07FE00007800
07FE00007800
07FE00007800
07FE00007800
07FE00007800
07FE00007800
07FE00007800
07FE00007800
07FE00007800
07FE00007800
07FE00007800
07FE00007800
07FE0000F800
07FE0000F800
07FE0000F800
07FE0000F000
07FF0000F000
07FF0001F000
03FF8001F000
03FF8003E000
01FFC007E000
01FFF01FC000
00FFFFFF8000
007FFFFF0000
001FFFFE0000
0007FFF80000
00002E000000
ENDCHAR
STARTCHAR 00DA
ENCODING 218
SWIDTH 675 0
DWIDTH 45 0
BBX 41 60 2 -1
BITMAP
0000003C0000
000000FF0000
000001FE0000
000001FC0000
000003F80000
000003F00000
000007F00000
000007E00000
00000FC00000
00000F800000
000000000000
000000000000
000000000000
000000000000
FFFFE00FFF80
FFFFE00FFF80
FFFFE00FFF80
FFFFE00FFF80
1FFF0003FE00
0FFE0001FC00
0FFE0000F800
07FE0000F800
07FE0000F800
07FE00007800
07FE00007800
07FE00007800
07FE00007800
07FE00007800
07FE00007800
07FE00007800
07FE00007800
07FE00007800
07FE00007800
07FE00007800
07FE00007800
07FE00007800
07FE00007800
07FE00007800
07FE00007800
07FE00007800
07FE00007800
07FE00007800
07FE00007800
07FE00007800
07FE00007800
07FE0000F800
07FE0000F800
07FE0000F800
07FE0000F000
07FF0000F000
07FF0001F000
03FF8001F000
03FF8003E000
01FFC007E000
01FFF01FC000
00FFFFFF8000
007FFFFF0000
001FFFFE0000
0007FFF80000
00002E000000
ENDCHAR
STARTCHAR 00DB
ENCODING 219
SWIDTH 675 0
DWIDTH 45 0
BBX 41 60 2 -1
BITMAP
000003E00000
00000FF00000
00001FF80000
00003FFC0000
00007FFE0000
0001FFFF0000
0003FDFF8000
000FF03FE000
000FC01FE000
000780078000
000000000000
000000000000
000000000000
000000000000
FFFFE00FFF80
FFFFE00FFF80
FFFFE00FFF80
FFFFE00FFF80
1FFF0003FE00
0FFE0001FC00
0FFE0000F800
07FE0000F800
07FE0000F800
07FE00007800
07FE00007800
07FE00007800
07FE00007800
07FE00007800
07FE00007800
07FE00007800
07FE00007800
07FE00007800
07FE00007800
07FE00007800
07FE00007800
07FE00007800
07FE00007800
07FE00007800
07FE00007800
07FE00007800
07FE00007800
07FE00007800
07FE00007800
07FE00007800
07FE00007800
07FE0000F800
07FE0000F800
07FE0000F800
07FE0000F000
07FF0000F000
07FF0001F000
03FF8001F000
03FF8003E000
01FFC007E000
01FFF01FC000
00FFFFFF8000
007FFFFF0000
001FFFFE0000
0007FFF80000
00002E000000
ENDCHAR
STARTCHAR 00DC
ENCODING 220
SWIDTH 675 0
DWIDTH 45 0
BBX 41 59 2 -1
BITMAP
000180070000
000FF01FE000
000FF83FF000
001FF83FF000
001FF83FF000
001FF83FF000
001FF83FF000
000FF01FF000
0007F00FE000
000180030000
000000000000
000000000000
000000000000
FFFFE00FFF80
FFFFE00FFF80
FFFFE00FFF80
FFFFE00FFF80
1FFF0003FE00
0FFE0001FC00
0FFE0000F800
07FE0000F800
07FE0000F800
07FE00007800
07FE00007800
07FE00007800
07FE00007800
07FE00007800
07FE00007800
07FE00007800
07FE00007800
07FE00007800
07FE00007800
07FE00007800
07FE00007800
07FE00007800
07FE00007800
07FE00007800
07FE00007800
07FE00007800
07FE00007800
07FE00007800
07FE00007800
07FE00007800
07FE00007800
07FE0000F800
07FE0000F800
07FE0000F800
07FE0000F000
07FF0000F000
07FF0001F000
03FF8001F000
03FF8003E000
01FFC007E000
01FFF01FC000
00FFFFFF8000
007FFFFF0000
001FFFFE0000
0007FFF80000
00002E000000
ENDCHAR
STARTCHAR 00DD
ENCODING 221
SWIDTH 630 0
DWIDTH 42 0
BBX 40 59 1 0
BITMAP
0000003C00
000001FF00
000001FE00
000003FC00
000003F800
000007F000
000007E000
00000FC000
00000FC000
00000F8000
0000000000
0000000000
0000000000
0000000000
FFFFE01FFF
FFFFE01FFF
FFFFE00FFF
7FFFE00FFF
1FFF8003FC
0FFF0001F8
07FF8001F0
07FF8001E0
03FF8003E0
03FFC003C0
01FFC007C0
01FFC00780
00FFE00F80
00FFE00F00
007FF01F00
007FF01E00
003FF81E00
003FF83C00
001FFC3C00
001FFC7800
000FFC7800
000FFEF800
0007FEF000
0007FFF000
0003FFE000
0003FFE000
0001FFC000
0001FFC000
0001FF8000
0001FF8000
0001FF8000
0001FF8000
0001FF8000
0001FF8000
0001FF8000
0001FF8000
0001FF8000
0001FFC000
0001FFC000
0003FFC000
0007FFF000
007FFFFE00
007FFFFF00
007FFFFF00
007FFFFF00
ENDCHAR
STARTCHAR 00DE
ENCODING 222
SWIDTH 630 0
DWIDTH 42 0
BBX 37 45 3 0
BITMAP
FFFFF00000
FFFFF00000
FFFFF00000
FFFFE00000
1FFF000000
0FFE000000
0FFE000000
07FE000000
07FE000000
07FFFFF000
07FFFFFE00
07FFFFFF80
07FFFFFFC0
07FE03FFE0
07FE00FFE0
07FE007FF0
07FE003FF0
07FE001FF8
07FE001FF8
07FE001FF8
07FE001FF8
07FE000FF8
07FE000FF8
07FE000FF8
07FE001FF8
07FE001FF8
07FE001FF0
07FE003FF0
07FE003FE0
07FE007FC0
07FE01FFC0
07FE7FFF00
07FE7FFE00
07FE7FF800
07FE7FC000
07FE000000
07FE000000
07FE000000
0FFF000000
0FFF000000
1FFFC00000
FFFFF80000
FFFFFC0000
FFFFFC0000
FFFFFC0000
ENDCHAR
STARTCHAR 00DF
ENCODING 223
SWIDTH 675 0
DWIDTH 45 0
BBX 41 49 2 -1
BITMAP
00003F800000
0003FFF80000
000FFFFE0000
001FFFFF8000
003FFFFF8000
007F80FFC000
00FF007FE000
01FE003FE000
01FE001FE000
03FE001FE000
03FE001FE000
03FE001FE000
03FE001FC000
07FE001FC000
07FE003F8000
07FE007F0000
07FE00FE0000
07FE01FC0000
7FFE07F00000
FFFE0FF00000
FFFE1FE00000
FFFE1FE00000
3FFE1FF00000
07FE3FF80000
07FE3FFC0000
07FE3FFF0000
07FE1FFFC000
07FE1FFFE000
07FE1FFFF800
07FE0FFFFC00
07FE07FFFE00
07FE03FFFF00
07FE00FFFF00
07FE007FFF80
07FE001FFF80
07FE0007FF80
07FE0003FF80
07FE0E01FF80
07FE1F00FF80
07FE1F00FF80
07FE1F00FF80
07FE1F00FF00
07FE1F80FF00
1FFE1F81FE00
7FFE3FF7FC00
7FFE3FFFF800
FFFE3FFFF000
FFFE07FFC000
000000100000
ENDCHAR
STARTCHAR 00E0
ENCODING 224
SWIDTH 540 0
DWIDTH 36 0
BBX 32 49 4 -1
BITMAP
00700000
0FF00000
0FF80000
07F80000
03F80000
01FC0000
00FC0000
00FE0000
007E0000
003F0000
001F0000
001F8000
00000000
00000000
00000000
00000000
00000000
000FF800
003FFE00
00FFFF00
03FFFF80
07FFFFC0
0FC1FFC0
1FC0FFE0
3FC0FFE0
7FC07FE0
FFC07FE0
FFC07FE0
FFC07FE0
00007FE0
0001FFE0
000FFFE0
003FFFE0
00FF7FE0
07FC7FE0
1FF07FE0
3FC07FE0
7FC07FE0
7FC07FE0
7FC07FE0
7FC07FE0
7FC07FF0
7FE07FFC
7FF0FFFF
7FFFFFFF
3FFFBFFF
1FFF3FFE
0FFC1FF0
00000600
ENDCHAR
STARTCHAR 00E1
ENCODING 225
SWIDTH 540 0
DWIDTH 36 0
BBX 32 49 4 -1
BITMAP
0000FE00
0003FE00
0003FC00
0003F800
0007F000
0007E000
0007E000
000FC000
000F8000
001F8000
001F0000
003E0000
00060000
00000000
00000000
00000000
00000000
000FF800
003FFE00
00FFFF00
03FFFF80
07FFFFC0
0FC1FFC0
1FC0FFE0
3FC0FFE0
7FC07FE0
FFC07FE0
FFC07FE0
FFC07FE0
00007FE0
0001FFE0
000FFFE0
003FFFE0
00FF7FE0
07FC7FE0
1FF07FE0
3FC07FE0
7FC07FE0
7FC07FE0
7FC07FE0
7FC07FE0
7FC07FF0
7FE07FFC
7FF0FFFF
7FFFFFFF
3FFFBFFF
1FFF3FFE
0FFC1FF0
00000600
ENDCHAR
STARTCHAR 00E2
ENCODING 226
SWIDTH 540 0
DWIDTH 36 0
BBX 32 49 4 -1
BITMAP
00070000
001F8000
003FC000
007FE000
00FFF000
01FFF000
03FFF800
07FFFC00
0FE1FE00
3FC0FF00
7F003FC0
7C001FC0
38000780
10000000
00000000
00000000
00000000
000FF800
003FFE00
00FFFF00
03FFFF80
07FFFFC0
0FC1FFC0
1FC0FFE0
3FC0FFE0
7FC07FE0
FFC07FE0
FFC07FE0
FFC07FE0
00007FE0
0001FFE0
000FFFE0
003FFFE0
00FF7FE0
07FC7FE0
1FF07FE0
3FC07FE0
7FC07FE0
7FC07FE0
7FC07FE0
7FC07FE0
7FC07FF0
7FE07FFC
7FF0FFFF
7FFFFFFF
3FFFBFFF
1FFF3FFE
0FFC1FF0
00000600
ENDCHAR
STARTCHAR 00E3
ENCODING 227
SWIDTH 540 0
DWIDTH 36 0
BBX 32 46 4 -1
BITMAP
03F00000
0FFC0380
1FFF8FC0
3FFFFF80
7FFFFF00
FEFFFE00
701FFC00
6007F800
0000C000
00000000
00000000
00000000
00000000
00000000
000FF800
003FFE00
00FFFF00
03FFFF80
07FFFFC0
0FC1FFC0
1FC0FFE0
3FC0FFE0
7FC07FE0
FFC07FE0
FFC07FE0
FFC07FE0
00007FE0
0001FFE0
000FFFE0
003FFFE0
00FF7FE0
07FC7FE0
1FF07FE0
3FC07FE0
7FC07FE0
7FC07FE0
7FC07FE0
7FC07FE0
7FC07FF0
7FE07FFC
7FF0FFFF
7FFFFFFF
3FFFBFFF
1FFF3FFE
0FFC1FF0
00000600
ENDCHAR
STARTCHAR 00E4
ENCODING 228
SWIDTH 540 0
DWIDTH 36 0
BBX 32 45 4 -1
BITMAP
1F003E00
3F807F00
7FC0FF80
7FE0FFC0
FFE1FFC0
FFE0FFC0
7FC0FF80
7FC0FF80
3F807F00
00000000
00000000
00000000
00000000
000FF800
003FFE00
00FFFF00
03FFFF80
07FFFFC0
0FC1FFC0
1FC0FFE0
3FC0FFE0
7FC07FE0
FFC07FE0
FFC07FE0
FFC07FE0
00007FE0
0001FFE0
000FFFE0
003FFFE0
00FF7FE0
07FC7FE0
1FF07FE0
3FC07FE0
7FC07FE0
7FC07FE0
7FC07FE0
7FC07FE0
7FC07FF0
7FE07FFC
7FF0FFFF
7FFFFFFF
3FFFBFFF
1FFF3FFE
0FFC1FF0
00000600
ENDCHAR
STARTCHAR 00E5
ENCODING 229
SWIDTH 540 0
DWIDTH 36 0
BBX 32 49 4 -1
BITMAP
003F0000
00FFE000
01FFF000
03F3F800
03E1F800
07E0F800
07E0F800
07E0F800
07E1F800
03F1F000
03FFF000
01FFE000
007F8000
00000000
00000000
00000000
00000000
000FF800
003FFE00
00FFFF00
03FFFF80
07FFFFC0
0FC1FFC0
1FC0FFE0
3FC0FFE0
7FC07FE0
FFC07FE0
FFC07FE0
FFC07FE0
00007FE0
0001FFE0
000FFFE0
003FFFE0
00FF7FE0
07FC7FE0
1FF07FE0
3FC07FE0
7FC07FE0
7FC07FE0
7FC07FE0
7FC07FE0
7FC07FF0
7FE07FFC
7FF0FFFF
7FFFFFFF
3FFFBFFF
1FFF3FFE
0FFC1FF0
00000600
ENDCHAR
STARTCHAR 00E6
ENCODING 230
SWIDTH 720 0
DWIDTH 48 0
BBX 44 31 2 0
BITMAP
00FFE00FF000
07FFF87FFC00
3FFFFCFFFF00
1FFFFFFFFF80
1FE1FFF87F80
1FC0FFF03FC0
1F807FF01FE0
1F807FE01FE0
1F807FE01FE0
1F807FE01FF0
1F007FE00FF0
00007FE00FF0
00007FE00FF0
0007FFFFFFF0
007FFFFFFFF0
03FFFFFFFFE0
0FFFFFFFF800
1FF87FE00000
3FE07FE00000
3FC07FE00000
7F807FE00000
7F807FF00000
7F807FF00000
FF80FFF80000
FF80FFF80060
7FC1FFFE01E0
7FFFE7FFFFF0
7FFFE3FFFFE0
3FFFC1FFFFC0
1FFF00FFFF80
0FFC003FFC00
ENDCHAR
STARTCHAR 00E7
ENCODING 231
SWIDTH 465 0
DWIDTH 31 0
BBX 27 47 2 -16
BITMAP
001FFC00
00FFFF80
01FFFFE0
03FFFFE0
07F83FE0
0FF01FC0
1FF00FC0
3FE00FC0
3FE007C0
7FC007C0
7FC007C0
7FC00700
7FC00000
FFC00000
FFC00000
FFC00000
FFC00000
FFC00000
FFC00000
7FC00000
7FE00000
7FE00000
7FF00000
3FF00000
3FF80040
1FFE00E0
0FFFCFE0
07FFFFE0
03FFFFC0
01FFFF80
003FFE00
0003C000
00078000
00078000
000FC000
001FF000
001FF800
000FF800
0001FC00
0000FC00
0000FC00
0000FC00
0000FC00
0001F800
001FF000
001FE000
000F8000
ENDCHAR
STARTCHAR 00E8
ENCODING 232
SWIDTH 510 0
DWIDTH 34 0
BBX 30 49 2 -1
BITMAP
001E0000
03FE0000
01FE0000
00FF0000
007F0000
007F0000
003F8000
001F8000
000FC000
000FC000
0007E000
0003E000
00000000
00000000
00000000
00000000
00000000
001FF800
00FFFE00
01FFFF80
07FFFFC0
0FFC7FE0
1FF01FE0
1FF01FF0
3FE00FF0
3FE00FF8
7FC00FF8
7FC00FF8
7FC007F8
7FC007FC
FFFFFFFC
FFFFFFFC
FFFFFFF8
FFFFFFF8
FFFC0000
FFC00000
7FE00000
7FE00000
7FE00000
7FF00000
3FF00000
3FF80038
1FFE00F8
0FFFCFF8
0FFFFFF8
03FFFFE0
01FFFFC0
007FFE00
0001C000
ENDCHAR
STARTCHAR 00E9
ENCODING 233
SWIDTH 510 0
DWIDTH 34 0
BBX 30 49 2 -1
BITMAP
00003FC0
00007F80
00007F00
0000FF00
0000FE00
0000FC00
0001F800
0001F800
0003F000
0003E000
0007E000
0007C000
00008000
00000000
00000000
00000000
00000000
001FF800
00FFFE00
01FFFF80
07FFFFC0
0FFC7FE0
1FF01FE0
1FF01FF0
3FE00FF0
3FE00FF8
7FC00FF8
7FC00FF8
7FC007F8
7FC007FC
FFFFFFFC
FFFFFFFC
FFFFFFF8
FFFFFFF8
FFFC0000
FFC00000
7FE00000
7FE00000
7FE00000
7FF00000
3FF00000
3FF80038
1FFE00F8
0FFFCFF8
0FFFFFF8
03FFFFE0
01FFFFC0
007FFE00
0001C000
ENDCHAR
STARTCHAR 00EA
ENCODING 234
SWIDTH 510 0
DWIDTH 34 0
BBX 30 49 2 -1
BITMAP
0000E000
0003F000
0007F000
000FF800
001FFC00
003FFE00
007FFF00
01FFFF80
03FC7FC0
07F01FE0
0FE007F0
0F8003F0
070001E0
00000000
00000000
00000000
00000000
001FF800
00FFFE00
01FFFF80
07FFFFC0
0FFC7FE0
1FF01FE0
1FF01FF0
3FE00FF0
3FE00FF8
7FC00FF8
7FC00FF8
7FC007F8
7FC007FC
FFFFFFFC
FFFFFFFC
FFFFFFF8
FFFFFFF8
FFFC0000
FFC00000
7FE00000
7FE00000
7FE00000
7FF00000
3FF00000
3FF80038
1FFE00F8
0FFFCFF8
0FFFFFF8
03FFFFE0
01FFFFC0
007FFE00
0001C000
ENDCHAR
STARTCHAR 00EB
ENCODING 235
SWIDTH 510 0
DWIDTH 34 0
BBX 30 45 2 -1
BITMAP
03C00780
0FF01FE0
0FF83FF0
1FF83FF0
1FF83FF0
1FF83FF0
1FF83FF0
0FF01FF0
07E00FE0
00000000
00000000
00000000
00000000
001FF800
00FFFE00
01FFFF80
07FFFFC0
0FFC7FE0
1FF01FE0
1FF01FF0
3FE00FF0
3FE00FF8
7FC00FF8
7FC00FF8
7FC007F8
7FC007FC
FFFFFFFC
FFFFFFFC
FFFFFFF8
FFFFFFF8
FFFC0000
FFC00000
7FE00000
7FE00000
7FE00000
7FF00000
3FF00000
3FF80038
1FFE00F8
0FFFCFF8
0FFFFFF8
03FFFFE0
01FFFFC0
007FFE00
0001C000
ENDCHAR
STARTCHAR 00EC
ENCODING 236
SWIDTH 345 0
DWIDTH 23 0
BBX 19 48 2 0
BITMAP
070000
FF8000
FF8000
7F8000
3FC000
1FC000
0FE000
07E000
07E000
03F000
01F000
00F800
000000
000000
000000
000000
000000
001C00
01FC00
7FFE00
FFFE00
FFFE00
FFFE00
1FFE00
07FE00
07FE00
07FE00
07FE00
07FE00
07FE00
07FE00
07FE00
07FE00
07FE00
07FE00
07FE00
07FE00
07FE00
07FE00
07FE00
07FE00
07FE00
07FE00
0FFF00
7FFFE0
FFFFE0
FFFFE0
FFFFE0
ENDCHAR
STARTCHAR 00ED
ENCODING 237
SWIDTH 345 0
DWIDTH 23 0
BBX 20 48 2 0
BITMAP
000FF0
001FE0
003FC0
003F80
003F80
007F00
007E00
00FC00
00FC00
00F800
01F000
01F000
002000
000000
000000
000000
000000
001C00
01FC00
7FFE00
FFFE00
FFFE00
FFFE00
1FFE00
07FE00
07FE00
07FE00
07FE00
07FE00
07FE00
07FE00
07FE00
07FE00
07FE00
07FE00
07FE00
07FE00
07FE00
07FE00
07FE00
07FE00
07FE00
07FE00
0FFF00
7FFFE0
FFFFE0
FFFFE0
FFFFE0
ENDCHAR
STARTCHAR 00EE
ENCODING 238
SWIDTH 345 0
DWIDTH 23 0
BBX 20 48 1 0
BITMAP
001800
00FC00
01FC00
03FE00
07FF00
07FF00
0FFF80
1FFFC0
3F1FE0
7E0FE0
FC07F0
7803F0
3001E0
100000
000000
000000
000000
000E00
00FE00
3FFF00
7FFF00
7FFF00
7FFF00
0FFF00
03FF00
03FF00
03FF00
03FF00
03FF00
03FF00
03FF00
03FF00
03FF00
03FF00
03FF00
03FF00
03FF00
03FF00
03FF00
03FF00
03FF00
03FF00
03FF00
07FF80
3FFFF0
7FFFF0
7FFFF0
7FFFF0
ENDCHAR
STARTCHAR 00EF
ENCODING 239
SWIDTH 345 0
DWIDTH 23 0
BBX 23 44 0 0
BITMAP
1E01F0
7F83FC
7FC7FC
FFC7FE
FFC7FE
FFC7FE
FFC7FE
7F83FC
3F01F8
000000
000000
000000
000000
000700
007F00
1FFF80
3FFF80
3FFF80
3FFF80
07FF80
01FF80
01FF80
01FF80
01FF80
01FF80
01FF80
01FF80
01FF80
01FF80
01FF80
01FF80
01FF80
01FF80
01FF80
01FF80
01FF80
01FF80
01FF80
01FF80
03FFC0
1FFFF8
3FFFF8
3FFFF8
3FFFF8
ENDCHAR
STARTCHAR 00F0
ENCODING 240
SWIDTH 555 0
DWIDTH 37 0
BBX 33 49 2 -1
BITMAP
0001800000
007FC00000
01FFF00000
01FFF80C00
01FFFC3E00
01FFFEFE00
003FFFFE00
000FFFFC00
0007FFF000
0001FFE000
0007FFF000
001FFFF000
003FFFF800
003F9FFC00
003E0FFC00
00380FFE00
000007FE00
000FE7FE00
007FFFFF00
01FFFFFF00
03FFFFFF00
07FE3FFF00
0FF803FF80
1FF001FF80
3FE001FF80
3FE001FF80
7FE001FF80
7FC001FF80
7FC000FF80
7FC000FF80
FFC000FF80
FFC000FF80
FFC000FF80
FFC000FF80
FFC001FF80
FFC001FF80
FFC001FF80
7FC001FF00
7FE001FF00
7FE001FF00
3FE003FE00
3FF003FE00
1FF807FC00
1FFC0FF800
0FFFFFF000
07FFFFE000
01FFFFC000
007FFE0000
0000800000
ENDCHAR
STARTCHAR 00F1
ENCODING 241
SWIDTH 645 0
DWIDTH 43 0
BBX 40 45 2 0
BITMAP
0007E00000
001FF80780
003FFF1F80
007FFFFF00
00FFFFFE00
01FDFFFC00
00E03FF800
00C00FF000
0000018000
0000000000
0000000000
0000000000
0000000000
0000000000
001C01F000
01FC0FFE00
7FFE3FFF80
7FFC7FFFC0
FFFDFFFFC0
FFFFFFFFE0
1FFFC1FFE0
07FE007FE0
07FE007FF0
07FE003FF0
07FE003FF0
07FE003FF0
07FE003FF0
07FE003FF0
07FE003FF0
07FE003FF0
07FE003FF0
07FE003FF0
07FE003FF0
07FE003FF0
07FE003FF0
07FE003FF0
07FE003FF0
07FE003FF0
07FE003FF0
07FE007FF0
0FFF007FF8
7FFFE3FFFE
FFFFE3FFFF
FFFFE3FFFF
FFFFE3FFFF
ENDCHAR
STARTCHAR 00F2
ENCODING 242
SWIDTH 570 0
DWIDTH 38 0
BBX 34 49 2 -1
BITMAP
000F000000
00FF000000
01FF000000
007F800000
003F800000
001FC00000
001FC00000
000FC00000
0007E00000
0003E00000
0003F00000
0001F00000
0000000000
0000000000
0000000000
0000000000
0000000000
000FFE0000
007FFF8000
01FFFFE000
03FFFFF800
07FC1FFC00
0FF80FFE00
1FF007FE00
3FE003FF00
3FE003FF00
7FE001FF80
7FC001FF80
7FC001FF80
7FC000FFC0
FFC000FFC0
FFC000FFC0
FFC000FFC0
FFC000FFC0
FFC000FFC0
FFC000FFC0
7FE000FF80
7FE000FF80
7FE000FF80
7FF001FF00
3FF001FF00
3FF803FE00
1FF803FE00
0FFE07FC00
07FFFFF800
03FFFFF000
00FFFFC000
003FFF0000
0002C00000
ENDCHAR
STARTCHAR 00F3
ENCODING 243
SWIDTH 570 0
DWIDTH 38 0
BBX 34 49 2 -1
BITMAP
00001FE000
00003FC000
00003F8000
00007F8000
00007F0000
00007E0000
0000FC0000
0000FC0000
0001F80000
0001F00000
0003F00000
0003E00000
0000E00000
0000000000
0000000000
0000000000
0000000000
000FFE0000
007FFF8000
01FFFFE000
03FFFFF800
07FC1FFC00
0FF80FFE00
1FF007FE00
3FE003FF00
3FE003FF00
7FE001FF80
7FC001FF80
7FC001FF80
7FC000FFC0
FFC000FFC0
FFC000FFC0
FFC000FFC0
FFC000FFC0
FFC000FFC0
FFC000FFC0
7FE000FF80
7FE000FF80
7FE000FF80
7FF001FF00
3FF001FF00
3FF803FE00
1FF803FE00
0FFE07FC00
07FFFFF800
03FFFFF000
00FFFFC000
003FFF0000
0002C00000
ENDCHAR
STARTCHAR 00F4
ENCODING 244
SWIDTH 570 0
DWIDTH 38 0
BBX 34 49 2 -1
BITMAP
0000700000
0001F80000
0003FC0000
0007FC0000
000FFE0000
001FFF0000
003FFF8000
007FFFC000
01FE3FE000
03F80FF000
07F003F800
07C001FC00
038000F000
0000000000
0000000000
0000000000
0000000000
000FFE0000
007FFF8000
01FFFFE000
03FFFFF800
07FC1FFC00
0FF80FFE00
1FF007FE00
3FE003FF00
3FE003FF00
7FE001FF80
7FC001FF80
7FC001FF80
7FC000FFC0
FFC000FFC0
FFC000FFC0
FFC000FFC0
FFC000FFC0
FFC000FFC0
FFC000FFC0
7FE000FF80
7FE000FF80
7FE000FF80
7FF001FF00
3FF001FF00
3FF803FE00
1FF803FE00
0FFE07FC00
07FFFFF800
03FFFFF000
00FFFFC000
003FFF0000
0002C00000
ENDCHAR
STARTCHAR 00F5
ENCODING 245
SWIDTH 570 0
DWIDTH 38 0
BBX 34 46 2 -1
BITMAP
007F002000
00FFC07800
03FFF0F800
07FFFFF800
0FFFFFF000
0FFFFFE000
0F01FFC000
06007F8000
00001C0000
0000000000
0000000000
0000000000
0000000000
0000000000
000FFE0000
007FFF8000
01FFFFE000
03FFFFF800
07FC1FFC00
0FF80FFE00
1FF007FE00
3FE003FF00
3FE003FF00
7FE001FF80
7FC001FF80
7FC001FF80
7FC000FFC0
FFC000FFC0
FFC000FFC0
FFC000FFC0
FFC000FFC0
FFC000FFC0
FFC000FFC0
7FE000FF80
7FE000FF80
7FE000FF80
7FF001FF00
3FF001FF00
3FF803FE00
1FF803FE00
0FFE07FC00
07FFFFF800
03FFFFF000
00FFFFC000
003FFF0000
0002C00000
ENDCHAR
STARTCHAR 00F6
ENCODING 246
SWIDTH 570 0
DWIDTH 38 0
BBX 34 45 2 -1
BITMAP
01F003E000
07F80FF000
07FC0FF800
0FFC1FF800
0FFC1FF800
0FFC1FF800
0FFC1FF800
07FC0FF800
03F807F000
0000000000
0000000000
0000000000
0000000000
000FFE0000
007FFF8000
01FFFFE000
03FFFFF800
07FC1FFC00
0FF80FFE00
1FF007FE00
3FE003FF00
3FE003FF00
7FE001FF80
7FC001FF80
7FC001FF80
7FC000FFC0
FFC000FFC0
FFC000FFC0
FFC000FFC0
FFC000FFC0
FFC000FFC0
FFC000FFC0
7FE000FF80
7FE000FF80
7FE000FF80
7FF001FF00
3FF001FF00
3FF803FE00
1FF803FE00
0FFE07FC00
07FFFFF800
03FFFFF000
00FFFFC000
003FFF0000
0002C00000
ENDCHAR
STARTCHAR 00F7
ENCODING 247
SWIDTH 540 0
DWIDTH 36 0
BBX 31 31 3 2
BITMAP
0007C000
000FE000
001FF000
001FF000
001FF000
001FF000
001FE000
000FE000
00038000
00000000
00000000
00000000
00000000
FFFFFFFE
FFFFFFFE
FFFFFFFE
FFFFFFFE
FFFFFFFC
00000000
00000000
00000000
00000000
00038000
000FE000
001FE000
001FF000
001FF000
001FF000
001FF000
000FE000
0007C000
ENDCHAR
STARTCHAR 00F8
ENCODING 248
SWIDTH 570 0
DWIDTH 38 0
BBX 34 35 2 -2
BITMAP
0000000400
0000000FC0
000FFE1FC0
007FFFDF80
01FFFFFF00
03FFFFFE00
07FC1FFC00
0FF80FFE00
1FF007FE00
3FE007FF00
3FE00FFF00
7FE01FFF80
7FC03FFF80
7FC07FFF80
7FC07EFFC0
FFC0FCFFC0
FFC1F8FFC0
FFC3F0FFC0
FFC7E0FFC0
FFCFC0FFC0
FFDF80FFC0
7FFF80FF80
7FFF00FF80
7FFE00FF80
7FFC01FF00
3FF801FF00
3FF803FE00
1FF803FE00
0FFE07FC00
1FFFFFF800
3FFFFFF000
3FFFFFC000
7E3FFF0000
FC01C00000
F800000000
ENDCHAR
STARTCHAR 00F9
ENCODING 249
SWIDTH 600 0
DWIDTH 40 0
BBX 38 48 1 -1
BITMAP
0003C00000
003FC00000
003FE00000
001FE00000
000FE00000
0007F00000
0007F00000
0003F00000
0001F80000
0000F80000
0000FC0000
00007C0000
0000000000
0000000000
0000000000
0000000000
0000000000
0038000380
03F801FFC0
7FFC0FFFC0
FFFC0FFFC0
FFFC0FFFC0
FFFC0FFFC0
1FFC01FFC0
0FFC00FFC0
0FFC00FFC0
0FFC00FFC0
0FFC00FFC0
0FFC00FFC0
0FFC00FFC0
0FFC00FFC0
0FFC00FFC0
0FFC00FFC0
0FFC00FFC0
0FFC00FFC0
0FFC00FFC0
0FFC00FFC0
0FFC00FFC0
0FFC00FFC0
0FFC00FFC0
0FFE00FFC0
07FE00FFE0
07FF80FFFC
07FFFFFFFC
03FFFFFFFC
03FFFF7FFC
01FFFC7FF0
007FE07800
ENDCHAR
STARTCHAR 00FA
ENCODING 250
SWIDTH 600 0
DWIDTH 40 0
BBX 38 48 1 -1
BITMAP
000007F800
00000FF000
00000FF000
00001FE000
00001FC000
00001F8000
00003F8000
00003F0000
00007E0000
00007E0000
00007C0000
0000F80000
0000180000
0000000000
0000000000
0000000000
0000000000
0038000380
03F801FFC0
7FFC0FFFC0
FFFC0FFFC0
FFFC0FFFC0
FFFC0FFFC0
1FFC01FFC0
0FFC00FFC0
0FFC00FFC0
0FFC00FFC0
0FFC00FFC0
0FFC00FFC0
0FFC00FFC0
0FFC00FFC0
0FFC00FFC0
0FFC00FFC0
0FFC00FFC0
0FFC00FFC0
0FFC00FFC0
0FFC00FFC0
0FFC00FFC0
0FFC00FFC0
0FFC00FFC0
0FFE00FFC0
07FE00FFE0
07FF80FFFC
07FFFFFFFC
03FFFFFFFC
03FFFF7FFC
01FFFC7FF0
007FE07800
ENDCHAR
STARTCHAR 00FB
ENCODING 251
SWIDTH 600 0
DWIDTH 40 0
BBX 38 48 1 -1
BITMAP
00001C0000
00007E0000
0000FF0000
0001FF8000
0003FF8000
0007FFC000
000FFFE000
001FFFF000
007F87F800
00FE03FC00
01FC00FE00
01F0007F00
00E0001C00
0040000000
0000000000
0000000000
0000000000
0038000380
03F801FFC0
7FFC0FFFC0
FFFC0FFFC0
FFFC0FFFC0
FFFC0FFFC0
1FFC01FFC0
0FFC00FFC0
0FFC00FFC0
0FFC00FFC0
0FFC00FFC0
0FFC00FFC0
0FFC00FFC0
0FFC00FFC0
0FFC00FFC0
0FFC00FFC0
0FFC00FFC0
0FFC00FFC0
0FFC00FFC0
0FFC00FFC0
0FFC00FFC0
0FFC00FFC0
0FFC00FFC0
0FFE00FFC0
07FE00FFE0
07FF80FFFC
07FFFFFFFC
03FFFFFFFC
03FFFF7FFC
01FFFC7FF0
007FE07800
ENDCHAR
STARTCHAR 00FC
ENCODING 252
SWIDTH 600 0
DWIDTH 40 0
BBX 38 44 1 -1
BITMAP
007C00F800
00FE03FC00
01FF03FE00
03FF07FE00
03FF07FF00
03FF07FF00
01FF03FE00
01FF03FE00
00FE01FC00
0000000000
0000000000
0000000000
0000000000
0038000380
03F801FFC0
7FFC0FFFC0
FFFC0FFFC0
FFFC0FFFC0
FFFC0FFFC0
1FFC01FFC0
0FFC00FFC0
0FFC00FFC0
0FFC00FFC0
0FFC00FFC0
0FFC00FFC0
0FFC00FFC0
0FFC00FFC0
0FFC00FFC0
0FFC00FFC0
0FFC00FFC0
0FFC00FFC0
0FFC00FFC0
0FFC00FFC0
0FFC00FFC0
0FFC00FFC0
0FFC00FFC0
0FFE00FFC0
07FE00FFE0
07FF80FFFC
07FFFFFFFC
03FFFFFFFC
03FFFF7FFC
01FFFC7FF0
007FE07800
ENDCHAR
STARTCHAR 00FD
ENCODING 253
SWIDTH 555 0
DWIDTH 37 0
BBX 36 65 1 -17
BITMAP
000001FE00
000007FC00
000007F800
000007F000
000007E000
00000FE000
00000FC000
00001F8000
00001F8000
00003F0000
00003E0000
00003E0000
00000C0000
0000000000
0000000000
0000000000
0000000000
FFFFE3FFF0
FFFFE3FFE0
FFFFE1FFE0
FFFFE1FFE0
7FFFC1FFE0
1FFE003F80
0FFE003F00
0FFE003E00
07FE003E00
07FF003C00
03FF007C00
03FF807800
01FF807800
01FFC0F800
00FFC0F000
00FFC1F000
007FE1E000
007FE1E000
003FF3E000
003FF3C000
003FF7C000
001FFF8000
001FFF8000
000FFF0000
000FFF0000
0007FF0000
0007FE0000
0003FE0000
0003FC0000
0003FC0000
0001FC0000
0001F80000
0000F80000
0000F00000
0001F00000
0001E00000
0003E00000
0003C00000
0007C00000
383F800000
3FFF800000
7FFF000000
7FFF000000
7FFE000000
7FFC000000
3FF8000000
1FF0000000
0180000000
ENDCHAR
STARTCHAR 00FE
ENCODING 254
SWIDTH 615 0
DWIDTH 41 0
BBX 37 64 2 -16
BITMAP
0008000000
00FC000000
FFFC000000
FFFC000000
FFFC000000
FFFC000000
3FFC000000
0FFC000000
0FFC000000
07FC000000
07FC000000
07FC000000
07FC000000
07FC000000
07FC000000
07FC000000
07FC000000
07FC0FF800
07FC3FFE00
07FC7FFF80
07FDFFFFC0
07FDFFFFE0
07FFF1FFF0
07FFC07FF0
07FF803FF0
07FF003FF8
07FF001FF8
07FE001FF8
07FE001FF8
07FE001FF8
07FC001FF8
07FC001FF8
07FC000FF8
07FC001FF8
07FC001FF8
07FC001FF8
07FC001FF0
07FC001FF0
07FC001FF0
07FC003FE0
07FC003FE0
07FC007FC0
07FC00FF80
07FF01FF00
07FFC7FE00
07FFFFFC00
07FFFFF000
07FFFFC000
07FC340000
07FC000000
07FC000000
07FC000000
07FC000000
07FC000000
07FC000000
07FC000000
07FE000000
0FFE000000
0FFF000000
1FFF800000
FFFFF80000
FFFFF80000
FFFFF80000
FFFFF80000
ENDCHAR
STARTCHAR 00FF
ENCODING 255
SWIDTH 555 0
DWIDTH 37 0
BBX 36 61 1 -17
BITMAP
003E007C00
007F80FF00
00FF81FF00
00FFC1FF80
00FFC1FF80
00FFC1FF80
00FFC1FF80
00FF80FF00
007F007E00
0000000000
0000000000
0000000000
0000000000
FFFFE3FFF0
FFFFE3FFE0
FFFFE1FFE0
FFFFE1FFE0
7FFFC1FFE0
1FFE003F80
0FFE003F00
0FFE003E00
07FE003E00
07FF003C00
03FF007C00
03FF807800
01FF807800
01FFC0F800
00FFC0F000
00FFC1F000
007FE1E000
007FE1E000
003FF3E000
003FF3C000
003FF7C000
001FFF8000
001FFF8000
000FFF0000
000FFF0000
0007FF0000
0007FE0000
0003FE0000
0003FC0000
0003FC0000
0001FC0000
0001F80000
0000F80000
0000F00000
0001F00000
0001E00000
0003E00000
0003C00000
0007C00000
383F800000
3FFF800000
7FFF000000
7FFF000000
7FFE000000
7FFC000000
3FF8000000
1FF0000000
0180000000
ENDCHAR
STARTCHAR 0100
ENCODING 256
SWIDTH 705 0
DWIDTH 47 0
BBX 45 54 1 0
BITMAP
003FFFFFE000
007FFFFFC000
007FFFFFC000
007F00000000
000000000000
000000000000
000000000000
000000000000
000000000000
00000F000000
00001F800000
00001F800000
00001FC00000
00003FC00000
00003FE00000
00007FE00000
00007FF00000
0000FFF00000
0000FFF00000
0000FFF80000
0001FFF80000
0001FFFC0000
0003CFFC0000
0003CFFE0000
0003CFFE0000
000787FF0000
000787FF0000
000F83FF0000
000F03FF8000
000F03FF8000
001F01FFC000
001E01FFC000
003E00FFE000
003C00FFE000
003C007FF000
007C007FF000
0078007FF000
00F8003FF800
00FFFFFFF800
00FFFFFFFC00
01FFFFFFFC00
01FF800FFE00
03E0000FFE00
03C0000FFF00
03C00007FF00
07C00007FF00
07C00003FF80
0FC00003FF80
1FC00003FFC0
3FE00007FFE0
7FF8001FFFF8
FFF8001FFFF8
FFF8003FFFF8
FFF8003FFFF8
ENDCHAR
STARTCHAR 0101
ENCODING 257
SWIDTH 540 0
DWIDTH 36 0
BBX 32 43 4 -1
BITMAP
7FFFFFC0
7FFFFF80
7FFFFF80
7FFE0000
00000000
00000000
00000000
00000000
00000000
00000000
00000000
000FF800
003FFE00
00FFFF00
03FFFF80
07FFFFC0
0FC1FFC0
1FC0FFE0
3FC0FFE0
7FC07FE0
FFC07FE0
FFC07FE0
FFC07FE0
00007FE0
0001FFE0
000FFFE0
003FFFE0
00FF7FE0
07FC7FE0
1FF07FE0
3FC07FE0
7FC07FE0
7FC07FE0
7FC07FE0
7FC07FE0
7FC07FF0
7FE07FFC
7FF0FFFF
7FFFFFFF
3FFFBFFF
1FFF3FFE
0FFC1FF0
00000600
ENDCHAR
STARTCHAR 0102
ENCODING 258
SWIDTH 705 0
DWIDTH 47 0
BBX 45 58 1 0
BITMAP
001F00078000
001F800F8000
001F801F8000
001FE03F8000
000FFFFF0000
000FFFFF0000
0007FFFE0000
0003FFFC0000
0001FFF00000
00001F800000
000000000000
000000000000
000000000000
00000F000000
00001F800000
00001F800000
00001FC00000
00003FC00000
00003FE00000
00007FE00000
00007FF00000
0000FFF00000
0000FFF00000
0000FFF80000
0001FFF80000
0001FFFC0000
0003CFFC0000
0003CFFE0000
0003CFFE0000
000787FF0000
000787FF0000
000F83FF0000
000F03FF8000
000F03FF8000
001F01FFC000
001E01FFC000
003E00FFE000
003C00FFE000
003C007FF000
007C007FF000
0078007FF000
00F8003FF800
00FFFFFFF800
00FFFFFFFC00
01FFFFFFFC00
01FF800FFE00
03E0000FFE00
03C0000FFF00
03C00007FF00
07C00007FF00
07C00003FF80
0FC00003FF80
1FC00003FFC0
3FE00007FFE0
7FF8001FFFF8
FFF8001FFFF8
FFF8003FFFF8
FFF8003FFFF8
ENDCHAR
STARTCHAR 0103
ENCODING 259
SWIDTH 540 0
DWIDTH 36 0
BBX 32 48 4 -1
BITMAP
7C0007C0
7C0007C0
7E000780
7E000F80
7F001F80
7FE07F80
3FFFFF00
3FFFFF00
1FFFFE00
0FFFFC00
07FFF800
00FFC000
00000000
00000000
00000000
00000000
000FF800
003FFE00
00FFFF00
03FFFF80
07FFFFC0
0FC1FFC0
1FC0FFE0
3FC0FFE0
7FC07FE0
FFC07FE0
FFC07FE0
FFC07FE0
00007FE0
0001FFE0
000FFFE0
003FFFE0
00FF7FE0
07FC7FE0
1FF07FE0
3FC07FE0
7FC07FE0
7FC07FE0
7FC07FE0
7FC07FE0
7FC07FF0
7FE07FFC
7FF0FFFF
7FFFFFFF
3FFFBFFF
1FFF3FFE
0FFC1FF0
00000600
ENDCHAR
STARTCHAR 0104
ENCODING 260
SWIDTH 705 0
DWIDTH 47 0
BBX 45 62 1 -17
BITMAP
00000F000000
00001F800000
00001F800000
00001FC00000
00003FC00000
00003FE00000
00007FE00000
00007FF00000
0000FFF00000
0000FFF00000
0000FFF80000
0001FFF80000
0001FFFC0000
0003CFFC0000
0003CFFE0000
0003CFFE0000
000787FF0000
000787FF0000
000F83FF0000
000F03FF8000
000F03FF8000
001F01FFC000
001E01FFC000
003E00FFE000
003C00FFE000
003C007FF000
007C007FF000
0078007FF000
00F8003FF800
00FFFFFFF800
00FFFFFFFC00
01FFFFFFFC00
01FF800FFE00
03E0000FFE00
03C0000FFF00
03C00007FF00
07C00007FF00
07C00003FF80
0FC00003FF80
1FC00003FFC0
3FE00007FFE0
7FF8001FFFF8
FFF8001FFFF8
FFF8003FFFF8
FFF8003FFFF8
00000000FE00
00000001F800
00000007E000
0000000FC000
0000001FC000
0000003F8000
0000003F8000
0000007F8000
0000007FC000
0000007FF980
0000007FFF80
0000007FFF80
0000003FFF80
0000003FFF80
0000001FFC00
00000007F000
00000000C000
ENDCHAR
STARTCHAR 0105
ENCODING 261
SWIDTH 540 0
DWIDTH 36 0
BBX 32 48 4 -17
BITMAP
000FF800
003FFE00
00FFFF00
03FFFF80
07FFFFC0
0FC1FFC0
1FC0FFE0
3FC0FFE0
7FC07FE0
FFC07FE0
FFC07FE0
FFC07FE0
00007FE0
0001FFE0
000FFFE0
003FFFE0
00FF7FE0
07FC7FE0
1FF07FE0
3FC07FE0
7FC07FE0
7FC07FE0
7FC07FE0
7FC07FE0
7FC07FF0
7FE07FFC
7FF0FFFF
7FFFFFFF
3FFFBFFF
1FFF3FFE
0FFC1FF0
00000F80
00003F00
00007E00
0000FE00
0001FC00
0001FC00
0003FC00
0003FC00
0003FE00
0003FFCC
0003FFFC
0003FFFC
0001FFFC
0001FFFC
0000FFE0
00003F80
00000E00
ENDCHAR
STARTCHAR 0106
ENCODING 262
SWIDTH 630 0
DWIDTH 42 0
BBX 38 60 2 -1
BITMAP
0000003C00
000001FF00
000001FC00
000003FC00
000003F800
000007F000
000007E000
00000FC000
00000FC000
00000F8000
0000000000
0000000000
0000000000
000007C000
0001FFFE00
0007FFFFE0
001FFFFFF8
007FFC7FFC
00FFC00FF8
01FF0007F8
03FE0003F8
07FC0001F8
0FFC0001F8
0FF80001F8
1FF80001F8
1FF00000F8
3FF00000F8
3FF00000F0
7FE0000000
7FE0000000
7FE0000000
7FE0000000
7FE0000000
FFE0000000
FFE0000000
FFE0000000
FFE0000000
FFE0000000
FFE0000000
FFE0000000
7FE0000000
7FF0000000
7FF0000000
7FF0000000
3FF0000000
3FF8000000
3FF8000000
1FFC000000
1FFE000000
0FFE000000
0FFF000000
07FF800008
03FFE0003C
01FFF800FC
00FFFFFFFC
007FFFFFF8
001FFFFFE0
0007FFFF80
0001FFFC00
0000070000
ENDCHAR
STARTCHAR 0107
ENCODING 263
SWIDTH 465 0
DWIDTH 31 0
BBX 27 49 2 -1
BITMAP
00003FC0
00007F80
0000FF00
0000FE00
0000FE00
0001FC00
0001F800
0001F800
0003F000
0003E000
0007E000
0007C000
00008000
00000000
00000000
00000000
00000000
001FFC00
00FFFF80
01FFFFE0
03FFFFE0
07F83FE0
0FF01FC0
1FF00FC0
3FE00FC0
3FE007C0
7FC007C0
7FC007C0
7FC00700
7FC00000
FFC00000
FFC00000
FFC00000
FFC00000
FFC00000
FFC00000
7FC00000
7FE00000
7FE00000
7FF00000
3FF00000
3FF80040
1FFE00E0
0FFFCFE0
07FFFFE0
03FFFFC0
01FFFF80
007FFE00
0001A000
ENDCHAR
STARTCHAR 0108
ENCODING 264
SWIDTH 630 0
DWIDTH 42 0
BBX 38 60 2 -1
BITMAP
000007C000
00000FE000
00001FF000
00007FF800
0000FFFC00
0001FFFF00
0007FDFF80
001FF07FC0
000FC01FC0
0007000780
0000000000
0000000000
0000000000
000007C000
0001FFFE00
0007FFFFE0
001FFFFFF8
007FFC7FFC
00FFC00FF8
01FF0007F8
03FE0003F8
07FC0001F8
0FFC0001F8
0FF80001F8
1FF80001F8
1FF00000F8
3FF00000F8
3FF00000F0
7FE0000000
7FE0000000
7FE0000000
7FE0000000
7FE0000000
FFE0000000
FFE0000000
FFE0000000
FFE0000000
FFE0000000
FFE0000000
FFE0000000
7FE0000000
7FF0000000
7FF0000000
7FF0000000
3FF0000000
3FF8000000
3FF8000000
1FFC000000
1FFE000000
0FFE000000
0FFF000000
07FF800008
03FFE0003C
01FFF800FC
00FFFFFFFC
007FFFFFF8
001FFFFFE0
0007FFFF80
0001FFFC00
0000070000
ENDCHAR
STARTCHAR 0109
ENCODING 265
SWIDTH 465 0
DWIDTH 31 0
BBX 28 49 2 -1
BITMAP
0000E000
0003E000
0007F000
000FF800
001FFC00
003FFE00
00FFFF00
01FEFF80
03FC7FC0
07F01FE0
0FC00FF0
0F8003F0
070001E0
00000000
00000000
00000000
00000000
001FFC00
00FFFF80
01FFFFE0
03FFFFE0
07F83FE0
0FF01FC0
1FF00FC0
3FE00FC0
3FE007C0
7FC007C0
7FC007C0
7FC00700
7FC00000
FFC00000
FFC00000
FFC00000
FFC00000
FFC00000
FFC00000
7FC00000
7FE00000
7FE00000
7FF00000
3FF00000
3FF80040
1FFE00E0
0FFFCFE0
07FFFFE0
03FFFFC0
01FFFF80
007FFE00
0001A000
ENDCHAR
STARTCHAR 010A
ENCODING 266
SWIDTH 630 0
DWIDTH 42 0
BBX 38 58 2 -1
BITMAP
00001FE000
00003FF000
00003FF000
00007FF800
00007FF800
00007FF800
00003FF000
00003FE000
00000FC000
0000000000
0000000000
000007C000
0001FFFE00
0007FFFFE0
001FFFFFF8
007FFC7FFC
00FFC00FF8
01FF0007F8
03FE0003F8
07FC0001F8
0FFC0001F8
0FF80001F8
1FF80001F8
1FF00000F8
3FF00000F8
3FF00000F0
7FE0000000
7FE0000000
7FE0000000
7FE0000000
7FE0000000
FFE0000000
FFE0000000
FFE0000000
FFE0000000
FFE0000000
FFE0000000
FFE0000000
7FE0000000
7FF0000000
7FF0000000
7FF0000000
3FF0000000
3FF8000000
3FF8000000
1FFC000000
1FFE000000
0FFE000000
0FFF000000
07FF800008
03FFE0003C
01FFF800FC
00FFFFFFFC
007FFFFFF8
001FFFFFE0
0007FFFF80
0001FFFC00
0000070000
ENDCHAR
STARTCHAR 010B
ENCODING 267
SWIDTH 465 0
DWIDTH 31 0
BBX 27 45 2 -1
BITMAP
000FE000
001FF000
003FF800
003FF800
003FF800
003FF800
003FF800
001FF000
000FE000
00000000
00000000
00000000
00000000
001FFC00
00FFFF80
01FFFFE0
03FFFFE0
07F83FE0
0FF01FC0
1FF00FC0
3FE00FC0
3FE007C0
7FC007C0
7FC007C0
7FC00700
7FC00000
FFC00000
FFC00000
FFC00000
FFC00000
FFC00000
FFC00000
7FC00000
7FE00000
7FE00000
7FF00000
3FF00000
3FF80040
1FFE00E0
0FFFCFE0
07FFFFE0
03FFFFC0
01FFFF80
007FFE00
0001A000
ENDCHAR
STARTCHAR 010C
ENCODING 268
SWIDTH 630 0
DWIDTH 42 0
BBX 38 60 2 -1
BITMAP
0007000300
000FC00F80
001FF03FC0
000FFCFF80
0007FFFE00
0001FFFC00
0000FFF800
00007FE000
00003FC000
00001F8000
0000000000
0000000000
0000000000
000007C000
0001FFFE00
0007FFFFE0
001FFFFFF8
007FFC7FFC
00FFC00FF8
01FF0007F8
03FE0003F8
07FC0001F8
0FFC0001F8
0FF80001F8
1FF80001F8
1FF00000F8
3FF00000F8
3FF00000F0
7FE0000000
7FE0000000
7FE0000000
7FE0000000
7FE0000000
FFE0000000
FFE0000000
FFE0000000
FFE0000000
FFE0000000
FFE0000000
FFE0000000
7FE0000000
7FF0000000
7FF0000000
7FF0000000
3FF0000000
3FF8000000
3FF8000000
1FFC000000
1FFE000000
0FFE000000
0FFF000000
07FF800008
03FFE0003C
01FFF800FC
00FFFFFFFC
007FFFFFF8
001FFFFFE0
0007FFFF80
0001FFFC00
0000070000
ENDCHAR
STARTCHAR 010D
ENCODING 269
SWIDTH 465 0
DWIDTH 31 0
BBX 27 48 2 -1
BITMAP
070001E0
0F8003E0
0FE00FE0
07F81FC0
03FC7F80
01FFFF00
00FFFE00
007FFC00
003FF800
003FF000
001FE000
000FC000
00060000
00000000
00000000
00000000
001FFC00
00FFFF80
01FFFFE0
03FFFFE0
07F83FE0
0FF01FC0
1FF00FC0
3FE00FC0
3FE007C0
7FC007C0
7FC007C0
7FC00700
7FC00000
FFC00000
FFC00000
FFC00000
FFC00000
FFC00000
FFC00000
7FC00000
7FE00000
7FE00000
7FF00000
3FF00000
3FF80040
1FFE00E0
0FFFCFE0
07FFFFE0
03FFFFC0
01FFFF80
007FFE00
0001A000
ENDCHAR
STARTCHAR 010E
ENCODING 270
SWIDTH 735 0
DWIDTH 49 0
BBX 44 59 3 0
BITMAP
001C000C0000
007E003E0000
00FF80FE0000
003FE3FE0000
001FFFF80000
000FFFE00000
0007FFC00000
0001FF800000
0000FE000000
00007C000000
000000000000
000000000000
000000000000
000000000000
FFFFFFF00000
FFFFFFFE0000
FFFFFFFFC000
FFFFFFFFF000
1FFE00FFF800
0FFE003FFC00
0FFE000FFE00
07FE0007FF00
07FE0007FF80
07FE0003FF80
07FE0001FFC0
07FE0001FFC0
07FE0000FFC0
07FE0000FFE0
07FE0000FFE0
07FE00007FE0
07FE00007FE0
07FE00007FE0
07FE00007FF0
07FE00007FF0
07FE00007FF0
07FE00007FF0
07FE00007FF0
07FE00007FF0
07FE00007FF0
07FE00007FE0
07FE00007FE0
07FE00007FE0
07FE00007FE0
07FE00007FE0
07FE0000FFC0
07FE0000FFC0
07FE0000FFC0
07FE0000FF80
07FE0001FF80
07FE0001FF00
07FE0003FE00
07FE0007FC00
0FFE000FFC00
0FFF001FF000
1FFF80FFE000
FFFFFFFFC000
FFFFFFFF0000
FFFFFFF80000
FFFFFF800000
ENDCHAR
STARTCHAR 010F
ENCODING 271
SWIDTH 735 0
DWIDTH 49 0
BBX 47 49 2 -1
BITMAP
000000020038
0000001F01FC
00001FFF87FC
00001FFF8FFC
00001FFF8FFE
00003FFF8FFE
00000FFF8FFE
000003FF8FFC
000001FF83FC
000001FF81FC
000001FF80FC
000001FF80FC
000001FF80F8
000001FF81F8
000001FF81F0
000001FF83E0
000001FF83E0
0007FFFF87C0
003FFFFF8380
00FFFFFF8000
01FFFFFF8000
03FE07FF8000
07FC01FF8000
0FF801FF8000
1FF001FF8000
3FE001FF8000
3FE001FF8000
3FE001FF8000
7FE001FF8000
7FC001FF8000
7FC001FF8000
7FC001FF8000
FFC001FF8000
FFC001FF8000
FFC001FF8000
FFC001FF8000
FFC001FF8000
FFE001FF8000
7FE003FF8000
7FE003FF8000
7FF007FF8000
7FF80FFFC000
3FFC1FFFF800
1FFFFEFFF800
1FFFFEFFF800
0FFFFCFFF800
03FFF0FFE000
01FFC07C0000
000C00200000
ENDCHAR
STARTCHAR 0110
ENCODING 272
SWIDTH 735 0
DWIDTH 49 0
BBX 45 45 2 0
BITMAP
7FFFFFF80000
7FFFFFFF0000
7FFFFFFFE000
7FFFFFFFF800
0FFF007FFC00
07FF001FFE00
07FF0007FF00
03FF0003FF80
03FF0003FFC0
03FF0001FFC0
03FF0000FFE0
03FF0000FFE0
03FF00007FE0
03FF00007FF0
03FF00007FF0
03FF00003FF0
03FF00003FF0
03FF00003FF0
03FF00003FF8
03FF00003FF8
FFFFFF803FF8
FFFFFF803FF8
FFFFFF803FF8
FFFFFF003FF8
FFFFFF003FF8
03FF00003FF0
03FF00003FF0
03FF00003FF0
03FF00003FF0
03FF00003FF0
03FF00007FE0
03FF00007FE0
03FF00007FE0
03FF00007FC0
03FF0000FFC0
03FF0000FF80
03FF0001FF00
03FF0003FE00
07FF0007FE00
07FF800FF800
0FFFC07FF000
7FFFFFFFE000
7FFFFFFF8000
7FFFFFFC0000
7FFFFFC00000
ENDCHAR
STARTCHAR 0111
ENCODING 273
SWIDTH 600 0
DWIDTH 40 0
BBX 37 49 2 -1
BITMAP
0000000200
0000001F00
00001FFF80
00001FFF80
00001FFF80
00003FFF80
000007FF80
000003FF80
000001FF80
000001FF80
0000FFFFF8
0000FFFFF0
0001FFFFF0
0001FFFF80
000001FF80
000001FF80
000001FF80
0007FFFF80
003FFFFF80
00FFFFFF80
01FFFFFF80
03FE07FF80
07FC01FF80
0FF801FF80
1FF001FF80
3FE001FF80
3FE001FF80
3FE001FF80
7FE001FF80
7FC001FF80
7FC001FF80
7FC001FF80
FFC001FF80
FFC001FF80
FFC001FF80
FFC001FF80
FFE001FF80
FFE001FF80
7FE001FF80
7FF001FF80
7FF801FF80
3FFC01FFC0
3FFE01FFF8
1FFFFFFFF8
1FFFFFFFF8
0FFFFEFFF8
03FFF8FFE0
01FFE0F000
000E000000
ENDCHAR
STARTCHAR 0112
ENCODING 274
SWIDTH 615 0
DWIDTH 41 0
BBX 37 54 3 0
BITMAP
07FFFFFC00
07FFFFFC00
0FFFFFF800
0FE0000000
0000000000
0000000000
0000000000
0000000000
0000000000
FFFFFFFF80
FFFFFFFF80
FFFFFFFF80
FFFFFFFF80
1FFE00FF80
0FFE003FC0
0FFE001FC0
07FE000FC0
07FE0007C0
07FE0007C0
07FE0007C0
07FE000780
07FE000000
07FE000000
07FE000000
07FE01F000
07FE01F000
07FE01F000
07FE03F000
07FE03F000
07FFFFF000
07FFFFF000
07FFFFF000
07FFFFF000
07FE3FF000
07FE03F000
07FE03F000
07FE01F000
07FE01F000
07FE01F000
07FE000000
07FE000000
07FE000080
07FE0001F0
07FE0001F8
07FE0001F0
07FE0003F0
07FE0003F0
0FFE0007F0
0FFF001FE0
1FFF807FE0
FFFFFFFFE0
FFFFFFFFE0
FFFFFFFFE0
FFFFFFFFE0
ENDCHAR
STARTCHAR 0113
ENCODING 275
SWIDTH 510 0
DWIDTH 34 0
BBX 30 43 2 -1
BITMAP
0FFFFFF0
1FFFFFF0
1FFFFFF0
1FFF8000
00000000
00000000
00000000
00000000
00000000
00000000
00000000
001FF800
00FFFE00
01FFFF80
07FFFFC0
0FFC7FE0
1FF01FE0
1FF01FF0
3FE00FF0
3FE00FF8
7FC00FF8
7FC00FF8
7FC007F8
7FC007FC
FFFFFFFC
FFFFFFFC
FFFFFFF8
FFFFFFF8
FFFC0000
FFC00000
7FE00000
7FE00000
7FE00000
7FF00000
3FF00000
3FF80038
1FFE00F8
0FFFCFF8
0FFFFFF8
03FFFFE0
01FFFFC0
007FFE00
0001C000
ENDCHAR
STARTCHAR 0114
ENCODING 276
SWIDTH 615 0
DWIDTH 41 0
BBX 37 58 3 0
BITMAP
03E000F000
03F001F000
03F801F000
03FC07F000
01FFFFE000
01FFFFE000
00FFFFC000
007FFF8000
003FFE0000
0003F00000
0000000000
0000000000
0000000000
FFFFFFFF80
FFFFFFFF80
FFFFFFFF80
FFFFFFFF80
1FFE00FF80
0FFE003FC0
0FFE001FC0
07FE000FC0
07FE0007C0
07FE0007C0
07FE0007C0
07FE000780
07FE000000
07FE000000
07FE000000
07FE01F000
07FE01F000
07FE01F000
07FE03F000
07FE03F000
07FFFFF000
07FFFFF000
07FFFFF000
07FFFFF000
07FE3FF000
07FE03F000
07FE03F000
07FE01F000
07FE01F000
07FE01F000
07FE000000
07FE000000
07FE000080
07FE0001F0
07FE0001F8
07FE0001F0
07FE0003F0
07FE0003F0
0FFE0007F0
0FFF001FE0
1FFF807FE0
FFFFFFFFE0
FFFFFFFFE0
FFFFFFFFE0
FFFFFFFFE0
ENDCHAR
STARTCHAR 0115
ENCODING 277
SWIDTH 510 0
DWIDTH 34 0
BBX 30 48 2 -1
BITMAP
1F0000F0
1F8000F0
1F8001F0
1FC001F0
0FE007F0
0FF81FE0
0FFFFFE0
07FFFFC0
03FFFFC0
01FFFF80
00FFFE00
001FF800
00000000
00000000
00000000
00000000
001FF800
00FFFE00
01FFFF80
07FFFFC0
0FFC7FE0
1FF01FE0
1FF01FF0
3FE00FF0
3FE00FF8
7FC00FF8
7FC00FF8
7FC007F8
7FC007FC
FFFFFFFC
FFFFFFFC
FFFFFFF8
FFFFFFF8
FFFC0000
FFC00000
7FE00000
7FE00000
7FE00000
7FF00000
3FF00000
3FF80038
1FFE00F8
0FFFCFF8
0FFFFFF8
03FFFFE0
01FFFFC0
007FFE00
0001C000
ENDCHAR
STARTCHAR 0116
ENCODING 278
SWIDTH 615 0
DWIDTH 41 0
BBX 37 57 3 0
BITMAP
0007F80000
000FFC0000
000FFC0000
001FFE0000
001FFE0000
001FFE0000
000FFC0000
000FFC0000
0003F00000
0000000000
0000000000
0000000000
FFFFFFFF80
FFFFFFFF80
FFFFFFFF80
FFFFFFFF80
1FFE00FF80
0FFE003FC0
0FFE001FC0
07FE000FC0
07FE0007C0
07FE0007C0
07FE0007C0
07FE000780
07FE000000
07FE000000
07FE000000
07FE01F000
07FE01F000
07FE01F000
07FE03F000
07FE03F000
07FFFFF000
07FFFFF000
07FFFFF000
07FFFFF000
07FE3FF000
07FE03F000
07FE03F000
07FE01F000
07FE01F000
07FE01F000
07FE000000
07FE000000
07FE000080
07FE0001F0
07FE0001F8
07FE0001F0
07FE0003F0
07FE0003F0
0FFE0007F0
0FFF001FE0
1FFF807FE0
FFFFFFFFE0
FFFFFFFFE0
FFFFFFFFE0
FFFFFFFFE0
ENDCHAR
STARTCHAR 0117
ENCODING 279
SWIDTH 510 0
DWIDTH 34 0
BBX 30 45 2 -1
BITMAP
000FE000
001FF000
003FF800
003FF800
003FF800
003FF800
003FF800
001FF000
000FE000
00000000
00000000
00000000
00000000
001FF800
00FFFE00
01FFFF80
07FFFFC0
0FFC7FE0
1FF01FE0
1FF01FF0
3FE00FF0
3FE00FF8
7FC00FF8
7FC00FF8
7FC007F8
7FC007FC
FFFFFFFC
FFFFFFFC
FFFFFFF8
FFFFFFF8
FFFC0000
FFC00000
7FE00000
7FE00000
7FE00000
7FF00000
3FF00000
3FF80038
1FFE00F8
0FFFCFF8
0FFFFFF8
03FFFFE0
01FFFFC0
007FFE00
0001C000
ENDCHAR
STARTCHAR 0118
ENCODING 280
SWIDTH 615 0
DWIDTH 41 0
BBX 37 62 3 -17
BITMAP
FFFFFFFF80
FFFFFFFF80
FFFFFFFF80
FFFFFFFF80
1FFE00FF80
0FFE003FC0
0FFE001FC0
07FE000FC0
07FE0007C0
07FE0007C0
07FE0007C0
07FE000780
07FE000000
07FE000000
07FE000000
07FE01F000
07FE01F000
07FE01F000
07FE03F000
07FE03F000
07FFFFF000
07FFFFF000
07FFFFF000
07FFFFF000
07FE3FF000
07FE03F000
07FE03F000
07FE01F000
07FE01F000
07FE01F000
07FE000000
07FE000000
07FE000080
07FE0001F0
07FE0001F8
07FE0001F0
07FE0003F0
07FE0003F0
0FFE0007F0
0FFF001FE0
1FFF807FE0
FFFFFFFFE0
FFFFFFFFE0
FFFFFFFFE0
FFFFFFFFE0
000000FC00
000003F000
00000FE000
00001FC000
00003F8000
00003F8000
00007F8000
00007F8000
00007FC000
0000FFF300
0000FFFF00
00007FFF80
00007FFF80
00003FFF80
00001FFC00
00000FE000
000000C000
ENDCHAR
STARTCHAR 0119
ENCODING 281
SWIDTH 510 0
DWIDTH 34 0
BBX 30 48 2 -17
BITMAP
001FF800
00FFFE00
01FFFF80
07FFFFC0
0FFC7FE0
1FF01FE0
1FF01FF0
3FE00FF0
3FE00FF8
7FC00FF8
7FC00FF8
7FC007F8
7FC007FC
FFFFFFFC
FFFFFFFC
FFFFFFF8
FFFFFFF8
FFFC0000
FFC00000
7FE00000
7FE00000
7FE00000
7FF00000
3FF00000
3FF80038
1FFE00F8
0FFFCFF8
0FFFFFF8
03FFFFE0
01FFFFC0
007FFF80
0001FE00
00007C00
0000FC00
0001F800
0003F800
0007F800
0007F800
0007F800
000FFC00
000FFF30
0007FFF0
0007FFF8
0007FFF8
0003FFF8
0001FFC0
0000FE00
00000C00
ENDCHAR
STARTCHAR 011A
ENCODING 282
SWIDTH 615 0
DWIDTH 41 0
BBX 37 59 3 0
BITMAP
00C000E000
03F003E000
07FC07F000
03FF3FE000
01FFFFC000
007FFF0000
003FFE0000
001FF80000
000FF00000
0007E00000
0000000000
0000000000
0000000000
0000000000
FFFFFFFF80
FFFFFFFF80
FFFFFFFF80
FFFFFFFF80
1FFE00FF80
0FFE003FC0
0FFE001FC0
07FE000FC0
07FE0007C0
07FE0007C0
07FE0007C0
07FE000780
07FE000000
07FE000000
07FE000000
07FE01F000
07FE01F000
07FE01F000
07FE03F000
07FE03F000
07FFFFF000
07FFFFF000
07FFFFF000
07FFFFF000
07FE3FF000
07FE03F000
07FE03F000
07FE01F000
07FE01F000
07FE01F000
07FE000000
07FE000000
07FE000080
07FE0001F0
07FE0001F8
07FE0001F0
07FE0003F0
07FE0003F0
0FFE0007F0
0FFF001FE0
1FFF807FE0
FFFFFFFFE0
FFFFFFFFE0
FFFFFFFFE0
FFFFFFFFE0
ENDCHAR
STARTCHAR 011B
ENCODING 283
SWIDTH 510 0
DWIDTH 34 0
BBX 30 48 2 -1
BITMAP
070001E0
0F8003E0
0FE00FF0
07F81FC0
03FC7F80
01FFFF00
00FFFE00
007FFC00
003FF800
001FF000
001FE000
000FC000
00060000
00000000
00000000
00000000
001FF800
00FFFE00
01FFFF80
07FFFFC0
0FFC7FE0
1FF01FE0
1FF01FF0
3FE00FF0
3FE00FF8
7FC00FF8
7FC00FF8
7FC007F8
7FC007FC
FFFFFFFC
FFFFFFFC
FFFFFFF8
FFFFFFF8
FFFC0000
FFC00000
7FE00000
7FE00000
7FE00000
7FF00000
3FF00000
3FF80038
1FFE00F8
0FFFCFF8
0FFFFFF8
03FFFFE0
01FFFFC0
007FFE00
0001C000
ENDCHAR
STARTCHAR 011C
ENCODING 284
SWIDTH 705 0
DWIDTH 47 0
BBX 43 60 2 -1
BITMAP
000003C00000
00000FE00000
00001FF80000
00003FFC0000
00007FFE0000
0001FFFF0000
0003FDFF8000
000FF07FE000
000FC01FC000
000700078000
000000000000
000000000000
000000000000
000003E00000
0001FFFF8000
0007FFFFF800
001FFFFFFE00
007FFC7FFF00
00FFE007FE00
01FF8001FE00
03FF0000FE00
07FE0000FE00
0FFC00007E00
1FF800007E00
1FF800007E00
3FF000003E00
3FF000003E00
3FF000003800
7FF000000000
7FE000000000
7FE000000000
7FE000000000
7FE000000000
FFE000000000
FFE000000000
FFE000000000
FFE000000000
FFE0007FFFE0
FFE0007FFFE0
FFE0007FFFE0
7FE0007FFFC0
7FE00007FF80
7FF00003FF00
7FF00001FF00
7FF00001FE00
3FF00001FE00
3FF80001FE00
1FF80001FE00
1FFC0001FE00
0FFC0001FE00
0FFE0001FF00
07FF0001FF00
03FF8001FF00
01FFC003FF00
00FFF007FF00
007FFFFFFE00
001FFFFFF800
000FFFFFE000
0001FFFF0000
000003000000
ENDCHAR
STARTCHAR 011D
ENCODING 285
SWIDTH 540 0
DWIDTH 36 0
BBX 33 65 2 -17
BITMAP
0001C00000
0007E00000
000FF00000
001FF00000
003FF80000
007FFC0000
00FFFE0000
01FFFF0000
07F87F8000
0FE03FC000
1FC00FE000
1F0007F000
0E0001C000
0400000000
0000000000
0000000000
0000000000
007FFFFF00
03FFFFFF00
07FFFFFF80
0FFCFFFF80
1FF03FEF80
3FE01FE080
3FE01FF000
7FE00FF800
7FC00FF800
7FC00FF800
7FC00FF800
7FC00FF800
7FE00FF800
7FE00FF800
7FE00FF800
3FF01FF000
3FF01FF000
1FFE7FE000
0FFFFFC000
03FFFF8000
07FFFE0000
0FC7C00000
1F80000000
1F80000000
3F80000000
3FFC000000
3FFFFFE000
3FFFFFF800
3FFFFFFC00
3FFFFFFE00
1FFFFFFF00
1FFFFFFF00
07FFFFFF00
1FFFFFFF00
3F801FFF00
7F0001FF00
FF0000FF00
FF0000FE00
FF0000FE00
FF0001FC00
FF0001FC00
FF8007F800
7FE01FF000
7FFFFFE000
3FFFFF8000
1FFFFE0000
07FFF80000
001D000000
ENDCHAR
STARTCHAR 011E
ENCODING 286
SWIDTH 705 0
DWIDTH 47 0
BBX 43 59 2 -1
BITMAP
000FC003E000
000FC003C000
0007E007C000
0007F81FC000
0007FFFFC000
0003FFFF8000
0003FFFF0000
0001FFFE0000
00007FFC0000
00000FC00000
000000000000
000000000000
000003E00000
0001FFFF8000
0007FFFFF800
001FFFFFFE00
007FFC7FFF00
00FFE007FE00
01FF8001FE00
03FF0000FE00
07FE0000FE00
0FFC00007E00
1FF800007E00
1FF800007E00
3FF000003E00
3FF000003E00
3FF000003800
7FF000000000
7FE000000000
7FE000000000
7FE000000000
7FE000000000
FFE000000000
FFE000000000
FFE000000000
FFE000000000
FFE0007FFFE0
FFE0007FFFE0
FFE0007FFFE0
7FE0007FFFC0
7FE00007FF80
7FF00003FF00
7FF00001FF00
7FF00001FE00
3FF00001FE00
3FF80001FE00
1FF80001FE00
1FFC0001FE00
0FFC0001FE00
0FFE0001FF00
07FF0001FF00
03FF8001FF00
01FFC003FF00
00FFF007FF00
007FFFFFFE00
001FFFFFF800
000FFFFFE000
0001FFFF0000
000003000000
ENDCHAR
STARTCHAR 011F
ENCODING 287
SWIDTH 540 0
DWIDTH 36 0
BBX 33 64 2 -17
BITMAP
3E0001E000
3F0001E000
3F0003E000
1F8003E000
1FC007E000
1FF01FE000
0FFFFFC000
0FFFFFC000
07FFFF8000
03FFFF0000
01FFFC0000
003FF00000
0000000000
0000000000
0000000000
0000000000
007FFFFF00
03FFFFFF00
07FFFFFF80
0FFCFFFF80
1FF03FEF80
3FE01FE080
3FE01FF000
7FE00FF800
7FC00FF800
7FC00FF800
7FC00FF800
7FC00FF800
7FE00FF800
7FE00FF800
7FE00FF800
3FF01FF000
3FF01FF000
1FFE7FE000
0FFFFFC000
03FFFF8000
07FFFE0000
0FC7C00000
1F80000000
1F80000000
3F80000000
3FFC000000
3FFFFFE000
3FFFFFF800
3FFFFFFC00
3FFFFFFE00
1FFFFFFF00
1FFFFFFF00
07FFFFFF00
1FFFFFFF00
3F801FFF00
7F0001FF00
FF0000FF00
FF0000FE00
FF0000FE00
FF0001FC00
FF0001FC00
FF8007F800
7FE01FF000
7FFFFFE000
3FFFFF8000
1FFFFE0000
07FFF80000
001D000000
ENDCHAR
STARTCHAR 0120
ENCODING 288
SWIDTH 705 0
DWIDTH 47 0
BBX 43 58 2 -1
BITMAP
00000FE00000
00001FF00000
00003FF80000
00003FF80000
00003FF80000
00003FF80000
00003FF80000
00001FF00000
00000FE00000
000000000000
000000000000
000003E00000
0001FFFF8000
0007FFFFF800
001FFFFFFE00
007FFC7FFF00
00FFE007FE00
01FF8001FE00
03FF0000FE00
07FE0000FE00
0FFC00007E00
1FF800007E00
1FF800007E00
3FF000003E00
3FF000003E00
3FF000003800
7FF000000000
7FE000000000
7FE000000000
7FE000000000
7FE000000000
FFE000000000
FFE000000000
FFE000000000
FFE000000000
FFE0007FFFE0
FFE0007FFFE0
FFE0007FFFE0
7FE0007FFFC0
7FE00007FF80
7FF00003FF00
7FF00001FF00
7FF00001FE00
3FF00001FE00
3FF80001FE00
1FF80001FE00
1FFC0001FE00
0FFC0001FE00
0FFE0001FF00
07FF0001FF00
03FF8001FF00
01FFC003FF00
00FFF007FF00
007FFFFFFE00
001FFFFFF800
000FFFFFE000
0001FFFF0000
000003000000
ENDCHAR
STARTCHAR 0121
ENCODING 289
SWIDTH 540 0
DWIDTH 36 0
BBX 33 61 2 -17
BITMAP
001FE00000
003FF00000
003FF00000
007FF00000
007FF80000
007FF00000
003FF00000
003FE00000
000FC00000
0000000000
0000000000
0000000000
0000000000
007FFFFF00
03FFFFFF00
07FFFFFF80
0FFCFFFF80
1FF03FEF80
3FE01FE080
3FE01FF000
7FE00FF800
7FC00FF800
7FC00FF800
7FC00FF800
7FC00FF800
7FE00FF800
7FE00FF800
7FE00FF800
3FF01FF000
3FF01FF000
1FFE7FE000
0FFFFFC000
03FFFF8000
07FFFE0000
0FC7C00000
1F80000000
1F80000000
3F80000000
3FFC000000
3FFFFFE000
3FFFFFF800
3FFFFFFC00
3FFFFFFE00
1FFFFFFF00
1FFFFFFF00
07FFFFFF00
1FFFFFFF00
3F801FFF00
7F0001FF00
FF0000FF00
FF0000FE00
FF0000FE00
FF0001FC00
FF0001FC00
FF8007F800
7FE01FF000
7FFFFFE000
3FFFFF8000
1FFFFE0000
07FFF80000
001D000000
ENDCHAR
STARTCHAR 0122
ENCODING 290
SWIDTH 705 0
DWIDTH 47 0
BBX 43 66 2 -20
BITMAP
000003E00000
0001FFFF8000
0007FFFFF800
001FFFFFFE00
007FFC7FFF00
00FFE007FE00
01FF8001FE00
03FF0000FE00
07FE0000FE00
0FFC00007E00
1FF800007E00
1FF800007E00
3FF000003E00
3FF000003E00
3FF000003800
7FF000000000
7FE000000000
7FE000000000
7FE000000000
7FE000000000
FFE000000000
FFE000000000
FFE000000000
FFE000000000
FFE0007FFFE0
FFE0007FFFE0
FFE0007FFFE0
7FE0007FFFC0
7FE00007FF80
7FF00003FF00
7FF00001FF00
7FF00001FE00
3FF00001FE00
3FF80001FE00
1FF80001FE00
1FFC0001FE00
0FFC0001FE00
0FFE0001FF00
07FF0001FF00
03FF8001FF00
01FFC003FF00
00FFF007FF00
007FFFFFFE00
001FFFFFF800
000FFFFFE000
0001FFFF0000
000003000000
000000000000
000000000000
000000E00000
00000FF00000
00003FF00000
00003FF80000
00003FF80000
00003FF80000
00003FF80000
00000FF00000
000007F00000
000007F00000
000007E00000
000007E00000
00000FC00000
00000F800000
00001F000000
00003E000000
00001C000000
ENDCHAR
STARTCHAR 0123
ENCODING 291
SWIDTH 540 0
DWIDTH 36 0
BBX 33 65 2 -17
BITMAP
0003C00000
0007E00000
000FC00000
000F800000
001F800000
003F800000
003F800000
003FF00000
007FF00000
007FF00000
007FF00000
003FF00000
003FE00000
001E000000
0000000000
0000000000
0000000000
007FFFFF00
03FFFFFF00
07FFFFFF80
0FFCFFFF80
1FF03FEF80
3FE01FE080
3FE01FF000
7FE00FF800
7FC00FF800
7FC00FF800
7FC00FF800
7FC00FF800
7FE00FF800
7FE00FF800
7FE00FF800
3FF01FF000
3FF01FF000
1FFE7FE000
0FFFFFC000
03FFFF8000
07FFFE0000
0FC7C00000
1F80000000
1F80000000
3F80000000
3FFC000000
3FFFFFE000
3FFFFFF800
3FFFFFFC00
3FFFFFFE00
1FFFFFFF00
1FFFFFFF00
07FFFFFF00
1FFFFFFF00
3F801FFF00
7F0001FF00
FF0000FF00
FF0000FE00
FF0000FE00
FF0001FC00
FF0001FC00
FF8007F800
7FE01FF000
7FFFFFE000
3FFFFF8000
1FFFFE0000
07FFF80000
001D000000
ENDCHAR
STARTCHAR 0124
ENCODING 292
SWIDTH 765 0
DWIDTH 51 0
BBX 46 59 3 0
BITMAP
000007C00000
00000FE00000
00001FF00000
00007FF80000
0000FFFC0000
0001FFFF0000
0007FDFF8000
001FF07FC000
000FC01FC000
000700078000
000000000000
000000000000
000000000000
000000000000
FFFFF03FFFFC
FFFFF03FFFFC
FFFFF03FFFFC
FFFFE01FFFFC
1FFF8007FFE0
0FFF0003FFC0
0FFE0001FF80
07FE0001FF80
07FE0001FF80
07FE0001FF80
07FE0001FF80
07FE0001FF80
07FE0001FF80
07FE0001FF80
07FE0001FF80
07FE0001FF80
07FE0001FF80
07FE0001FF80
07FE0001FF80
07FE0001FF80
07FFFFFFFF80
07FFFFFFFF80
07FFFFFFFF80
07FFFFFFFF80
07FE0001FF80
07FE0001FF80
07FE0001FF80
07FE0001FF80
07FE0001FF80
07FE0001FF80
07FE0001FF80
07FE0001FF80
07FE0001FF80
07FE0001FF80
07FE0001FF80
07FE0001FF80
07FE0001FF80
07FE0001FF80
0FFE0001FFC0
0FFE0003FFC0
1FFF8007FFE0
FFFFE01FFFFC
FFFFF03FFFFC
FFFFF03FFFFC
FFFFF03FFFFC
ENDCHAR
STARTCHAR 0125
ENCODING 293
SWIDTH 645 0
DWIDTH 43 0
BBX 39 59 2 0
BITMAP
0000F80000
0001FC0000
0003FE0000
0007FF0000
001FFF8000
003FFFE000
00FFBFF000
01FE0FF800
01F803F800
00E000F000
0000000000
0008000000
00FC000000
FFFC000000
FFFC000000
FFFC000000
FFFC000000
3FFC000000
0FFC000000
0FFC000000
07FC000000
07FC000000
07FC000000
07FC000000
07FC000000
07FC000000
07FC000000
07FC000000
07FC03F000
07FC1FFE00
07FC7FFF00
07FCFFFF80
07FDFFFFC0
07FFFFFFC0
07FFC1FFE0
07FC00FFE0
07FC007FE0
07FC007FE0
07FC003FE0
07FC003FE0
07FC003FE0
07FC003FE0
07FC003FE0
07FC003FE0
07FC003FE0
07FC003FE0
07FC003FE0
07FC003FE0
07FC003FE0
07FC003FE0
07FC003FE0
07FC003FE0
0FFE003FF0
0FFE007FF0
1FFF00FFF8
FFFFC3FFFE
FFFFC3FFFE
FFFFE3FFFE
FFFFE3FFFE
ENDCHAR
STARTCHAR 0126
ENCODING 294
SWIDTH 765 0
DWIDTH 51 0
BBX 46 45 3 0
BITMAP
FFFFF03FFFFC
FFFFF03FFFFC
FFFFF03FFFFC
FFFFE01FFFFC
1FFF8007FFE0
0FFF0003FFC0
0FFE0001FF80
07FE0001FF80
07FE0001FF80
07FE0001FF80
07FE0001FF80
7FFFFFFFFFFC
FFFFFFFFFFFC
FFFFFFFFFFF8
FFFFFFFFFFF8
07FE0001FF80
07FE0001FF80
07FE0001FF80
07FE0001FF80
07FE0001FF80
07FFFFFFFF80
07FFFFFFFF80
07FFFFFFFF80
07FFFFFFFF80
07FE0001FF80
07FE0001FF80
07FE0001FF80
07FE0001FF80
07FE0001FF80
07FE0001FF80
07FE0001FF80
07FE0001FF80
07FE0001FF80
07FE0001FF80
07FE0001FF80
07FE0001FF80
07FE0001FF80
07FE0001FF80
0FFE0001FFC0
0FFE0003FFC0
1FFF8007FFE0
FFFFE01FFFFC
FFFFF03FFFFC
FFFFF03FFFFC
FFFFF03FFFFC
ENDCHAR
STARTCHAR 0127
ENCODING 295
SWIDTH 645 0
DWIDTH 43 0
BBX 41 48 0 0
BITMAP
000200000000
003F00000000
3FFF00000000
3FFF00000000
3FFF00000000
3FFF00000000
0FFF00000000
03FF00000000
03FF00000000
01FF00000000
01FF00000000
7FFFFE000000
7FFFFE000000
FFFFFC000000
FFFFFC000000
01FF00000000
01FF00000000
01FF00FC0000
01FF07FF8000
01FF1FFFC000
01FF3FFFE000
01FF7FFFF000
01FFFFFFF000
01FFF07FF800
01FF003FF800
01FF001FF800
01FF001FF800
01FF000FF800
01FF000FF800
01FF000FF800
01FF000FF800
01FF000FF800
01FF000FF800
01FF000FF800
01FF000FF800
01FF000FF800
01FF000FF800
01FF000FF800
01FF000FF800
01FF000FF800
01FF000FF800
03FF800FFC00
03FF801FFC00
07FFC03FFE00
3FFFF0FFFF80
3FFFF0FFFF80
3FFFF8FFFF80
3FFFF8FFFF80
ENDCHAR
STARTCHAR 0128
ENCODING 296
SWIDTH 375 0
DWIDTH 25 0
BBX 22 57 2 0
BITMAP
0FE030
1FF878
3FFFFC
7FFFF8
FFFFF8
FFFFF0
F07FE0
401FC0
000000
000000
000000
000000
7FFFF8
7FFFF8
7FFFF8
7FFFF0
0FFFC0
07FF80
07FF00
03FF00
03FF00
03FF00
03FF00
03FF00
03FF00
03FF00
03FF00
03FF00
03FF00
03FF00
03FF00
03FF00
03FF00
03FF00
03FF00
03FF00
03FF00
03FF00
03FF00
03FF00
03FF00
03FF00
03FF00
03FF00
03FF00
03FF00
03FF00
03FF00
03FF00
03FF00
07FF00
07FF00
0FFFC0
7FFFF0
7FFFF8
7FFFF8
7FFFF8
ENDCHAR
STARTCHAR 0129
ENCODING 297
SWIDTH 345 0
DWIDTH 23 0
BBX 23 45 0 0
BITMAP
01C000
07F00C
0FFC3E
1FFFFE
3FFFFC
7FFFFC
FFFFF8
FEFFF8
F01FF0
600FE0
000000
000000
000000
000000
000700
007F00
1FFF80
3FFF80
3FFF80
3FFF80
07FF80
01FF80
01FF80
01FF80
01FF80
01FF80
01FF80
01FF80
01FF80
01FF80
01FF80
01FF80
01FF80
01FF80
01FF80
01FF80
01FF80
01FF80
01FF80
01FF80
03FFC0
1FFFF8
3FFFF8
3FFFF8
3FFFF8
ENDCHAR
STARTCHAR 012A
ENCODING 298
SWIDTH 375 0
DWIDTH 25 0
BBX 21 54 2 0
BITMAP
FFFFF8
FFFFF8
FFFFF8
FFFC00
000000
000000
000000
000000
000000
7FFFF8
7FFFF8
7FFFF8
7FFFF0
0FFFC0
07FF80
07FF00
03FF00
03FF00
03FF00
03FF00
03FF00
03FF00
03FF00
03FF00
03FF00
03FF00
03FF00
03FF00
03FF00
03FF00
03FF00
03FF00
03FF00
03FF00
03FF00
03FF00
03FF00
03FF00
03FF00
03FF00
03FF00
03FF00
03FF00
03FF00
03FF00
03FF00
03FF00
07FF00
07FF00
0FFFC0
7FFFF0
7FFFF8
7FFFF8
7FFFF8
ENDCHAR
STARTCHAR 012B
ENCODING 299
SWIDTH 345 0
DWIDTH 23 0
BBX 19 42 2 0
BITMAP
FFFFC0
FFFFC0
FFFFC0
FFFFC0
000000
000000
000000
000000
000000
000000
000000
001C00
01FC00
7FFE00
FFFE00
FFFE00
FFFE00
1FFE00
07FE00
07FE00
07FE00
07FE00
07FE00
07FE00
07FE00
07FE00
07FE00
07FE00
07FE00
07FE00
07FE00
07FE00
07FE00
07FE00
07FE00
07FE00
07FE00
0FFF00
7FFFE0
FFFFE0
FFFFE0
FFFFE0
ENDCHAR
STARTCHAR 012C
ENCODING 300
SWIDTH 375 0
DWIDTH 25 0
BBX 21 58 2 0
BITMAP
780078
F80078
FC0078
7E00F8
7F83F0
7FFFF0
3FFFE0
3FFFE0
0FFFC0
07FF00
000000
000000
000000
7FFFF8
7FFFF8
7FFFF8
7FFFF0
0FFFC0
07FF80
07FF00
03FF00
03FF00
03FF00
03FF00
03FF00
03FF00
03FF00
03FF00
03FF00
03FF00
03FF00
03FF00
03FF00
03FF00
03FF00
03FF00
03FF00
03FF00
03FF00
03FF00
03FF00
03FF00
03FF00
03FF00
03FF00
03FF00
03FF00
03FF00
03FF00
03FF00
03FF00
07FF00
07FF00
0FFFC0
7FFFF0
7FFFF8
7FFFF8
7FFFF8
ENDCHAR
STARTCHAR 012D
ENCODING 301
SWIDTH 345 0
DWIDTH 23 0
BBX 21 47 1 0
BITMAP
F80078
F80078
F800F8
FC00F8
FE01F8
FF07F8
7FFFF0
7FFFF0
3FFFE0
3FFFC0
0FFF80
03FE00
000000
000000
000000
000000
000E00
00FE00
3FFF00
7FFF00
7FFF00
7FFF00
0FFF00
03FF00
03FF00
03FF00
03FF00
03FF00
03FF00
03FF00
03FF00
03FF00
03FF00
03FF00
03FF00
03FF00
03FF00
03FF00
03FF00
03FF00
03FF00
03FF00
07FF80
3FFFF0
7FFFF0
7FFFF0
7FFFF0
ENDCHAR
STARTCHAR 012E
ENCODING 302
SWIDTH 375 0
DWIDTH 25 0
BBX 20 62 3 -17
BITMAP
FFFFF0
FFFFF0
FFFFF0
FFFFE0
1FFF80
0FFF00
0FFE00
07FE00
07FE00
07FE00
07FE00
07FE00
07FE00
07FE00
07FE00
07FE00
07FE00
07FE00
07FE00
07FE00
07FE00
07FE00
07FE00
07FE00
07FE00
07FE00
07FE00
07FE00
07FE00
07FE00
07FE00
07FE00
07FE00
07FE00
07FE00
07FE00
07FE00
07FE00
0FFE00
0FFE00
1FFF80
FFFFE0
FFFFF0
FFFFF0
FFFFF0
00F800
03F000
0FE000
1FC000
1F8000
3F8000
7F8000
7F8000
7FC000
7FFB00
7FFF80
7FFF80
7FFF80
3FFF80
1FFC00
0FF000
00C000
ENDCHAR
STARTCHAR 012F
ENCODING 303
SWIDTH 345 0
DWIDTH 23 0
BBX 19 63 2 -17
BITMAP
03F800
07FC00
0FFE00
0FFE00
0FFE00
0FFE00
0FFE00
0FFC00
07F800
006000
000000
000000
000000
000000
000000
001C00
01FC00
7FFE00
FFFE00
FFFE00
FFFE00
1FFE00
07FE00
07FE00
07FE00
07FE00
07FE00
07FE00
07FE00
07FE00
07FE00
07FE00
07FE00
07FE00
07FE00
07FE00
07FE00
07FE00
07FE00
07FE00
07FE00
0FFF00
7FFFE0
FFFFE0
FFFFE0
FFFFE0
00FC00
03F000
07E000
0FC000
1FC000
3F8000
3F8000
7FC000
7FC000
7FF980
7FFF80
7FFF80
3FFF80
3FFF80
1FFC00
07F000
00C000
ENDCHAR
STARTCHAR 0130
ENCODING 304
SWIDTH 375 0
DWIDTH 25 0
BBX 20 57 3 0
BITMAP
03FC00
07FE00
0FFE00
0FFE00
0FFE00
0FFE00
0FFE00
07FC00
03F800
000000
000000
000000
FFFFF0
FFFFF0
FFFFF0
FFFFE0
1FFF80
0FFF00
0FFE00
07FE00
07FE00
07FE00
07FE00
07FE00
07FE00
07FE00
07FE00
07FE00
07FE00
07FE00
07FE00
07FE00
07FE00
07FE00
07FE00
07FE00
07FE00
07FE00
07FE00
07FE00
07FE00
07FE00
07FE00
07FE00
07FE00
07FE00
07FE00
07FE00
07FE00
07FE00
0FFE00
0FFE00
1FFF80
FFFFE0
FFFFF0
FFFFF0
FFFFF0
ENDCHAR
STARTCHAR 0131
ENCODING 305
SWIDTH 345 0
DWIDTH 23 0
BBX 19 31 2 0
BITMAP
001C00
01FC00
7FFE00
FFFE00
FFFE00
FFFE00
1FFE00
07FE00
07FE00
07FE00
07FE00
07FE00
07FE00
07FE00
07FE00
07FE00
07FE00
07FE00
07FE00
07FE00
07FE00
07FE00
07FE00
07FE00
07FE00
07FE00
0FFF00
7FFFE0
FFFFE0
FFFFE0
FFFFE0
ENDCHAR
STARTCHAR 0132
ENCODING 306
SWIDTH 690 0
DWIDTH 46 0
BBX 41 62 3 -17
BITMAP
FFFFF7FFFF80
FFFFF7FFFF80
FFFFF7FFFF80
FFFFE7FFFF00
1FFF80FFFC00
0FFF007FF800
0FFE007FF000
07FE003FF000
07FE003FF000
07FE003FF000
07FE003FF000
07FE003FF000
07FE003FF000
07FE003FF000
07FE003FF000
07FE003FF000
07FE003FF000
07FE003FF000
07FE003FF000
07FE003FF000
07FE003FF000
07FE003FF000
07FE003FF000
07FE003FF000
07FE003FF000
07FE003FF000
07FE003FF000
07FE003FF000
07FE003FF000
07FE003FF000
07FE003FF000
07FE003FF000
07FE003FF000
07FE003FF000
07FE003FF000
07FE003FF000
07FE003FF000
07FE003FF000
0FFE003FF000
0FFE003FF000
1FFF803FF000
FFFFE03FF000
FFFFF03FF000
FFFFF03FE000
FFFFF03FE000
0000003FE000
0000003FE000
0000007FE000
0000007FC000
0000007FC000
0000007FC000
000000FF8000
000000FF0000
000001FF0000
000003FE0000
000007FC0000
00000FF80000
00001FF00000
00001FC00000
00001F800000
00001E000000
000008000000
ENDCHAR
STARTCHAR 0133
ENCODING 307
SWIDTH 585 0
DWIDTH 39 0
BBX 34 63 2 -17
BITMAP
03F8007F00
07FC00FF80
0FFE01FFC0
0FFE01FFC0
0FFE01FFC0
0FFE01FFC0
0FFE01FFC0
0FFC01FF80
07F800FF00
0060000C00
0000000000
0000000000
0000000000
0000000000
0000000000
001C000380
01FC003F80
7FFE0FFFC0
FFFE1FFFC0
FFFE1FFFC0
FFFE1FFFC0
1FFE03FFC0
07FE00FFC0
07FE00FFC0
07FE00FFC0
07FE00FFC0
07FE00FFC0
07FE00FFC0
07FE00FFC0
07FE00FFC0
07FE00FFC0
07FE00FFC0
07FE00FFC0
07FE00FFC0
07FE00FFC0
07FE00FFC0
07FE00FFC0
07FE00FFC0
07FE00FFC0
07FE00FFC0
07FE00FFC0
0FFF00FFC0
7FFFE0FFC0
FFFFE0FFC0
FFFFE0FFC0
FFFFE0FF80
000000FF80
000000FF80
000000FF80
000000FF00
000001FF00
000001FE00
000001FE00
000003FC00
000003FC00
000007F800
00000FF000
00000FE000
00001FC000
00003F8000
00003F0000
00001C0000
0000080000
ENDCHAR
STARTCHAR 0134
ENCODING 308
SWIDTH 360 0
DWIDTH 24 0
BBX 22 75 0 -16
BITMAP
003E00
00FF00
01FF80
03FFC0
07FFE0
0FFFE0
1FDFF0
3F87F8
3F03FC
1C00F8
000040
000000
000000
3FFFFC
3FFFFC
3FFFFC
3FFFF8
07FFE0
03FFC0
01FF80
01FF80
01FF80
01FF80
01FF80
01FF80
01FF80
01FF80
01FF80
01FF80
01FF80
01FF80
01FF80
01FF80
01FF80
01FF80
01FF80
01FF80
01FF80
01FF80
01FF80
01FF80
01FF80
01FF80
01FF80
01FF80
01FF80
01FF80
01FF80
01FF80
01FF80
01FF80
01FF80
01FF80
01FF80
01FF80
01FF80
01FF00
01FF00
01FF00
01FF00
03FF00
03FE00
03FE00
03FE00
07FC00
07F800
0FF800
0FF000
1FE000
3FC000
FF8000
FE0000
FC0000
F00000
400000
ENDCHAR
STARTCHAR 0135
ENCODING 309
SWIDTH 300 0
DWIDTH 20 0
BBX 20 64 1 -17
BITMAP
003800
00F800
01FC00
03FE00
07FE00
0FFF00
0FFF80
1FFFC0
3F1FC0
7E0FE0
FC07F0
7803F0
3001E0
000000
000000
000000
000000
000E00
00FE00
3FFE00
7FFF00
7FFF00
7FFF00
0FFF00
07FF00
03FF00
03FF00
03FF00
03FF00
03FF00
03FF00
03FF00
03FF00
03FF00
03FF00
03FF00
03FF00
03FF00
03FF00
03FF00
03FF00
03FF00
03FF00
03FF00
03FF00
03FE00
03FE00
03FE00
03FE00
03FE00
03FE00
03FC00
07FC00
07F800
07F800
0FF000
0FF000
1FE000
3FC000
7F8000
FF0000
FE0000
FC0000
700000
ENDCHAR
STARTCHAR 0136
ENCODING 310
SWIDTH 720 0
DWIDTH 48 0
BBX 44 65 3 -20
BITMAP
FFFFF03FFFC0
FFFFF03FFFC0
FFFFF03FFF80
FFFFE03FFF80
1FFF800FFC00
0FFF000FF000
0FFE000FE000
07FE001F8000
07FE003F0000
07FE003E0000
07FE007C0000
07FE00FC0000
07FE01F80000
07FE03F00000
07FE07E00000
07FE0FC00000
07FE1F800000
07FE3F000000
07FE7E000000
07FEFF000000
07FFFF000000
07FFFF800000
07FFFFC00000
07FFFFE00000
07FFFFF00000
07FEFFF00000
07FE7FF80000
07FE3FFC0000
07FE1FFE0000
07FE1FFE0000
07FE0FFF0000
07FE07FF8000
07FE03FFC000
07FE03FFC000
07FE01FFE000
07FE00FFF000
07FE00FFF000
07FE007FF800
0FFE003FFC00
0FFE003FFF00
1FFF801FFFC0
FFFFE00FFFF0
FFFFF00FFFF0
FFFFF007FFF0
FFFFF007FFF0
000000000000
000000000000
000000000000
000003800000
00003FC00000
0000FFC00000
0000FFC00000
0000FFC00000
0000FFC00000
0000FFC00000
00003FC00000
00001FC00000
00001F800000
00001F800000
00001F000000
00003F000000
00007E000000
0000FC000000
0000F8000000
000070000000
ENDCHAR
STARTCHAR 0137
ENCODING 311
SWIDTH 600 0
DWIDTH 40 0
BBX 39 68 2 -20
BITMAP
0008000000
00FC000000
FFFC000000
FFFC000000
FFFC000000
FFFC000000
3FFC000000
0FFC000000
0FFC000000
07FC000000
07FC000000
07FC000000
07FC000000
07FC000000
07FC000000
07FC000000
07FC000000
07FC03FFF8
07FC03FFF8
07FC03FFF8
07FC03FFF8
07FC01FFF0
07FC00FF00
07FC00FC00
07FC01F800
07FC03F000
07FC07E000
07FC0FC000
07FC1F8000
07FC3F0000
07FCFF8000
07FDFF8000
07FDFFC000
07FCFFE000
07FC7FF000
07FC3FF800
07FC3FFC00
07FC1FFC00
07FC0FFE00
07FC07FF00
07FC03FF80
0FFE03FFC0
0FFE01FFE0
1FFF00FFF0
FFFFC07FFE
FFFFC07FFC
FFFFC03FFC
FFFFC01FFC
0000000000
0000000000
0000000000
00001C0000
0001FE0000
0007FE0000
0007FE0000
0007FE0000
0007FE0000
0007FE0000
0001FE0000
0000FE0000
0000FC0000
0000FC0000
0000F80000
0001F80000
0003F00000
0007E00000
0007C00000
0003800000
ENDCHAR
STARTCHAR 0138
ENCODING 312
SWIDTH 600 0
DWIDTH 40 0
BBX 38 32 2 -1
BITMAP
001C0FFFF0
01FC0FFFF0
7FFE0FFFF0
FFFE07FFE0
FFFE03FFC0
FFFE01FC00
1FFE03F800
07FE07F000
07FE0FC000
07FE1F8000
07FE3F0000
07FE7E0000
07FEFC0000
07FFFE0000
07FFFF0000
07FFFF8000
07FFFFC000
07FFFFE000
07FEFFF000
07FE7FF800
07FE3FFC00
07FE1FFC00
07FE0FFE00
07FE0FFF00
07FE07FF80
07FE03FFC0
0FFF01FFE0
7FFFC1FFFC
FFFFC0FFFC
FFFFE07FF8
FFFFE03FF8
0000002000
ENDCHAR
STARTCHAR 0139
ENCODING 313
SWIDTH 600 0
DWIDTH 40 0
BBX 36 59 3 0
BITMAP
000F000000
003FC00000
007F800000
007F000000
007F000000
00FE000000
00FC000000
01F8000000
01F0000000
01E0000000
0000000000
0000000000
0000000000
0000000000
FFFFF00000
FFFFF00000
FFFFF00000
FFFFE00000
1FFF800000
0FFE000000
0FFE000000
07FE000000
07FE000000
07FE000000
07FE000000
07FE000000
07FE000000
07FE000000
07FE000000
07FE000000
07FE000000
07FE000000
07FE000000
07FE000000
07FE000000
07FE000000
07FE000000
07FE000000
07FE000000
07FE000000
07FE000000
07FE000000
07FE000000
07FE000000
07FE000000
07FE000000
07FE000180
07FE0001E0
07FE0003F0
07FE0003F0
07FE0007F0
07FE0007E0
0FFE000FE0
0FFF001FE0
1FFF807FE0
FFFFFFFFE0
FFFFFFFFC0
FFFFFFFFC0
FFFFFFFFC0
ENDCHAR
STARTCHAR 013A
ENCODING 314
SWIDTH 330 0
DWIDTH 22 0
BBX 19 61 2 0
BITMAP
001F80
003FC0
007F80
007F00
00FE00
00FC00
01F800
01F800
03F000
01E000
000000
000000
000000
000800
00FC00
FFFC00
FFFC00
FFFC00
FFFC00
3FFC00
0FFC00
0FFC00
07FC00
07FC00
07FC00
07FC00
07FC00
07FC00
07FC00
07FC00
07FC00
07FC00
07FC00
07FC00
07FC00
07FC00
07FC00
07FC00
07FC00
07FC00
07FC00
07FC00
07FC00
07FC00
07FC00
07FC00
07FC00
07FC00
07FC00
07FC00
07FC00
07FC00
07FC00
07FC00
0FFE00
0FFE00
1FFF00
FFFFE0
FFFFE0
FFFFE0
FFFFE0
ENDCHAR
STARTCHAR 013B
ENCODING 315
SWIDTH 600 0
DWIDTH 40 0
BBX 36 65 3 -20
BITMAP
FFFFF00000
FFFFF00000
FFFFF00000
FFFFE00000
1FFF800000
0FFE000000
0FFE000000
07FE000000
07FE000000
07FE000000
07FE000000
07FE000000
07FE000000
07FE000000
07FE000000
07FE000000
07FE000000
07FE000000
07FE000000
07FE000000
07FE000000
07FE000000
07FE000000
07FE000000
07FE000000
07FE000000
07FE000000
07FE000000
07FE000000
07FE000000
07FE000000
07FE000000
07FE000180
07FE0001E0
07FE0003F0
07FE0003F0
07FE0007F0
07FE0007E0
0FFE000FE0
0FFF001FE0
1FFF807FE0
FFFFFFFFE0
FFFFFFFFC0
FFFFFFFFC0
FFFFFFFFC0
0000000000
0000000000
0000000000
0000380000
0003FC0000
000FFC0000
000FFE0000
000FFE0000
000FFE0000
000FFC0000
0003FC0000
0001FC0000
0001FC0000
0001F80000
0001F80000
0003F00000
0003E00000
0007C00000
000F800000
0007000000
ENDCHAR
STARTCHAR 013C
ENCODING 316
SWIDTH 330 0
DWIDTH 22 0
BBX 19 68 2 -20
BITMAP
000800
00FC00
FFFC00
FFFC00
FFFC00
FFFC00
3FFC00
0FFC00
0FFC00
07FC00
07FC00
07FC00
07FC00
07FC00
07FC00
07FC00
07FC00
07FC00
07FC00
07FC00
07FC00
07FC00
07FC00
07FC00
07FC00
07FC00
07FC00
07FC00
07FC00
07FC00
07FC00
07FC00
07FC00
07FC00
07FC00
07FC00
07FC00
07FC00
07FC00
07FC00
07FC00
0FFE00
0FFE00
1FFF00
FFFFE0
FFFFE0
FFFFE0
FFFFE0
000000
000000
000000
003800
03FC00
0FFC00
0FFC00
0FFE00
0FFC00
0FFC00
03FC00
01FC00
01FC00
01F800
01F800
03F000
03E000
07C000
0F8000
070000
ENDCHAR
STARTCHAR 013D
ENCODING 317
SWIDTH 600 0
DWIDTH 40 0
BBX 36 48 3 0
BITMAP
00000001C0
0000000FE0
0000007FE0
FFFFF07FE0
FFFFF07FF0
FFFFF07FF0
FFFFE07FF0
1FFF807FE0
0FFE001FE0
0FFE000FE0
07FE0007E0
07FE0007C0
07FE0007C0
07FE000FC0
07FE000F80
07FE001F00
07FE001F00
07FE003E00
07FE001C00
07FE000000
07FE000000
07FE000000
07FE000000
07FE000000
07FE000000
07FE000000
07FE000000
07FE000000
07FE000000
07FE000000
07FE000000
07FE000000
07FE000000
07FE000000
07FE000000
07FE000180
07FE0001E0
07FE0003F0
07FE0003F0
07FE0007F0
07FE0007E0
0FFE000FE0
0FFF001FE0
1FFF807FE0
FFFFFFFFE0
FFFFFFFFC0
FFFFFFFFC0
FFFFFFFFC0
ENDCHAR
STARTCHAR 013E
ENCODING 318
SWIDTH 480 0
DWIDTH 32 0
BBX 29 48 2 0
BITMAP
00080060
00FC07F0
FFFC1FF8
FFFC1FF8
FFFC1FF8
FFFC3FF8
3FFC3FF8
0FFC3FF8
0FFC07F8
07FC03F8
07FC03F0
07FC03F0
07FC03F0
07FC03E0
07FC07E0
07FC07C0
07FC0F80
07FC1F00
07FC0E00
07FC0000
07FC0000
07FC0000
07FC0000
07FC0000
07FC0000
07FC0000
07FC0000
07FC0000
07FC0000
07FC0000
07FC0000
07FC0000
07FC0000
07FC0000
07FC0000
07FC0000
07FC0000
07FC0000
07FC0000
07FC0000
07FC0000
0FFE0000
0FFE0000
1FFF0000
FFFFE000
FFFFE000
FFFFE000
FFFFE000
ENDCHAR
STARTCHAR 013F
ENCODING 319
SWIDTH 600 0
DWIDTH 40 0
BBX 36 45 3 0
BITMAP
FFFFF00000
FFFFF00000
FFFFF00000
FFFFE00000
1FFF800000
0FFE000000
0FFE000000
07FE000000
07FE000000
07FE000000
07FE000000
07FE000000
07FE000000
07FE000000
07FE000000
07FE000000
07FE000000
07FE001F80
07FE003FC0
07FE003FC0
07FE003FC0
07FE003FC0
07FE003FC0
07FE003F80
07FE001F00
07FE000000
07FE000000
07FE000000
07FE000000
07FE000000
07FE000000
07FE000000
07FE000180
07FE0001E0
07FE0003F0
07FE0003F0
07FE0007F0
07FE0007E0
0FFE000FE0
0FFF001FE0
1FFF807FE0
FFFFFFFFE0
FFFFFFFFC0
FFFFFFFFC0
FFFFFFFFC0
ENDCHAR
STARTCHAR 0140
ENCODING 320
SWIDTH 330 0
DWIDTH 22 0
BBX 25 48 2 0
BITMAP
00080000
00FC0000
FFFC0000
FFFC0000
FFFC0000
FFFC0000
3FFC0000
0FFC0000
0FFC0000
07FC0000
07FC0000
07FC0000
07FC0000
07FC0000
07FC0000
07FC0000
07FC0000
07FC0000
07FC0000
07FC0000
07FC0000
07FC3F00
07FC7F80
07FC7F80
07FC7F80
07FC7F80
07FC7F80
07FC3F00
07FC1E00
07FC0000
07FC0000
07FC0000
07FC0000
07FC0000
07FC0000
07FC0000
07FC0000
07FC0000
07FC0000
07FC0000
07FC0000
0FFE0000
0FFE0000
1FFF0000
FFFFE000
FFFFE000
FFFFE000
FFFFE000
ENDCHAR
STARTCHAR 0141
ENCODING 321
SWIDTH 600 0
DWIDTH 40 0
BBX 38 45 1 0
BITMAP
3FFFFC0000
3FFFFC0000
3FFFFC0000
3FFFF80000
07FFE00000
03FF800000
03FF800000
01FF800000
01FF800000
01FF800000
01FF800000
01FF800000
01FF800000
01FF800000
01FF800000
01FF8E0000
01FF9E0000
01FFFE0000
01FFFF0000
01FFFE0000
01FFF80000
01FFF00000
01FFC00000
03FF800000
0FFF800000
1FFF800000
7FFF800000
FFFF800000
FFFF800000
79FF800000
71FF800000
01FF800000
01FF800060
01FF800078
01FF8000FC
01FF8000FC
01FF8001FC
01FF8001F8
03FF8003F8
03FFC007F8
07FFE01FF8
3FFFFFFFF8
3FFFFFFFF0
3FFFFFFFF0
3FFFFFFFF0
ENDCHAR
STARTCHAR 0142
ENCODING 322
SWIDTH 330 0
DWIDTH 22 0
BBX 23 48 0 0
BITMAP
000200
003F00
3FFF00
3FFF00
3FFF00
3FFF00
0FFF00
03FF00
03FF00
01FF00
01FF00
01FF00
01FF00
01FF00
01FF00
01FF00
01FF00
01FF00
01FF0C
01FF3E
01FF7E
01FFFE
01FFFC
01FFF8
01FFE0
01FFC0
07FF00
0FFF00
3FFF00
7FFF00
FFFF00
FDFF00
79FF00
61FF00
01FF00
01FF00
01FF00
01FF00
01FF00
01FF00
01FF00
03FF80
03FF80
07FFC0
3FFFF8
3FFFF8
3FFFF8
3FFFF8
ENDCHAR
STARTCHAR 0143
ENCODING 323
SWIDTH 720 0
DWIDTH 48 0
BBX 44 60 2 -1
BITMAP
000000780000
000001FE0000
000003FC0000
000003F80000
000007F00000
000007E00000
00000FE00000
00000FC00000
00001F800000
00000F000000
000000000000
000000000000
000000000000
000000000000
FFFC0003FFF0
FFFE0003FFF0
FFFE0003FFF0
7FFF0003FFF0
0FFF80007F80
07FFC0003F80
03FFC0001F00
03FFE0001F00
03FFF0001F00
03FFF8001F00
03FFF8001F00
03FFFC001F00
03FFFE001F00
03DFFF001F00
03CFFF001F00
03CFFF801F00
03C7FFC01F00
03C3FFE01F00
03C1FFE01F00
03C1FFF01F00
03C0FFF81F00
03C07FFC1F00
03C03FFC1F00
03C03FFE1F00
03C01FFF1F00
03C00FFF9F00
03C007FF9F00
03C007FFDF00
03C003FFFF00
03C001FFFF00
03C000FFFF00
03C000FFFF00
03C0007FFF00
03C0003FFF00
03C0001FFF00
03C0001FFF00
07C0000FFF00
07C00007FF00
07E00003FF00
0FE00003FF00
1FF00001FF00
7FFE0000FF00
FFFE00007F00
FFFE00007F00
FFFE00003F00
000000001000
ENDCHAR
STARTCHAR 0144
ENCODING 324
SWIDTH 645 0
DWIDTH 43 0
BBX 40 48 2 0
BITMAP
000001FC00
000007FC00
000007F800
000007F000
00000FE000
00000FE000
00000FC000
00001F8000
00001F0000
00003F0000
00003E0000
00007C0000
00000C0000
0000000000
0000000000
0000000000
0000000000
001C01F000
01FC0FFE00
7FFE3FFF80
7FFC7FFFC0
FFFDFFFFC0
FFFFFFFFE0
1FFFC1FFE0
07FE007FE0
07FE007FF0
07FE003FF0
07FE003FF0
07FE003FF0
07FE003FF0
07FE003FF0
07FE003FF0
07FE003FF0
07FE003FF0
07FE003FF0
07FE003FF0
07FE003FF0
07FE003FF0
07FE003FF0
07FE003FF0
07FE003FF0
07FE003FF0
07FE007FF0
0FFF007FF8
7FFFE3FFFE
FFFFE3FFFF
FFFFE3FFFF
FFFFE3FFFF
ENDCHAR
STARTCHAR 0145
ENCODING 325
SWIDTH 720 0
DWIDTH 48 0
BBX 44 65 2 -20
BITMAP
FFFC0003FFF0
FFFE0003FFF0
FFFE0003FFF0
7FFF0003FFF0
0FFF80007F80
07FFC0003F80
03FFC0001F00
03FFE0001F00
03FFF0001F00
03FFF8001F00
03FFF8001F00
03FFFC001F00
03FFFE001F00
03DFFF001F00
03CFFF001F00
03CFFF801F00
03C7FFC01F00
03C3FFE01F00
03C1FFE01F00
03C1FFF01F00
03C0FFF81F00
03C07FFC1F00
03C03FFC1F00
03C03FFE1F00
03C01FFF1F00
03C00FFF9F00
03C007FF9F00
03C007FFDF00
03C003FFFF00
03C001FFFF00
03C000FFFF00
03C000FFFF00
03C0007FFF00
03C0003FFF00
03C0001FFF00
03C0001FFF00
07C0000FFF00
07C00007FF00
07E00003FF00
0FE00003FF00
1FF00001FF00
7FFE0000FF00
FFFE00007F00
FFFE00007F00
FFFE00003F00
000000001000
000000000000
000000000000
000000700000
000007F80000
00001FF80000
00001FF80000
00001FF80000
00001FF80000
00001FF80000
000007F80000
000003F80000
000003F00000
000003F00000
000003E00000
000007E00000
00000FC00000
00001F800000
00001F000000
00000E000000
ENDCHAR
STARTCHAR 0146
ENCODING 326
SWIDTH 645 0
DWIDTH 43 0
BBX 40 51 2 -20
BITMAP
001C01F000
01FC0FFE00
7FFE3FFF80
7FFC7FFFC0
FFFDFFFFC0
FFFFFFFFE0
1FFFC1FFE0
07FE007FE0
07FE007FF0
07FE003FF0
07FE003FF0
07FE003FF0
07FE003FF0
07FE003FF0
07FE003FF0
07FE003FF0
07FE003FF0
07FE003FF0
07FE003FF0
07FE003FF0
07FE003FF0
07FE003FF0
07FE003FF0
07FE003FF0
07FE003FF0
07FE007FF0
0FFF007FF8
7FFFE3FFFE
FFFFE3FFFF
FFFFE3FFFF
FFFFE3FFFF
0000000000
0000000000
0000000000
0000070000
00007F8000
0001FF8000
0001FF8000
0001FF8000
0001FF8000
0001FF8000
00007F8000
00003F8000
00003F0000
00003F0000
00003E0000
00007E0000
0000FC0000
0001F80000
0001F00000
0000E00000
ENDCHAR
STARTCHAR 0147
ENCODING 327
SWIDTH 720 0
DWIDTH 48 0
BBX 44 60 2 -1
BITMAP
000700030000
001F800F8000
003FE03F8000
000FF8FF8000
0007FFFE0000
0003FFF80000
0001FFF00000
00007FE00000
00003F800000
00001F000000
000000000000
000000000000
000000000000
000000000000
FFFC0003FFF0
FFFE0003FFF0
FFFE0003FFF0
7FFF0003FFF0
0FFF80007F80
07FFC0003F80
03FFC0001F00
03FFE0001F00
03FFF0001F00
03FFF8001F00
03FFF8001F00
03FFFC001F00
03FFFE001F00
03DFFF001F00
03CFFF001F00
03CFFF801F00
03C7FFC01F00
03C3FFE01F00
03C1FFE01F00
03C1FFF01F00
03C0FFF81F00
03C07FFC1F00
03C03FFC1F00
03C03FFE1F00
03C01FFF1F00
03C00FFF9F00
03C007FF9F00
03C007FFDF00
03C003FFFF00
03C001FFFF00
03C000FFFF00
03C000FFFF00
03C0007FFF00
03C0003FFF00
03C0001FFF00
03C0001FFF00
07C0000FFF00
07C00007FF00
07E00003FF00
0FE00003FF00
1FF00001FF00
7FFE0000FF00
FFFE00007F00
FFFE00007F00
FFFE00003F00
000000001000
ENDCHAR
STARTCHAR 0148
ENCODING 328
SWIDTH 645 0
DWIDTH 43 0
BBX 40 47 2 0
BITMAP
0078000E00
00FC003F00
00FF007F00
007F81FE00
003FE3FC00
001FFFF000
000FFFE000
0007FFC000
0003FF8000
0001FF0000
0000FE0000
00007C0000
0000200000
0000000000
0000000000
0000000000
001C01F000
01FC0FFE00
7FFE3FFF80
7FFC7FFFC0
FFFDFFFFC0
FFFFFFFFE0
1FFFC1FFE0
07FE007FE0
07FE007FF0
07FE003FF0
07FE003FF0
07FE003FF0
07FE003FF0
07FE003FF0
07FE003FF0
07FE003FF0
07FE003FF0
07FE003FF0
07FE003FF0
07FE003FF0
07FE003FF0
07FE003FF0
07FE003FF0
07FE003FF0
07FE003FF0
07FE007FF0
0FFF007FF8
7FFFE3FFFE
FFFFE3FFFF
FFFFE3FFFF
FFFFE3FFFF
ENDCHAR
STARTCHAR 0149
ENCODING 329
SWIDTH 840 0
DWIDTH 56 0
BBX 50 48 4 0
BITMAP
01C00000000000
1FE00000000000
7FE00000000000
7FE00000000000
7FE00000000000
7FE00000000000
7FE00000000000
7FE00000000000
1FE00000000000
0FE00000000000
0FE00000000000
0FC00000000000
0FC00000000000
0F800000000000
0F800000000000
1F000000000000
3F000000000000
3E0003007E0000
7C007F83FFC000
F81FFF8FFFE000
301FFF9FFFF000
001FFFBFFFF800
001FFFFFFFF800
0003FFF83FFC00
0001FF801FFC00
0001FF800FFC00
0000FF800FFC00
0000FF8007FC00
0000FF8007FC00
0000FF8007FC00
0000FF8007FC00
0000FF8007FC00
0000FF8007FC00
0000FF8007FC00
0000FF8007FC00
0000FF8007FC00
0000FF8007FC00
0000FF8007FC00
0000FF8007FC00
0000FF8007FC00
0000FF8007FC00
0001FF800FFE00
0001FFC00FFE00
0003FFE01FFF00
001FFFF87FFFC0
001FFFF87FFFC0
001FFFF8FFFFC0
001FFFFCFFFFC0
ENDCHAR
STARTCHAR 014A
ENCODING 330
SWIDTH 690 0
DWIDTH 46 0
BBX 40 63 3 -17
BITMAP
0008000000
007C03FF80
3FFE0FFFE0
FFFE3FFFF8
FFFE7FFFFC
FFFEFFFFFC
7FFFFFFFFE
0FFDF01FFE
0FFFE00FFF
07FFC007FF
07FF8007FF
07FF0003FF
07FF0003FF
07FF0003FF
07FE0003FF
07FE0003FF
07FE0003FF
07FE0003FF
07FE0003FF
07FE0003FF
07FE0003FF
07FE0003FF
07FE0003FF
07FE0003FF
07FE0003FF
07FE0003FF
07FE0003FF
07FE0003FF
07FE0003FF
07FE0003FF
07FE0003FF
07FE0003FF
07FE0003FF
07FE0003FF
07FE0003FF
07FE0003FF
07FE0003FF
07FE0003FF
07FE0003FF
0FFE0003FF
0FFF0003FF
1FFF8003FF
FFFFE003FF
FFFFF003FF
FFFFF003FF
FFFFF003FF
00000003FE
00000003FE
00000003FE
00000003FE
00000003FC
00000003FC
00000007F8
00000007F8
00001C1FF0
00003FFFF0
00003FFFE0
00003FFFC0
00003FFF80
00003FFF00
00001FFE00
00000FF800
0000008000
ENDCHAR
STARTCHAR 014B
ENCODING 331
SWIDTH 630 0
DWIDTH 42 0
BBX 36 48 2 -17
BITMAP
001C01F000
01FC0FFE00
7FFE3FFF00
7FFE7FFF80
FFFEFFFFC0
FFFFFFFFE0
1FFDF1FFE0
07FFC07FE0
07FF807FF0
07FF003FF0
07FF003FF0
07FE003FF0
07FE003FF0
07FE003FF0
07FE003FF0
07FE003FF0
07FE003FF0
07FE003FF0
07FE003FF0
07FE003FF0
07FE003FF0
07FE003FF0
07FE003FF0
07FE003FF0
07FE003FF0
07FE003FF0
0FFF003FF0
7FFFE03FF0
FFFFE03FF0
FFFFE03FE0
FFFFE03FE0
0000003FE0
0000003FE0
0000003FC0
0000003FC0
0000003FC0
0000003F80
0000007F80
000000FF00
0003C1FF00
0003FFFE00
0003FFFE00
0003FFFC00
0003FFF800
0003FFF000
0001FFE000
0000FF8000
0000080000
ENDCHAR
STARTCHAR 014C
ENCODING 332
SWIDTH 735 0
DWIDTH 49 0
BBX 45 55 2 -1
BITMAP
001FFFFFE000
003FFFFFE000
003FFFFFE000
003F80000000
000000000000
000000000000
000000000000
000000000000
000007800000
0001FFFE0000
0007FFFF8000
001FFFFFE000
007FFBFFF800
00FFC03FFC00
01FF000FFE00
03FE0007FF00
07FC0003FF80
0FFC0001FFC0
0FF80001FFC0
1FF00000FFE0
1FF000007FE0
3FF000007FF0
3FE000007FF0
7FE000003FF0
7FE000003FF8
7FE000003FF8
7FE000003FF8
7FE000001FF8
FFE000001FF8
FFE000001FF8
FFE000001FF8
FFE000001FF8
FFE000001FF8
FFE000001FF8
FFE000001FF8
7FE000001FF8
7FE000001FF8
7FF000001FF8
7FF000003FF0
7FF000003FF0
3FF000003FF0
3FF800003FE0
1FF800007FE0
1FFC00007FC0
0FFC0000FFC0
0FFE0000FF80
07FF0001FF00
03FF8003FF00
01FFC007FE00
00FFF00FFC00
007FFFFFF000
001FFFFFE000
0007FFFF8000
0001FFFC0000
000003000000
ENDCHAR
STARTCHAR 014D
ENCODING 333
SWIDTH 570 0
DWIDTH 38 0
BBX 34 43 2 -1
BITMAP
07FFFFF800
07FFFFF800
0FFFFFF800
0FFFC00000
0000000000
0000000000
0000000000
0000000000
0000000000
0000000000
0000000000
000FFE0000
007FFF8000
01FFFFE000
03FFFFF800
07FC1FFC00
0FF80FFE00
1FF007FE00
3FE003FF00
3FE003FF00
7FE001FF80
7FC001FF80
7FC001FF80
7FC000FFC0
FFC000FFC0
FFC000FFC0
FFC000FFC0
FFC000FFC0
FFC000FFC0
FFC000FFC0
7FE000FF80
7FE000FF80
7FE000FF80
7FF001FF00
3FF001FF00
3FF803FE00
1FF803FE00
0FFE07FC00
07FFFFF800
03FFFFF000
00FFFFC000
003FFF0000
0002C00000
ENDCHAR
STARTCHAR 014E
ENCODING 334
SWIDTH 735 0
DWIDTH 49 0
BBX 45 59 2 -1
BITMAP
000F8003C000
000FC007C000
000FC00FC000
000FF01FC000
0007FFFF8000
0007FFFF8000
0003FFFF0000
0001FFFE0000
0000FFF80000
00000FC00000
000000000000
000000000000
000007800000
0001FFFE0000
0007FFFF8000
001FFFFFE000
007FFBFFF800
00FFC03FFC00
01FF000FFE00
03FE0007FF00
07FC0003FF80
0FFC0001FFC0
0FF80001FFC0
1FF00000FFE0
1FF000007FE0
3FF000007FF0
3FE000007FF0
7FE000003FF0
7FE000003FF8
7FE000003FF8
7FE000003FF8
7FE000001FF8
FFE000001FF8
FFE000001FF8
FFE000001FF8
FFE000001FF8
FFE000001FF8
FFE000001FF8
FFE000001FF8
7FE000001FF8
7FE000001FF8
7FF000001FF8
7FF000003FF0
7FF000003FF0
3FF000003FF0
3FF800003FE0
1FF800007FE0
1FFC00007FC0
0FFC0000FFC0
0FFE0000FF80
07FF0001FF00
03FF8003FF00
01FFC007FE00
00FFF00FFC00
007FFFFFF000
001FFFFFE000
0007FFFF8000
0001FFFC0000
000003000000
ENDCHAR
STARTCHAR 014F
ENCODING 335
SWIDTH 570 0
DWIDTH 38 0
BBX 34 48 2 -1
BITMAP
0F80007800
0FC0007800
0FC000F800
0FE000F800
07F001F800
07FC07F000
07FFFFF000
03FFFFE000
01FFFFE000
00FFFFC000
007FFF0000
000FFC0000
0000000000
0000000000
0000000000
0000000000
000FFE0000
007FFF8000
01FFFFE000
03FFFFF800
07FC1FFC00
0FF80FFE00
1FF007FE00
3FE003FF00
3FE003FF00
7FE001FF80
7FC001FF80
7FC001FF80
7FC000FFC0
FFC000FFC0
FFC000FFC0
FFC000FFC0
FFC000FFC0
FFC000FFC0
FFC000FFC0
7FE000FF80
7FE000FF80
7FE000FF80
7FF001FF00
3FF001FF00
3FF803FE00
1FF803FE00
0FFE07FC00
07FFFFF800
03FFFFF000
00FFFFC000
003FFF0000
0002C00000
ENDCHAR
STARTCHAR 0150
ENCODING 336
SWIDTH 735 0
DWIDTH 49 0
BBX 45 60 2 -1
BITMAP
00001F81F800
00007F87F800
0000FF0FF000
0000FE0FE000
0001FC0FC000
0001FC1FC000
0001F81F8000
0003F03F0000
0003E03E0000
0001E01E0000
000000000000
000000000000
000000000000
000007800000
0001FFFE0000
0007FFFF8000
001FFFFFE000
007FFBFFF800
00FFC03FFC00
01FF000FFE00
03FE0007FF00
07FC0003FF80
0FFC0001FFC0
0FF80001FFC0
1FF00000FFE0
1FF000007FE0
3FF000007FF0
3FE000007FF0
7FE000003FF0
7FE000003FF8
7FE000003FF8
7FE000003FF8
7FE000001FF8
FFE000001FF8
FFE000001FF8
FFE000001FF8
FFE000001FF8
FFE000001FF8
FFE000001FF8
FFE000001FF8
7FE000001FF8
7FE000001FF8
7FF000001FF8
7FF000003FF0
7FF000003FF0
3FF000003FF0
3FF800003FE0
1FF800007FE0
1FFC00007FC0
0FFC0000FFC0
0FFE0000FF80
07FF0001FF00
03FF8003FF00
01FFC007FE00
00FFF00FFC00
007FFFFFF000
001FFFFFE000
0007FFFF8000
0001FFFC0000
000003000000
ENDCHAR
STARTCHAR 0151
ENCODING 337
SWIDTH 570 0
DWIDTH 38 0
BBX 34 49 2 -1
BITMAP
0007F87F80
001FF1FF00
001FE1FE00
001FC1FC00
003F81F800
003F83F800
003F03F000
007E07E000
007E07E000
00FC0FC000
00F80F8000
00F80F8000
0030030000
0000000000
0000000000
0000000000
0000000000
000FFE0000
007FFF8000
01FFFFE000
03FFFFF800
07FC1FFC00
0FF80FFE00
1FF007FE00
3FE003FF00
3FE003FF00
7FE001FF80
7FC001FF80
7FC001FF80
7FC000FFC0
FFC000FFC0
FFC000FFC0
FFC000FFC0
FFC000FFC0
FFC000FFC0
FFC000FFC0
7FE000FF80
7FE000FF80
7FE000FF80
7FF001FF00
3FF001FF00
3FF803FE00
1FF803FE00
0FFE07FC00
07FFFFF800
03FFFFF000
00FFFFC000
003FFF0000
0002C00000
ENDCHAR
STARTCHAR 0152
ENCODING 338
SWIDTH 990 0
DWIDTH 66 0
BBX 62 47 2 -1
BITMAP
000007E000000000
0001FFFFFFFFFFE0
000FFFFFFFFFFFE0
003FFFFFFFFFFFE0
007FFFFFFFFFFFE0
01FF807FF8003FE0
03FF001FFC000FF0
03FE000FFE0007F0
07FC0007FE0003F0
0FF80003FF0001F0
1FF80003FF0001F0
1FF00001FF8001F0
3FF00001FF8001E0
3FF00001FFC00000
3FE00000FFC00000
7FE00000FFC00000
7FE00000FFE03C00
7FE000007FE03C00
7FE000007FE03C00
7FE000007FE07C00
FFE000007FE0FC00
FFE000007FE7FC00
FFE000007FFFFC00
FFE000007FFFFC00
FFE000007FFFFC00
FFE000007FFFFC00
FFE000007FE0FC00
7FE000007FE07C00
7FE000007FE07C00
7FE000007FE03C00
7FE000007FC03C00
7FF00000FFC00000
3FF00000FFC00000
3FF00000FF800020
3FF80000FF80007C
1FF80001FF00007C
1FFC0001FF0000FC
0FFC0003FE0000FC
07FE0003FE0001FC
07FF0007FC0003F8
03FF800FF80007F8
01FFE03FF0001FF8
007FFFFFFFFFFFF8
003FFFFFFFFFFFF8
000FFFFFFFFFFFF8
0001FFFFFFFFFFF8
0000078000000000
ENDCHAR
STARTCHAR 0153
ENCODING 339
SWIDTH 825 0
DWIDTH 55 0
BBX 51 32 2 -1
BITMAP
001FFC007FC000
007FFF03FFF000
01FFFFC7FFFC00
07FFFFEFFFFE00
0FFC3FFFE1FF00
0FF01FFFC0FF00
1FF00FFF80FF80
3FE007FF807F80
3FE007FF807FC0
7FE003FF007FC0
7FC003FF003FC0
7FC003FF003FE0
7FC003FF003FE0
FFC003FFFFFFE0
FFC001FFFFFFE0
FFC001FFFFFFC0
FFC001FFFFFFC0
FFC001FFFF8000
FFC001FF000000
7FE001FF000000
7FE003FF800000
7FE003FF800000
7FE003FFC00000
3FF003FFC00000
3FF007FFE001C0
1FF807FFF803C0
0FFC0FFFFF3FC0
07FFFFFFFFFFC0
03FFFFCFFFFF00
01FFFF83FFFE00
003FFE00FFF800
0001E000060000
ENDCHAR
STARTCHAR 0154
ENCODING 340
SWIDTH 690 0
DWIDTH 46 0
BBX 43 60 3 -1
BITMAP
000007800000
00001FE00000
00003FC00000
00003F800000
00007F000000
00007E000000
0000FE000000
0000FC000000
0001F8000000
0001F0000000
000000000000
000000000000
000000000000
000000000000
FFFFFFF80000
FFFFFFFE0000
FFFFFFFF8000
FFFFFFFFC000
1FFE01FFE000
0FFE00FFF000
0FFE007FF800
07FE003FF800
07FE001FF800
07FE001FFC00
07FE001FFC00
07FE001FFC00
07FE001FFC00
07FE001FFC00
07FE001FFC00
07FE001FF800
07FE001FF800
07FE003FF800
07FE003FF000
07FE007FE000
07FE01FFE000
07FE07FFC000
07FFFFFF0000
07FFFFFE0000
07FFFFF00000
07FFFFF80000
07FE3FFC0000
07FE0FFE0000
07FE0FFE0000
07FE07FF0000
07FE03FF8000
07FE01FF8000
07FE01FFC000
07FE00FFC000
07FE00FFE000
07FE007FF000
07FE007FF000
07FE007FF800
0FFE003FF800
0FFE003FFC00
1FFF001FFF00
FFFFE01FFFE0
FFFFE00FFFE0
FFFFE00FFFC0
FFFFE007FFC0
000000040000
ENDCHAR
STARTCHAR 0155
ENCODING 341
SWIDTH 465 0
DWIDTH 31 0
BBX 28 48 2 0
BITMAP
00007F80
0000FF00
0000FF00
0001FE00
0001FC00
0001F800
0003F800
0003F000
0007E000
0007E000
0007C000
000F8000
00018000
00000000
00000000
00000000
00000000
001C0380
01FC1FF0
7FFC3FF0
7FFC7FF0
FFFCFFF0
FFFDFFF0
1FFDFFF0
07FBFFF0
07FF87F0
07FE03F0
07FE03F0
07FE03F0
07FE0000
07FE0000
07FE0000
07FE0000
07FE0000
07FE0000
07FE0000
07FE0000
07FE0000
07FE0000
07FE0000
07FE0000
07FF0000
0FFF0000
1FFFC000
7FFFF800
FFFFFC00
FFFFFC00
FFFFFC00
ENDCHAR
STARTCHAR 0156
ENCODING 342
SWIDTH 690 0
DWIDTH 46 0
BBX 43 65 3 -20
BITMAP
FFFFFFF80000
FFFFFFFE0000
FFFFFFFF8000
FFFFFFFFC000
1FFE01FFE000
0FFE00FFF000
0FFE007FF800
07FE003FF800
07FE001FF800
07FE001FFC00
07FE001FFC00
07FE001FFC00
07FE001FFC00
07FE001FFC00
07FE001FFC00
07FE001FF800
07FE001FF800
07FE003FF800
07FE003FF000
07FE007FE000
07FE01FFE000
07FE07FFC000
07FFFFFF0000
07FFFFFE0000
07FFFFF00000
07FFFFF80000
07FE3FFC0000
07FE0FFE0000
07FE0FFE0000
07FE07FF0000
07FE03FF8000
07FE01FF8000
07FE01FFC000
07FE00FFC000
07FE00FFE000
07FE007FF000
07FE007FF000
07FE007FF800
0FFE003FF800
0FFE003FFC00
1FFF001FFF00
FFFFE01FFFE0
FFFFE00FFFE0
FFFFE00FFFC0
FFFFE007FFC0
000000040000
000000000000
000000000000
000001C00000
00001FC00000
00007FE00000
00007FE00000
0000FFE00000
0000FFE00000
0000FFE00000
00001FE00000
00000FE00000
00000FC00000
00000FC00000
00001F800000
00001F000000
00003F000000
00007E000000
0000FC000000
000030000000
ENDCHAR
STARTCHAR 0157
ENCODING 343
SWIDTH 465 0
DWIDTH 31 0
BBX 28 51 2 -20
BITMAP
001C0380
01FC1FF0
7FFC3FF0
7FFC7FF0
FFFCFFF0
FFFDFFF0
1FFDFFF0
07FBFFF0
07FF87F0
07FE03F0
07FE03F0
07FE03F0
07FE0000
07FE0000
07FE0000
07FE0000
07FE0000
07FE0000
07FE0000
07FE0000
07FE0000
07FE0000
07FE0000
07FE0000
07FF0000
0FFF0000
1FFFC000
7FFFF800
FFFFFC00
FFFFFC00
FFFFFC00
00000000
00000000
00000000
000E0000
00FF0000
03FF0000
03FF0000
03FF0000
03FF0000
03FF0000
00FF0000
007F0000
007E0000
007E0000
007C0000
00FC0000
01F80000
03F00000
03E00000
01800000
ENDCHAR
STARTCHAR 0158
ENCODING 344
SWIDTH 690 0
DWIDTH 46 0
BBX 43 60 3 -1
BITMAP
007000300000
01FC00F80000
01FE03F80000
00FF8FF80000
007FFFE00000
003FFFC00000
001FFF000000
0007FE000000
0003FC000000
0001F0000000
000000000000
000000000000
000000000000
000000000000
FFFFFFF80000
FFFFFFFE0000
FFFFFFFF8000
FFFFFFFFC000
1FFE01FFE000
0FFE00FFF000
0FFE007FF800
07FE003FF800
07FE001FF800
07FE001FFC00
07FE001FFC00
07FE001FFC00
07FE001FFC00
07FE001FFC00
07FE001FFC00
07FE001FF800
07FE001FF800
07FE003FF800
07FE003FF000
07FE007FE000
07FE01FFE000
07FE07FFC000
07FFFFFF0000
07FFFFFE0000
07FFFFF00000
07FFFFF80000
07FE3FFC0000
07FE0FFE0000
07FE0FFE0000
07FE07FF0000
07FE03FF8000
07FE01FF8000
07FE01FFC000
07FE00FFC000
07FE00FFE000
07FE007FF000
07FE007FF000
07FE007FF800
0FFE003FF800
0FFE003FFC00
1FFF001FFF00
FFFFE01FFFE0
FFFFE00FFFE0
FFFFE00FFFC0
FFFFE007FFC0
000000040000
ENDCHAR
STARTCHAR 0159
ENCODING 345
SWIDTH 465 0
DWIDTH 31 0
BBX 28 47 2 0
BITMAP
0E0001C0
1F8007E0
1FC00FE0
0FF03FC0
07FCFF00
03FFFE00
01FFFC00
00FFF800
007FF000
003FE000
001FC000
000F8000
000C0000
00000000
00000000
00000000
001C0380
01FC1FF0
7FFC3FF0
7FFC7FF0
FFFCFFF0
FFFDFFF0
1FFDFFF0
07FBFFF0
07FF87F0
07FE03F0
07FE03F0
07FE03F0
07FE0000
07FE0000
07FE0000
07FE0000
07FE0000
07FE0000
07FE0000
07FE0000
07FE0000
07FE0000
07FE0000
07FE0000
07FF0000
0FFF0000
1FFFC000
7FFFF800
FFFFFC00
FFFFFC00
FFFFFC00
ENDCHAR
STARTCHAR 015A
ENCODING 346
SWIDTH 555 0
DWIDTH 37 0
BBX 32 60 3 -1
BITMAP
00003C00
0000FF00
0000FE00
0001FC00
0001FC00
0003F800
0003F000
0007E000
0007C000
0007C000
00000000
00000000
00000000
0007E000
007FFF00
01FFFFE0
07FFFFF0
0FFFFFF0
1FE01FF0
1FC00FF0
3FC007F8
3F8003F8
7F8003F8
7F8003F8
7F8001F8
7FC001F8
7FE001C0
7FF00000
7FF80000
7FFE0000
3FFF8000
3FFFE000
3FFFF800
1FFFFE00
0FFFFF80
07FFFFC0
03FFFFE0
01FFFFF0
00FFFFF8
003FFFFC
000FFFFE
0003FFFE
0000FFFE
00003FFF
00000FFF
7E0007FF
7E0003FF
7E0003FF
7E0001FF
7F0001FE
7F0001FE
7F0001FE
7F8003FC
FFC007FC
FFE01FF8
FFFFFFF0
3FFFFFE0
0FFFFF80
01FFFE00
000B8000
ENDCHAR
STARTCHAR 015B
ENCODING 347
SWIDTH 450 0
DWIDTH 30 0
BBX 25 49 3 -1
BITMAP
0003FC00
0007F800
0007F800
0007F000
000FE000
000FC000
001FC000
001F8000
001F0000
003F0000
003E0000
007C0000
000C0000
00000000
00000000
00000000
00000000
01FFE000
0FFFFC00
1FFFFE00
3FFFFE00
7FC1FE00
FF80FE00
FF007E00
FF007E00
FF803E00
FFC03C00
FFF00000
FFFC0000
7FFF0000
7FFFC000
3FFFF000
1FFFFC00
0FFFFE00
03FFFF00
007FFF80
001FFF80
7807FF80
F801FF80
F801FF80
FC00FF80
FC00FF80
FE01FF80
FF01FF00
FFFFFF00
FFFFFE00
FFFFF800
1FFFE000
007C0000
ENDCHAR
STARTCHAR 015C
ENCODING 348
SWIDTH 555 0
DWIDTH 37 0
BBX 32 60 3 -1
BITMAP
0003E000
0007F000
000FF800
003FFC00
007FFE00
01FFFF00
03FEFFC0
0FF83FE0
07E00FE0
078007C0
00000000
00000000
00000000
0007E000
007FFF00
01FFFFE0
07FFFFF0
0FFFFFF0
1FE01FF0
1FC00FF0
3FC007F8
3F8003F8
7F8003F8
7F8003F8
7F8001F8
7FC001F8
7FE001C0
7FF00000
7FF80000
7FFE0000
3FFF8000
3FFFE000
3FFFF800
1FFFFE00
0FFFFF80
07FFFFC0
03FFFFE0
01FFFFF0
00FFFFF8
003FFFFC
000FFFFE
0003FFFE
0000FFFE
00003FFF
00000FFF
7E0007FF
7E0003FF
7E0003FF
7E0001FF
7F0001FE
7F0001FE
7F0001FE
7F8003FC
FFC007FC
FFE01FF8
FFFFFFF0
3FFFFFE0
0FFFFF80
01FFFE00
000B8000
ENDCHAR
STARTCHAR 015D
ENCODING 349
SWIDTH 450 0
DWIDTH 30 0
BBX 25 49 3 -1
BITMAP
000E0000
003F0000
007F8000
00FFC000
01FFE000
03FFE000
07FFF000
0FFFF800
1FC3FC00
7F81FE00
FE007F80
F8003F80
70000E00
20000000
00000000
00000000
00000000
01FFE000
0FFFFC00
1FFFFE00
3FFFFE00
7FC1FE00
FF80FE00
FF007E00
FF007E00
FF803E00
FFC03C00
FFF00000
FFFC0000
7FFF0000
7FFFC000
3FFFF000
1FFFFC00
0FFFFE00
03FFFF00
007FFF80
001FFF80
7807FF80
F801FF80
F801FF80
FC00FF80
FC00FF80
FE01FF80
FF01FF00
FFFFFF00
FFFFFE00
FFFFF800
1FFFE000
007C0000
ENDCHAR
STARTCHAR 015E
ENCODING 350
SWIDTH 555 0
DWIDTH 37 0
BBX 32 62 3 -16
BITMAP
0007E000
007FFF00
01FFFFE0
07FFFFF0
0FFFFFF0
1FE01FF0
1FC00FF0
3FC007F8
3F8003F8
7F8003F8
7F8003F8
7F8001F8
7FC001F8
7FE001C0
7FF00000
7FF80000
7FFE0000
3FFF8000
3FFFE000
3FFFF800
1FFFFE00
0FFFFF80
07FFFFC0
03FFFFE0
01FFFFF0
00FFFFF8
003FFFFC
000FFFFE
0003FFFE
0000FFFE
00003FFF
00000FFF
7E0007FF
7E0003FF
7E0003FF
7E0001FF
7F0001FE
7F0001FE
7F0001FE
7F8003FC
FFC007FC
FFE01FF8
FFFFFFF0
3FFFFFE0
0FFFFF80
01FFFE00
0007C000
00078000
000F0000
001F8000
001FE000
001FF000
001FF800
0003F800
0001F800
0000FC00
0000F800
0000F800
0003F800
001FF000
001FC000
001F0000
ENDCHAR
STARTCHAR 015F
ENCODING 351
SWIDTH 450 0
DWIDTH 30 0
BBX 25 47 3 -16
BITMAP
01FFE000
0FFFFC00
1FFFFE00
3FFFFE00
7FC1FE00
FF80FE00
FF007E00
FF007E00
FF803E00
FFC03C00
FFF00000
FFFC0000
7FFF0000
7FFFC000
3FFFF000
1FFFFC00
0FFFFE00
03FFFF00
007FFF80
001FFF80
7807FF80
F801FF80
F801FF80
FC00FF80
FC00FF80
FE01FF80
FF01FF00
FFFFFF00
FFFFFE00
FFFFF800
1FFFE000
00FC0000
00780000
00F00000
01F80000
01FE0000
01FF0000
01FF8000
003F8000
001F8000
000FC000
000F8000
000F8000
003F8000
01FF0000
01FC0000
01F00000
ENDCHAR
STARTCHAR 0160
ENCODING 352
SWIDTH 555 0
DWIDTH 37 0
BBX 32 60 3 -1
BITMAP
03800180
07E007C0
0FF81FE0
07FE7FC0
03FFFF00
00FFFE00
007FFC00
003FF000
001FE000
000FC000
00000000
00000000
00000000
0007E000
007FFF00
01FFFFE0
07FFFFF0
0FFFFFF0
1FE01FF0
1FC00FF0
3FC007F8
3F8003F8
7F8003F8
7F8003F8
7F8001F8
7FC001F8
7FE001C0
7FF00000
7FF80000
7FFE0000
3FFF8000
3FFFE000
3FFFF800
1FFFFE00
0FFFFF80
07FFFFC0
03FFFFE0
01FFFFF0
00FFFFF8
003FFFFC
000FFFFE
0003FFFE
0000FFFE
00003FFF
00000FFF
7E0007FF
7E0003FF
7E0003FF
7E0001FF
7F0001FE
7F0001FE
7F0001FE
7F8003FC
FFC007FC
FFE01FF8
FFFFFFF0
3FFFFFE0
0FFFFF80
01FFFE00
000B8000
ENDCHAR
STARTCHAR 0161
ENCODING 353
SWIDTH 450 0
DWIDTH 30 0
BBX 25 48 3 -1
BITMAP
70000E00
FC003F00
FE007F00
7F81FE00
3FE7F800
1FFFF000
0FFFE000
07FFC000
03FF8000
01FF0000
00FE0000
007C0000
00300000
00000000
00000000
00000000
01FFE000
0FFFFC00
1FFFFE00
3FFFFE00
7FC1FE00
FF80FE00
FF007E00
FF007E00
FF803E00
FFC03C00
FFF00000
FFFC0000
7FFF0000
7FFFC000
3FFFF000
1FFFFC00
0FFFFE00
03FFFF00
007FFF80
001FFF80
7807FF80
F801FF80
F801FF80
FC00FF80
FC00FF80
FE01FF80
FF01FF00
FFFFFF00
FFFFFE00
FFFFF800
1FFFE000
007C0000
ENDCHAR
STARTCHAR 0162
ENCODING 354
SWIDTH 645 0
DWIDTH 43 0
BBX 40 61 2 -16
BITMAP
7FFFFFFFFE
7FFFFFFFFE
7FFFFFFFFE
7FFFFFFFFE
7FC1FF83FE
7F01FF80FE
7E01FF807E
FC01FF803E
FC01FF803F
FC01FF803F
F801FF803F
F801FF801F
0001FF8000
0001FF8000
0001FF8000
0001FF8000
0001FF8000
0001FF8000
0001FF8000
0001FF8000
0001FF8000
0001FF8000
0001FF8000
0001FF8000
0001FF8000
0001FF8000
0001FF8000
0001FF8000
0001FF8000
0001FF8000
0001FF8000
0001FF8000
0001FF8000
0001FF8000
0001FF8000
0001FF8000
0001FF8000
0001FF8000
0003FF8000
0003FFC000
000FFFE000
007FFFFE00
00FFFFFE00
00FFFFFE00
00FFFFFE00
0000780000
0000F00000
0001F00000
0001F80000
0003FE0000
0003FF0000
0001FF0000
00003F8000
00001F8000
00001F8000
00001F8000
00001F8000
00003F0000
0003FE0000
0003FC0000
0001F00000
ENDCHAR
STARTCHAR 0163
ENCODING 355
SWIDTH 375 0
DWIDTH 25 0
BBX 23 57 1 -16
BITMAP
001C00
007C00
01FC00
07FC00
07FC00
07FC00
07FC00
07FC00
07FC00
07FC00
07FC00
FFFFFC
FFFFFC
FFFFFC
FFFFFC
3FFFF0
07FC00
07FC00
07FC00
07FC00
07FC00
07FC00
07FC00
07FC00
07FC00
07FC00
07FC00
07FC00
07FC00
07FC00
07FC00
07FC00
07FC00
07FC00
07FE00
07FE00
07FF0C
03FFFE
03FFFE
01FFFC
007FF0
001F00
003C00
007C00
007E00
00FF80
00FFC0
007FC0
000FE0
0007E0
0007E0
0007E0
0007E0
000FC0
00FF80
00FF00
00FC00
ENDCHAR
STARTCHAR 0164
ENCODING 356
SWIDTH 645 0
DWIDTH 43 0
BBX 40 59 2 0
BITMAP
0038001800
007E007C00
00FF81FE00
007FE7FC00
003FFFF000
000FFFE000
0007FFC000
0003FF0000
0001FE0000
0000FC0000
0000000000
0000000000
0000000000
0000000000
7FFFFFFFFE
7FFFFFFFFE
7FFFFFFFFE
7FFFFFFFFE
7FC1FF83FE
7F01FF80FE
7E01FF807E
FC01FF803E
FC01FF803F
FC01FF803F
F801FF803F
F801FF801F
0001FF8000
0001FF8000
0001FF8000
0001FF8000
0001FF8000
0001FF8000
0001FF8000
0001FF8000
0001FF8000
0001FF8000
0001FF8000
0001FF8000
0001FF8000
0001FF8000
0001FF8000
0001FF8000
0001FF8000
0001FF8000
0001FF8000
0001FF8000
0001FF8000
0001FF8000
0001FF8000
0001FF8000
0001FF8000
0001FF8000
0003FF8000
0003FFC000
000FFFE000
007FFFFE00
00FFFFFE00
00FFFFFE00
00FFFFFE00
ENDCHAR
STARTCHAR 0165
ENCODING 357
SWIDTH 510 0
DWIDTH 34 0
BBX 34 49 1 -1
BITMAP
0000000380
0000001FC0
000000FFC0
000000FFC0
000000FFC0
000000FFC0
000000FFC0
001C00FFC0
007C003FC0
01FC001FC0
07FC000FC0
07FC000F80
07FC000F80
07FC001F00
07FC001F00
07FC003E00
07FC003E00
07FC007C00
FFFFFC3800
FFFFFC0000
FFFFFC0000
FFFFFC0000
3FFFF00000
07FC000000
07FC000000
07FC000000
07FC000000
07FC000000
07FC000000
07FC000000
07FC000000
07FC000000
07FC000000
07FC000000
07FC000000
07FC000000
07FC000000
07FC000000
07FC000000
07FC000000
07FC000000
07FE000000
07FE000000
07FF0C0000
03FFFE0000
03FFFE0000
01FFFC0000
007FF00000
0006000000
ENDCHAR
STARTCHAR 0166
ENCODING 358
SWIDTH 645 0
DWIDTH 43 0
BBX 40 45 2 0
BITMAP
7FFFFFFFFE
7FFFFFFFFE
7FFFFFFFFE
7FFFFFFFFE
7FC1FF83FE
7F01FF80FE
7E01FF807E
FC01FF803E
FC01FF803F
FC01FF803F
F801FF803F
F801FF801F
0001FF8000
0001FF8000
0001FF8000
0001FF8000
0001FF8000
0001FF8000
0001FF8000
0001FF8000
01FFFFFF80
01FFFFFF80
01FFFFFF80
01FFFFFF80
0001FF8000
0001FF8000
0001FF8000
0001FF8000
0001FF8000
0001FF8000
0001FF8000
0001FF8000
0001FF8000
0001FF8000
0001FF8000
0001FF8000
0001FF8000
0001FF8000
0003FF8000
0003FFC000
000FFFE000
007FFFFE00
00FFFFFE00
00FFFFFE00
00FFFFFE00
ENDCHAR
STARTCHAR 0167
ENCODING 359
SWIDTH 375 0
DWIDTH 25 0
BBX 24 42 0 -1
BITMAP
000E00
003E00
00FE00
03FE00
03FE00
03FE00
03FE00
03FE00
03FE00
03FE00
03FE00
7FFFFE
7FFFFE
7FFFFE
7FFFFE
1FFFF8
03FE00
03FE00
03FE00
03FE00
03FE00
03FE00
03FE00
FFFFF8
FFFFF8
FFFFF8
03FE00
03FE00
03FE00
03FE00
03FE00
03FE00
03FE00
03FE00
03FF00
03FF00
03FF86
01FFFF
01FFFF
00FFFE
003FF8
000300
ENDCHAR
STARTCHAR 0168
ENCODING 360
SWIDTH 675 0
DWIDTH 45 0
BBX 41 59 2 -1
BITMAP
00007C000000
0001FF80E000
0007FFE3F000
000FFFFFE000
001FFFFFE000
001FFFFFC000
000E07FF8000
000C01FE0000
000000380000
000000000000
000000000000
000000000000
000000000000
FFFFE00FFF80
FFFFE00FFF80
FFFFE00FFF80
FFFFE00FFF80
1FFF0003FE00
0FFE0001FC00
0FFE0000F800
07FE0000F800
07FE0000F800
07FE00007800
07FE00007800
07FE00007800
07FE00007800
07FE00007800
07FE00007800
07FE00007800
07FE00007800
07FE00007800
07FE00007800
07FE00007800
07FE00007800
07FE00007800
07FE00007800
07FE00007800
07FE00007800
07FE00007800
07FE00007800
07FE00007800
07FE00007800
07FE00007800
07FE00007800
07FE0000F800
07FE0000F800
07FE0000F800
07FE0000F000
07FF0000F000
07FF0001F000
03FF8001F000
03FF8003E000
01FFC007E000
01FFF01FC000
00FFFFFF8000
007FFFFF0000
001FFFFE0000
0007FFF80000
00002E000000
ENDCHAR
STARTCHAR 0169
ENCODING 361
SWIDTH 600 0
DWIDTH 40 0
BBX 38 45 1 -1
BITMAP
001FC00800
003FF01E00
00FFFC3E00
01FFFFFE00
03FFFFFC00
03FFFFF800
03C07FF000
01801FE000
0000078000
0000000000
0000000000
0000000000
0000000000
0000000000
0038000380
03F801FFC0
7FFC0FFFC0
FFFC0FFFC0
FFFC0FFFC0
FFFC0FFFC0
1FFC01FFC0
0FFC00FFC0
0FFC00FFC0
0FFC00FFC0
0FFC00FFC0
0FFC00FFC0
0FFC00FFC0
0FFC00FFC0
0FFC00FFC0
0FFC00FFC0
0FFC00FFC0
0FFC00FFC0
0FFC00FFC0
0FFC00FFC0
0FFC00FFC0
0FFC00FFC0
0FFC00FFC0
0FFE00FFC0
07FE00FFE0
07FF80FFFC
07FFFFFFFC
03FFFFFFFC
03FFFF7FFC
01FFFC7FF0
007FE07800
ENDCHAR
STARTCHAR 016A
ENCODING 362
SWIDTH 675 0
DWIDTH 45 0
BBX 41 55 2 -1
BITMAP
001FFFFFF000
001FFFFFF000
001FFFFFF000
001FC0000000
000000000000
000000000000
000000000000
000000000000
000000000000
FFFFE00FFF80
FFFFE00FFF80
FFFFE00FFF80
FFFFE00FFF80
1FFF0003FE00
0FFE0001FC00
0FFE0000F800
07FE0000F800
07FE0000F800
07FE00007800
07FE00007800
07FE00007800
07FE00007800
07FE00007800
07FE00007800
07FE00007800
07FE00007800
07FE00007800
07FE00007800
07FE00007800
07FE00007800
07FE00007800
07FE00007800
07FE00007800
07FE00007800
07FE00007800
07FE00007800
07FE00007800
07FE00007800
07FE00007800
07FE00007800
07FE0000F800
07FE0000F800
07FE0000F800
07FE0000F000
07FF0000F000
07FF0001F000
03FF8001F000
03FF8003E000
01FFC007E000
01FFF01FC000
00FFFFFF8000
007FFFFF0000
001FFFFE0000
0007FFF80000
00002E000000
ENDCHAR
STARTCHAR 016B
ENCODING 363
SWIDTH 600 0
DWIDTH 40 0
BBX 38 42 1 -1
BITMAP
01FFFFFE00
01FFFFFE00
01FFFFFE00
03FFF80000
0000000000
0000000000
0000000000
0000000000
0000000000
0000000000
0000000000
0038000380
03F801FFC0
7FFC0FFFC0
FFFC0FFFC0
FFFC0FFFC0
FFFC0FFFC0
1FFC01FFC0
0FFC00FFC0
0FFC00FFC0
0FFC00FFC0
0FFC00FFC0
0FFC00FFC0
0FFC00FFC0
0FFC00FFC0
0FFC00FFC0
0FFC00FFC0
0FFC00FFC0
0FFC00FFC0
0FFC00FFC0
0FFC00FFC0
0FFC00FFC0
0FFC00FFC0
0FFC00FFC0
0FFE00FFC0
07FE00FFE0
07FF80FFFC
07FFFFFFFC
03FFFFFFFC
03FFFF7FFC
01FFFC7FF0
007FE07800
ENDCHAR
STARTCHAR 016C
ENCODING 364
SWIDTH 675 0
DWIDTH 45 0
BBX 41 59 2 -1
BITMAP
0007C003E000
0007C003E000
0007E007C000
0007F81FC000
0007FFFFC000
0003FFFF8000
0003FFFF8000
0001FFFF0000
00007FFC0000
000007C00000
000000000000
000000000000
000000000000
FFFFE00FFF80
FFFFE00FFF80
FFFFE00FFF80
FFFFE00FFF80
1FFF0003FE00
0FFE0001FC00
0FFE0000F800
07FE0000F800
07FE0000F800
07FE00007800
07FE00007800
07FE00007800
07FE00007800
07FE00007800
07FE00007800
07FE00007800
07FE00007800
07FE00007800
07FE00007800
07FE00007800
07FE00007800
07FE00007800
07FE00007800
07FE00007800
07FE00007800
07FE00007800
07FE00007800
07FE00007800
07FE00007800
07FE00007800
07FE00007800
07FE0000F800
07FE0000F800
07FE0000F800
07FE0000F000
07FF0000F000
07FF0001F000
03FF8001F000
03FF8003E000
01FFC007E000
01FFF01FC000
00FFFFFF8000
007FFFFF0000
001FFFFE0000
0007FFF80000
00002E000000
ENDCHAR
STARTCHAR 016D
ENCODING 365
SWIDTH 600 0
DWIDTH 40 0
BBX 38 47 1 -1
BITMAP
03E0001E00
03F0001E00
03F0003E00
01F8003E00
01FC007E00
01FF01FE00
00FFFFFC00
00FFFFFC00
007FFFF800
003FFFF000
001FFFC000
0003FF0000
0000000000
0000000000
0000000000
0000000000
0038000380
03F801FFC0
7FFC0FFFC0
FFFC0FFFC0
FFFC0FFFC0
FFFC0FFFC0
1FFC01FFC0
0FFC00FFC0
0FFC00FFC0
0FFC00FFC0
0FFC00FFC0
0FFC00FFC0
0FFC00FFC0
0FFC00FFC0
0FFC00FFC0
0FFC00FFC0
0FFC00FFC0
0FFC00FFC0
0FFC00FFC0
0FFC00FFC0
0FFC00FFC0
0FFC00FFC0
0FFC00FFC0
0FFE00FFC0
07FE00FFE0
07FF80FFFC
07FFFFFFFC
03FFFFFFFC
03FFFF7FFC
01FFFC7FF0
007FE07800
ENDCHAR
STARTCHAR 016E
ENCODING 366
SWIDTH 675 0
DWIDTH 45 0
BBX 41 60 2 -1
BITMAP
00000FF00000
00003FF80000
00007C7C0000
0000F83E0000
0000F83E0000
0000F83E0000
0000F83E0000
0000FC3E0000
00007FFC0000
00003FF80000
00000FE00000
000000000000
000000000000
000000000000
FFFFE00FFF80
FFFFE00FFF80
FFFFE00FFF80
FFFFE00FFF80
1FFF0003FE00
0FFE0001FC00
0FFE0000F800
07FE0000F800
07FE0000F800
07FE00007800
07FE00007800
07FE00007800
07FE00007800
07FE00007800
07FE00007800
07FE00007800
07FE00007800
07FE00007800
07FE00007800
07FE00007800
07FE00007800
07FE00007800
07FE00007800
07FE00007800
07FE00007800
07FE00007800
07FE00007800
07FE00007800
07FE00007800
07FE00007800
07FE00007800
07FE0000F800
07FE0000F800
07FE0000F800
07FE0000F000
07FF0000F000
07FF0001F000
03FF8001F000
03FF8003E000
01FFC007E000
01FFF01FC000
00FFFFFF8000
007FFFFF0000
001FFFFE0000
0007FFF80000
00002E000000
ENDCHAR
STARTCHAR 016F
ENCODING 367
SWIDTH 600 0
DWIDTH 40 0
BBX 38 48 1 -1
BITMAP
0000FC0000
0003FF0000
0007FFC000
000F8FC000
001F87E000
001F07E000
001F03E000
001F03E000
001F87E000
000FC7C000
000FFF8000
0007FF0000
0001FE0000
0000000000
0000000000
0000000000
0000000000
0038000380
03F801FFC0
7FFC0FFFC0
FFFC0FFFC0
FFFC0FFFC0
FFFC0FFFC0
1FFC01FFC0
0FFC00FFC0
0FFC00FFC0
0FFC00FFC0
0FFC00FFC0
0FFC00FFC0
0FFC00FFC0
0FFC00FFC0
0FFC00FFC0
0FFC00FFC0
0FFC00FFC0
0FFC00FFC0
0FFC00FFC0
0FFC00FFC0
0FFC00FFC0
0FFC00FFC0
0FFC00FFC0
0FFE00FFC0
07FE00FFE0
07FF80FFFC
07FFFFFFFC
03FFFFFFFC
03FFFF7FFC
01FFFC7FF0
007FE07800
ENDCHAR
STARTCHAR 0170
ENCODING 368
SWIDTH 675 0
DWIDTH 45 0
BBX 41 60 2 -1
BITMAP
00000F80F800
00007FC7FC00
00007F87F800
00007F07F000
0000FE0FE000
0000FC0FC000
0001F81F8000
0001F81F8000
0003F03F0000
0000E00E0000
000000000000
000000000000
000000000000
000000000000
FFFFE00FFF80
FFFFE00FFF80
FFFFE00FFF80
FFFFE00FFF80
1FFF0003FE00
0FFE0001FC00
0FFE0000F800
07FE0000F800
07FE0000F800
07FE00007800
07FE00007800
07FE00007800
07FE00007800
07FE00007800
07FE00007800
07FE00007800
07FE00007800
07FE00007800
07FE00007800
07FE00007800
07FE00007800
07FE00007800
07FE00007800
07FE00007800
07FE00007800
07FE00007800
07FE00007800
07FE00007800
07FE00007800
07FE00007800
07FE00007800
07FE0000F800
07FE0000F800
07FE0000F800
07FE0000F000
07FF0000F000
07FF0001F000
03FF8001F000
03FF8003E000
01FFC007E000
01FFF01FC000
00FFFFFF8000
007FFFFF0000
001FFFFE0000
0007FFF80000
00002E000000
ENDCHAR
STARTCHAR 0171
ENCODING 369
SWIDTH 600 0
DWIDTH 40 0
BBX 38 48 1 -1
BITMAP
0001FE1FE0
0007FC3FC0
0007F87F80
0007F07F00
0007E07F00
000FE0FE00
000FC0FC00
001F81F800
001F81F800
003F01F000
003E03E000
003E03E000
000C004000
0000000000
0000000000
0000000000
0000000000
0038000380
03F801FFC0
7FFC0FFFC0
FFFC0FFFC0
FFFC0FFFC0
FFFC0FFFC0
1FFC01FFC0
0FFC00FFC0
0FFC00FFC0
0FFC00FFC0
0FFC00FFC0
0FFC00FFC0
0FFC00FFC0
0FFC00FFC0
0FFC00FFC0
0FFC00FFC0
0FFC00FFC0
0FFC00FFC0
0FFC00FFC0
0FFC00FFC0
0FFC00FFC0
0FFC00FFC0
0FFC00FFC0
0FFE00FFC0
07FE00FFE0
07FF80FFFC
07FFFFFFFC
03FFFFFFFC
03FFFF7FFC
01FFFC7FF0
007FE07800
ENDCHAR
STARTCHAR 0172
ENCODING 370
SWIDTH 675 0
DWIDTH 45 0
BBX 41 62 2 -17
BITMAP
FFFFE00FFF80
FFFFE00FFF80
FFFFE00FFF80
FFFFE00FFF80
1FFF0003FE00
0FFE0001FC00
0FFE0000F800
07FE0000F800
07FE0000F800
07FE00007800
07FE00007800
07FE00007800
07FE00007800
07FE00007800
07FE00007800
07FE00007800
07FE00007800
07FE00007800
07FE00007800
07FE00007800
07FE00007800
07FE00007800
07FE00007800
07FE00007800
07FE00007800
07FE00007800
07FE00007800
07FE00007800
07FE00007800
07FE00007800
07FE00007800
07FE0000F800
07FE0000F800
07FE0000F800
07FE0000F000
07FF0000F000
07FF0001F000
03FF8001F000
03FF8003E000
01FFC007E000
01FFF01FC000
00FFFFFF8000
007FFFFF0000
001FFFFE0000
0007FFFC0000
00002FF00000
000003E00000
000007E00000
00000FC00000
00001FC00000
00003FC00000
00003FC00000
00003FC00000
00003FE00000
00003FF98000
00003FFF8000
00003FFFC000
00003FFFC000
00001FFFC000
00000FFE0000
000007F00000
000000600000
ENDCHAR
STARTCHAR 0173
ENCODING 371
SWIDTH 600 0
DWIDTH 40 0
BBX 38 48 1 -17
BITMAP
0038000380
03F801FFC0
7FFC0FFFC0
FFFC0FFFC0
FFFC0FFFC0
FFFC0FFFC0
1FFC01FFC0
0FFC00FFC0
0FFC00FFC0
0FFC00FFC0
0FFC00FFC0
0FFC00FFC0
0FFC00FFC0
0FFC00FFC0
0FFC00FFC0
0FFC00FFC0
0FFC00FFC0
0FFC00FFC0
0FFC00FFC0
0FFC00FFC0
0FFC00FFC0
0FFC00FFC0
0FFC00FFC0
0FFE00FFC0
07FE00FFE0
07FF80FFFC
07FFFFFFFC
03FFFFFFFC
03FFFF7FFC
01FFFC7FF8
007FE07FC0
0000001F80
0000003E00
000000FE00
000000FC00
000001FC00
000003FC00
000003FC00
000003FC00
000007FE00
000007FF98
000007FFF8
000003FFF8
000003FFFC
000001FFF8
000000FFE0
0000007F00
0000000600
ENDCHAR
STARTCHAR 0174
ENCODING 372
SWIDTH 990 0
DWIDTH 66 0
BBX 64 60 1 -1
BITMAP
000000007C000000
00000000FE000000
00000003FF000000
00000007FF800000
0000000FFFC00000
0000003FFFE00000
0000007FFFF80000
000001FF07FC0000
000001FC03FC0000
000000F000F00000
0000000000000000
0000000000000000
0000000000000000
0000000008000000
FFFFE000F8003FFF
FFFFE000FC003FFF
FFFFE000FC003FFF
FFFFE001FC003FFF
3FFF0001FE0007FC
1FFE0001FE0003F8
0FFE0003FF0001F8
0FFE0003FF0001F0
07FE0003FF0001F0
07FF0007FF8001E0
07FF0007FF8001E0
03FF000FFF8003E0
03FF800FFFC003C0
03FF800FFFC003C0
01FF801FFFE003C0
01FFC01EFFE00780
01FFC01EFFE00780
01FFC03E7FF00780
00FFE03C7FF00F00
00FFE03C3FF00F00
00FFE07C3FF80F00
007FE0783FF81F00
007FF0781FFC1E00
007FF0F81FFC1E00
003FF0F01FFC3E00
003FF8F00FFE3C00
003FF9F00FFE3C00
001FF9E007FE3C00
001FFDE007FF7800
001FFFE007FF7800
000FFFC003FF7800
000FFFC003FFF000
000FFFC003FFF000
0007FF8001FFF000
0007FF8001FFF000
0007FF8000FFE000
0003FF0000FFE000
0003FF0000FFE000
0003FF00007FC000
0003FE00007FC000
0001FE00007FC000
0001FE00003F8000
0001FC00003F8000
0000FC00001F8000
0000F800001F8000
0000800000180000
ENDCHAR
STARTCHAR 0175
ENCODING 373
SWIDTH 780 0
DWIDTH 52 0
BBX 51 49 1 -1
BITMAP
0000000E000000
0000003F000000
0000007F000000
000000FF800000
000001FFC00000
000003FFE00000
000007FFF00000
00001FFFF80000
00003FC7FC0000
00007F01FE0000
0000FE007F0000
0000F8003F0000
000070001E0000
00000000000000
00000000000000
00000000000000
00000000000000
FFFF801C03FFE0
FFFF803E03FFE0
FFFF807E03FFC0
FFFF807F01FFC0
7FFF00FF01FF80
1FFC00FF007F00
1FFC00FF803E00
0FFC01FF803E00
0FFE01FFC03C00
07FE03FFC03C00
07FE03FFC07C00
07FF03FFE07800
03FF07FFE07800
03FF07FFF0F800
01FF8FBFF0F000
01FF8F9FF0F000
01FF8F1FF8F000
00FF9F1FF9E000
00FFDE0FFDE000
00FFFE0FFDE000
007FFC07FFC000
007FFC07FFC000
007FFC03FFC000
003FF803FF8000
003FF803FF8000
003FF001FF8000
001FF001FF0000
001FE000FF0000
001FE000FF0000
000FE000FE0000
000FC0007E0000
000F0000780000
ENDCHAR
STARTCHAR 0176
ENCODING 374
SWIDTH 630 0
DWIDTH 42 0
BBX 40 59 1 0
BITMAP
000007C000
00000FE000
00001FF000
00007FF800
0000FFFC00
0001FFFF00
0007FDFF80
000FF07FC0
000FC01FC0
0007000780
0000000000
0000000000
0000000000
0000000000
FFFFE01FFF
FFFFE01FFF
FFFFE00FFF
7FFFE00FFF
1FFF8003FC
0FFF0001F8
07FF8001F0
07FF8001E0
03FF8003E0
03FFC003C0
01FFC007C0
01FFC00780
00FFE00F80
00FFE00F00
007FF01F00
007FF01E00
003FF81E00
003FF83C00
001FFC3C00
001FFC7800
000FFC7800
000FFEF800
0007FEF000
0007FFF000
0003FFE000
0003FFE000
0001FFC000
0001FFC000
0001FF8000
0001FF8000
0001FF8000
0001FF8000
0001FF8000
0001FF8000
0001FF8000
0001FF8000
0001FF8000
0001FFC000
0001FFC000
0003FFC000
0007FFF000
007FFFFE00
007FFFFF00
007FFFFF00
007FFFFF00
ENDCHAR
STARTCHAR 0177
ENCODING 375
SWIDTH 555 0
DWIDTH 37 0
BBX 36 65 1 -17
BITMAP
0000060000
00001F0000
00003F8000
00007FC000
0000FFE000
0003FFF000
0007FFF800
000FFFFC00
001FC3FE00
003F80FF00
00FE007F80
007C001F80
0070000F00
0000000000
0000000000
0000000000
0000000000
FFFFE3FFF0
FFFFE3FFE0
FFFFE1FFE0
FFFFE1FFE0
7FFFC1FFE0
1FFE003F80
0FFE003F00
0FFE003E00
07FE003E00
07FF003C00
03FF007C00
03FF807800
01FF807800
01FFC0F800
00FFC0F000
00FFC1F000
007FE1E000
007FE1E000
003FF3E000
003FF3C000
003FF7C000
001FFF8000
001FFF8000
000FFF0000
000FFF0000
0007FF0000
0007FE0000
0003FE0000
0003FC0000
0003FC0000
0001FC0000
0001F80000
0000F80000
0000F00000
0001F00000
0001E00000
0003E00000
0003C00000
0007C00000
383F800000
3FFF800000
7FFF000000
7FFF000000
7FFE000000
7FFC000000
3FF8000000
1FF0000000
0180000000
ENDCHAR
STARTCHAR 0178
ENCODING 376
SWIDTH 630 0
DWIDTH 42 0
BBX 40 58 1 0
BITMAP
0003800700
000FE01FC0
001FF03FE0
001FF03FF0
003FF87FF0
003FF87FF0
001FF03FF0
001FF03FE0
000FE01FC0
0001800300
0000000000
0000000000
0000000000
FFFFE01FFF
FFFFE01FFF
FFFFE00FFF
7FFFE00FFF
1FFF8003FC
0FFF0001F8
07FF8001F0
07FF8001E0
03FF8003E0
03FFC003C0
01FFC007C0
01FFC00780
00FFE00F80
00FFE00F00
007FF01F00
007FF01E00
003FF81E00
003FF83C00
001FFC3C00
001FFC7800
000FFC7800
000FFEF800
0007FEF000
0007FFF000
0003FFE000
0003FFE000
0001FFC000
0001FFC000
0001FF8000
0001FF8000
0001FF8000
0001FF8000
0001FF8000
0001FF8000
0001FF8000
0001FF8000
0001FF8000
0001FFC000
0001FFC000
0003FFC000
0007FFF000
007FFFFE00
007FFFFF00
007FFFFF00
007FFFFF00
ENDCHAR
STARTCHAR 0179
ENCODING 377
SWIDTH 600 0
DWIDTH 40 0
BBX 34 59 3 0
BITMAP
00000FC000
00003FE000
00003F8000
00007F8000
00007F0000
0000FE0000
0000FC0000
0001F80000
0001F00000
0001F00000
0000000000
0000000000
0000000000
0000000000
1FFFFFFF80
3FFFFFFF80
1FFFFFFF80
3FFFFFFF80
3FE007FF80
3FC007FF00
3F800FFF00
3F000FFE00
3F001FFE00
3F003FFC00
3E003FFC00
7E007FF800
3E007FF800
0000FFF000
0000FFF000
0001FFE000
0001FFC000
0003FFC000
0007FF8000
0007FF8000
000FFF0000
000FFF0000
001FFE0000
001FFC0000
003FFC0000
007FF80000
007FF80000
00FFF00000
00FFF00000
01FFE00000
03FFC00000
03FFC00000
07FF800600
07FF8007C0
0FFF000FC0
0FFE000FC0
1FFE000FC0
3FFC001FC0
3FFC001FC0
7FF8003F80
7FF001FF80
FFFFFFFF80
FFFFFFFF80
FFFFFFFF80
FFFFFFFF80
ENDCHAR
STARTCHAR 017A
ENCODING 378
SWIDTH 510 0
DWIDTH 34 0
BBX 29 48 3 0
BITMAP
0000FF00
0001FE00
0001FE00
0001FC00
0003F800
0003F000
0007F000
0007E000
0007C000
000FC000
000F8000
001F0000
00030000
00000000
00000000
00000000
00000000
7FFFFFE0
7FFFFFE0
7FFFFFF0
7FFFFFF0
7FF0FFE0
7F01FFE0
7E01FFC0
7E03FF80
7C07FF80
7C07FF00
7C0FFE00
001FFE00
001FFC00
003FF800
007FF800
007FF000
00FFE000
01FFC000
03FFC000
03FF81C0
07FF01F0
0FFF01F0
0FFE01F0
1FFC01F0
3FF803F0
7FF803F0
7FF00FF8
FFFFFFF8
FFFFFFF8
FFFFFFF8
7FFFFFF0
ENDCHAR
STARTCHAR 017B
ENCODING 379
SWIDTH 600 0
DWIDTH 40 0
BBX 34 57 3 0
BITMAP
0003FC0000
0007FE0000
0007FE0000
000FFF0000
000FFF0000
000FFE0000
0007FE0000
0007FC0000
0001F80000
0000000000
0000000000
0000000000
1FFFFFFF80
3FFFFFFF80
1FFFFFFF80
3FFFFFFF80
3FE007FF80
3FC007FF00
3F800FFF00
3F000FFE00
3F001FFE00
3F003FFC00
3E003FFC00
7E007FF800
3E007FF800
0000FFF000
0000FFF000
0001FFE000
0001FFC000
0003FFC000
0007FF8000
0007FF8000
000FFF0000
000FFF0000
001FFE0000
001FFC0000
003FFC0000
007FF80000
007FF80000
00FFF00000
00FFF00000
01FFE00000
03FFC00000
03FFC00000
07FF800600
07FF8007C0
0FFF000FC0
0FFE000FC0
1FFE000FC0
3FFC001FC0
3FFC001FC0
7FF8003F80
7FF001FF80
FFFFFFFF80
FFFFFFFF80
FFFFFFFF80
FFFFFFFF80
ENDCHAR
STARTCHAR 017C
ENCODING 380
SWIDTH 510 0
DWIDTH 34 0
BBX 29 44 3 0
BITMAP
003FC000
007FE000
007FE000
00FFF000
00FFF000
00FFF000
007FE000
007FC000
001F8000
00000000
00000000
00000000
00000000
7FFFFFE0
7FFFFFE0
7FFFFFF0
7FFFFFF0
7FF0FFE0
7F01FFE0
7E01FFC0
7E03FF80
7C07FF80
7C07FF00
7C0FFE00
001FFE00
001FFC00
003FF800
007FF800
007FF000
00FFE000
01FFC000
03FFC000
03FF81C0
07FF01F0
0FFF01F0
0FFE01F0
1FFC01F0
3FF803F0
7FF803F0
7FF00FF8
FFFFFFF8
FFFFFFF8
FFFFFFF8
7FFFFFF0
ENDCHAR
STARTCHAR 017D
ENCODING 381
SWIDTH 600 0
DWIDTH 40 0
BBX 34 59 3 0
BITMAP
00E0006000
01F801F000
03FE07F800
01FF9FF000
00FFFFC000
003FFF8000
001FFF0000
000FFC0000
0007F80000
0003F00000
0000000000
0000000000
0000000000
0000000000
1FFFFFFF80
3FFFFFFF80
1FFFFFFF80
3FFFFFFF80
3FE007FF80
3FC007FF00
3F800FFF00
3F000FFE00
3F001FFE00
3F003FFC00
3E003FFC00
7E007FF800
3E007FF800
0000FFF000
0000FFF000
0001FFE000
0001FFC000
0003FFC000
0007FF8000
0007FF8000
000FFF0000
000FFF0000
001FFE0000
001FFC0000
003FFC0000
007FF80000
007FF80000
00FFF00000
00FFF00000
01FFE00000
03FFC00000
03FFC00000
07FF800600
07FF8007C0
0FFF000FC0
0FFE000FC0
1FFE000FC0
3FFC001FC0
3FFC001FC0
7FF8003F80
7FF001FF80
FFFFFFFF80
FFFFFFFF80
FFFFFFFF80
FFFFFFFF80
ENDCHAR
STARTCHAR 017E
ENCODING 382
SWIDTH 510 0
DWIDTH 34 0
BBX 29 47 3 0
BITMAP
1C000380
3F000FC0
3F801FC0
1FE07F80
0FF9FE00
07FFFC00
03FFF800
01FFF000
00FFE000
007FC000
003F8000
001F0000
00180000
00000000
00000000
00000000
7FFFFFE0
7FFFFFE0
7FFFFFF0
7FFFFFF0
7FF0FFE0
7F01FFE0
7E01FFC0
7E03FF80
7C07FF80
7C07FF00
7C0FFE00
001FFE00
001FFC00
003FF800
007FF800
007FF000
00FFE000
01FFC000
03FFC000
03FF81C0
07FF01F0
0FFF01F0
0FFE01F0
1FFC01F0
3FF803F0
7FF803F0
7FF00FF8
FFFFFFF8
FFFFFFF8
FFFFFFF8
7FFFFFF0
ENDCHAR
STARTCHAR 017F
ENCODING 383
SWIDTH 360 0
DWIDTH 24 0
BBX 29 48 2 0
BITMAP
00003F00
0003FFE0
000FFFF8
001FFFF8
007FFFF8
00FF07F8
00FF03F8
01FE03F8
01FE03F8
03FE01F8
03FE01F8
03FE0000
03FE0000
07FE0000
07FE0000
07FE0000
07FE0000
07FE0000
7FFE0000
FFFE0000
FFFE0000
FFFE0000
1FFE0000
07FE0000
07FE0000
07FE0000
07FE0000
07FE0000
07FE0000
07FE0000
07FE0000
07FE0000
07FE0000
07FE0000
07FE0000
07FE0000
07FE0000
07FE0000
07FE0000
07FE0000
07FE0000
07FF0000
0FFF0000
1FFFC000
7FFFF800
FFFFFC00
FFFFFC00
FFFFFC00
ENDCHAR
STARTCHAR 018E
ENCODING 398
SWIDTH 615 0
DWIDTH 41 0
BBX 37 45 2 0
BITMAP
0FFFFFFFF8
0FFFFFFFF8
1FFFFFFFF8
1FFFFFFFF0
1FF003FFC0
1FC003FF80
1F8003FF00
1F8003FF00
1F0003FF00
1F0003FF00
3E0003FF00
0E0003FF00
000003FF00
000003FF00
000003FF00
007C03FF00
007C03FF00
007C03FF00
007C03FF00
007E03FF00
007FFFFF00
007FFFFF00
007FFFFF00
007FFFFF00
007FE3FF00
007E03FF00
007C03FF00
007C03FF00
007C03FF00
007803FF00
000003FF00
000003FF00
180003FF00
780003FF00
FC0003FF00
FC0003FF00
FC0003FF00
7E0003FF00
7F0007FF00
7F8007FF80
7FF01FFFC0
7FFFFFFFF0
3FFFFFFFF8
3FFFFFFFF8
3FFFFFFFF8
ENDCHAR
STARTCHAR 018F
ENCODING 399
SWIDTH 660 0
DWIDTH 44 0
BBX 40 46 2 0
BITMAP
0003F00000
00FFFFC000
0FFFFFF800
1FFFFFFE00
1FFFFFFF00
1FE003FFC0
1FC000FFE0
1FC0007FF0
1F80003FF0
1F80003FF8
1F00001FFC
1F00000FFC
1F00000FFE
0F00000FFE
00000007FE
00000007FF
00000007FF
00000007FF
00000003FF
00000003FF
00000003FF
00000003FF
3FFFFFFFFF
7FFFFFFFFF
7FFFFFFFFF
FFFFFFFFFF
FFE07FFFFF
FFE00003FF
7FE00003FF
7FE00003FF
7FE00003FE
7FE00007FE
7FE00007FE
3FE00007FC
3FE00007FC
3FF0000FF8
1FF0000FF8
1FF0001FF0
0FF8001FF0
0FFC003FE0
07FE007FC0
03FF00FF80
01FFFFFF00
00FFFFFC00
003FFFF000
000FFFC000
ENDCHAR
STARTCHAR 0192
ENCODING 402
SWIDTH 405 0
DWIDTH 27 0
BBX 46 65 -12 -17
BITMAP
000000000780
00000001FFFC
00000007FFFC
0000000FFFFC
0000003FF7F8
0000007FC3F8
0000007FC1F8
000000FF81F8
000000FF81F8
000001FF01F8
000001FF00F0
000003FF0000
000003FF0000
000003FE0000
000007FE0000
000007FE0000
000007FE0000
000007FE0000
0001FFFFF800
0001FFFFF800
0001FFFFF800
0001FFFFF000
00003FFF0000
00000FF80000
00001FF80000
00001FF80000
00001FF80000
00001FF80000
00001FF80000
00001FF00000
00001FF00000
00001FF00000
00003FF00000
00003FF00000
00003FF00000
00003FE00000
00003FE00000
00003FE00000
00003FE00000
00003FE00000
00007FE00000
00007FE00000
00007FC00000
00007FC00000
00007FC00000
00007FC00000
00007FC00000
0000FF800000
0000FF800000
0000FF800000
0000FF000000
0000FF000000
0001FF000000
0201FE000000
3E01FE000000
3E03FE000000
3E03FC000000
3E03F8000000
7F07F8000000
7F0FF0000000
7FFFE0000000
7FFFC0000000
FFFF00000000
7FFC00000000
010000000000
ENDCHAR
STARTCHAR 019D
ENCODING 413
SWIDTH 720 0
DWIDTH 48 0
BBX 54 62 -8 -17
BITMAP
003FFF0000FFFC
003FFF8000FFFC
003FFF8000FFFC
001FFFC000FFFC
0003FFE0001FE0
0001FFF0000FE0
0000FFF00007C0
0000FFF80007C0
0000FFFC0007C0
0000FFFE0007C0
0000FFFE0007C0
0000FFFF0007C0
0000FFFF8007C0
0000F7FFC007C0
0000F3FFC007C0
0000F3FFE007C0
0000F1FFF007C0
0000F0FFF807C0
0000F07FF807C0
0000F07FFC07C0
0000F03FFE07C0
0000F01FFF07C0
0000F00FFF07C0
0000F00FFF87C0
0000F007FFC7C0
0000F003FFE7C0
0000F001FFE7C0
0000F001FFF7C0
0000F000FFFFC0
0000F0007FFFC0
0000F0003FFFC0
0000F0003FFFC0
0000F0001FFFC0
0000F0000FFFC0
0000F00007FFC0
0000F00007FFC0
0000F00003FFC0
0000F00001FFC0
0000F00000FFC0
0000F00000FFC0
0000F000007FC0
0000F000003FC0
0000F000001FC0
0000F000001FC0
0000F000000FC0
0001F000000500
0001F000000000
0001E000000000
0001E000000000
0003E000000000
0003E000000000
0007C000000000
001FC000000000
F07FC000000000
FFFF8000000000
FFFF8000000000
FFFF0000000000
FFFE0000000000
FFFC0000000000
7FF80000000000
3FE00000000000
02000000000000
ENDCHAR
STARTCHAR 01A0
ENCODING 416
SWIDTH 735 0
DWIDTH 49 0
BBX 45 54 2 -1
BITMAP
0000000003F0
0000000003F0
0000000003F0
0000000003F8
0000000003F8
0000000003F0
0000000007F0
000007800FF0
0001FFFFFFE0
0007FFFFFFC0
001FFFFFFF00
007FFBFFF800
00FFC03FFC00
01FF000FFE00
03FE0007FF00
07FC0003FF80
0FFC0001FFC0
0FF80001FFC0
1FF00000FFE0
1FF000007FE0
3FF000007FF0
3FE000007FF0
7FE000003FF0
7FE000003FF8
7FE000003FF8
7FE000003FF8
7FE000001FF8
FFE000001FF8
FFE000001FF8
FFE000001FF8
FFE000001FF8
FFE000001FF8
FFE000001FF8
FFE000001FF8
7FE000001FF8
7FE000001FF8
7FF000001FF8
7FF000003FF0
7FF000003FF0
3FF000003FF0
3FF800003FE0
1FF800007FE0
1FFC00007FC0
0FFC0000FFC0
0FFE0000FF80
07FF0001FF00
03FF8003FF00
01FFC007FE00
00FFF00FFC00
007FFFFFF000
001FFFFFE000
0007FFFF8000
0001FFFC0000
000003000000
ENDCHAR
STARTCHAR 01A1
ENCODING 417
SWIDTH 600 0
DWIDTH 40 0
BBX 35 39 2 -1
BITMAP
0000000FC0
0000000FC0
0000000FE0
0000000FE0
0000000FE0
0000000FE0
0000000FC0
000FFE1FC0
007FFFFF80
01FFFFFF00
03FFFFF800
07FC1FFC00
0FF80FFE00
1FF007FE00
3FE003FF00
3FE003FF00
7FE001FF80
7FC001FF80
7FC001FF80
7FC000FFC0
FFC000FFC0
FFC000FFC0
FFC000FFC0
FFC000FFC0
FFC000FFC0
FFC000FFC0
7FE000FF80
7FE000FF80
7FE000FF80
7FF001FF00
3FF001FF00
3FF803FE00
1FF803FE00
0FFE07FC00
07FFFFF800
03FFFFF000
00FFFFC000
003FFF0000
0002C00000
ENDCHAR
STARTCHAR 01AF
ENCODING 431
SWIDTH 765 0
DWIDTH 51 0
BBX 48 54 2 -1
BITMAP
00000000007E
00000000007E
00000000007F
00000000007F
00000000007F
00000000007F
0000000000FE
0000000003FE
FFFFE00FFFFE
FFFFE00FFFFC
FFFFE00FFFF0
FFFFE00FFFC0
1FFF0003FE00
0FFE0001FC00
0FFE0000F800
07FE0000F800
07FE0000F800
07FE00007800
07FE00007800
07FE00007800
07FE00007800
07FE00007800
07FE00007800
07FE00007800
07FE00007800
07FE00007800
07FE00007800
07FE00007800
07FE00007800
07FE00007800
07FE00007800
07FE00007800
07FE00007800
07FE00007800
07FE00007800
07FE00007800
07FE00007800
07FE00007800
07FE00007800
07FE0000F800
07FE0000F800
07FE0000F800
07FE0000F000
07FF0000F000
07FF0001F000
03FF8001F000
03FF8003E000
01FFC007E000
01FFF01FC000
00FFFFFF8000
007FFFFF0000
001FFFFE0000
0007FFF80000
00002E000000
ENDCHAR
STARTCHAR 01B0
ENCODING 432
SWIDTH 660 0
DWIDTH 44 0
BBX 40 39 1 -1
BITMAP
000000001E
000000007E
000000003F
000000003F
000000003F
000000003F
000000007F
00000000FF
00380003FE
03F800FFFC
7FFC0FFFF8
FFFC0FFFC0
FFFC0FFFC0
FFFC0FFFC0
1FFC01FFC0
0FFC00FFC0
0FFC00FFC0
0FFC00FFC0
0FFC00FFC0
0FFC00FFC0
0FFC00FFC0
0FFC00FFC0
0FFC00FFC0
0FFC00FFC0
0FFC00FFC0
0FFC00FFC0
0FFC00FFC0
0FFC00FFC0
0FFC00FFC0
0FFC00FFC0
0FFC00FFC0
0FFE00FFC0
07FE00FFE0
07FF80FFFC
07FFFFFFFC
03FFFFFFFC
03FFFF7FFC
01FFFC7FF0
007FE07800
ENDCHAR
STARTCHAR 01B7
ENCODING 439
SWIDTH 600 0
DWIDTH 40 0
BBX 35 46 3 -1
BITMAP
3FFFFFFF00
3FFFFFFF80
3FFFFFFF80
3FFFFFFF80
3FC007FF00
3F800FFF00
3F000FFE00
7F001FFE00
7E001FFC00
7E003FF800
7E007FF800
7C00FFF000
3C00FFE000
0001FFE000
0003FFC000
0007FF8000
0007FF0000
000FFF0000
001FFE0000
003FFC0000
003FFF0000
003FFFF000
001FFFFC00
001FFFFE00
00007FFF00
00000FFF80
000007FF80
000001FFC0
000001FFC0
000000FFE0
000000FFE0
7C0000FFE0
FC0000FFE0
7C0000FFE0
7C0000FFE0
7E0000FFC0
7E0000FFC0
7F0001FFC0
7F0003FF80
7F8007FF00
7FE01FFE00
7FFFFFFC00
7FFFFFF800
1FFFFFE000
03FFFF0000
0007A00000
ENDCHAR
STARTCHAR 01C4
ENCODING 452
SWIDTH 1335 0
DWIDTH 89 0
BBX 83 59 3 0
BITMAP
0000000000000070003000
00000000000000FC00F800
00000000000001FF03FC00
00000000000000FFCFF800
000000000000007FFFE000
000000000000001FFFC000
000000000000000FFF8000
0000000000000007FE0000
0000000000000003FC0000
0000000000000001F80000
0000000000000000000000
0000000000000000000000
0000000000000000000000
0000000000000000000000
FFFFFFF000000FFFFFFFC0
FFFFFFFE00000FFFFFFFC0
FFFFFFFFC0000FFFFFFFC0
FFFFFFFFF0001FFFFFFFC0
1FFE00FFF8001FF003FFC0
0FFE003FFC001FE003FF80
0FFE000FFE001FC007FF80
07FE0007FF001F8007FF00
07FE0007FF801F800FFF00
07FE0003FF801F801FFE00
07FE0001FFC01F001FFE00
07FE0001FFC03F003FFC00
07FE0000FFC01F003FFC00
07FE0000FFE000007FF800
07FE0000FFE000007FF800
07FE00007FE00000FFF000
07FE00007FE00000FFE000
07FE00007FE00001FFE000
07FE00007FF00003FFC000
07FE00007FF00003FFC000
07FE00007FF00007FF8000
07FE00007FF00007FF8000
07FE00007FF0000FFF0000
07FE00007FF0000FFE0000
07FE00007FF0001FFE0000
07FE00007FE0003FFC0000
07FE00007FE0003FFC0000
07FE00007FE0007FF80000
07FE00007FE0007FF80000
07FE00007FE000FFF00000
07FE0000FFC001FFE00000
07FE0000FFC001FFE00000
07FE0000FFC003FFC00300
07FE0000FF8003FFC003E0
07FE0001FF8007FF8007E0
07FE0001FF0007FF0007E0
07FE0003FE000FFF0007E0
07FE0007FC001FFE000FE0
0FFE000FFC001FFE000FE0
0FFF001FF0003FFC001FC0
1FFF80FFE0003FF800FFC0
FFFFFFFFC0007FFFFFFFC0
FFFFFFFF00007FFFFFFFC0
FFFFFFF800007FFFFFFFC0
FFFFFF8000007FFFFFFFC0
ENDCHAR
STARTCHAR 01C5
ENCODING 453
SWIDTH 1245 0
DWIDTH 83 0
BBX 78 47 3 0
BITMAP
0000000000000E0001C0
0000000000001F8007E0
FFFFFFF000001FC00FE0
FFFFFFFE00000FF03FC0
FFFFFFFFC00007FCFF00
FFFFFFFFF00003FFFE00
1FFE00FFF80001FFFC00
0FFE003FFC0000FFF800
0FFE000FFE00007FF000
07FE0007FF00003FE000
07FE0007FF80001FC000
07FE0003FF80000F8000
07FE0001FFC0000C0000
07FE0001FFC000000000
07FE0000FFC000000000
07FE0000FFE000000000
07FE0000FFE03FFFFFF0
07FE00007FE03FFFFFF0
07FE00007FE03FFFFFF8
07FE00007FE03FFFFFF8
07FE00007FF03FF87FF0
07FE00007FF03F80FFF0
07FE00007FF03F00FFE0
07FE00007FF03F01FFC0
07FE00007FF03E03FFC0
07FE00007FF03E03FF80
07FE00007FF03E07FF00
07FE00007FE0000FFF00
07FE00007FE0000FFE00
07FE00007FE0001FFC00
07FE00007FE0003FFC00
07FE00007FE0003FF800
07FE0000FFC0007FF000
07FE0000FFC000FFF000
07FE0000FFC001FFE000
07FE0000FF8001FFC0E0
07FE0001FF8003FF80F8
07FE0001FF0007FF80F8
07FE0003FE0007FF00F8
07FE0007FC000FFE00F8
0FFE000FFC001FFC01F8
0FFF001FF0003FFC01F8
1FFF80FFE0003FF807FC
FFFFFFFFC0007FFFFFFC
FFFFFFFF00007FFFFFFC
FFFFFFF800007FFFFFFC
FFFFFF8000003FFFFFF8
ENDCHAR
STARTCHAR 01C6
ENCODING 454
SWIDTH 1110 0
DWIDTH 74 0
BBX 70 49 2 -1
BITMAP
000000020000000000
0000001F00070001E0
00001FFF800F8003E0
00001FFF800FE00FE0
00001FFF8007F81FC0
00003FFF8003FC7F80
000007FF8001FFFF00
000003FF8000FFFE00
000001FF80007FFC00
000001FF80003FF800
000001FF80003FF000
000001FF80001FE000
000001FF80000FC000
000001FF8000060000
000001FF8000000000
000001FF8000000000
000001FF8000000000
0007FFFF801FFFFFF0
003FFFFF801FFFFFF8
00FFFFFF801FFFFFF8
01FFFFFF801FFFFFF8
03FE07FF801FF83FF8
07FC01FF803FC07FF0
0FF801FF803F80FFF0
1FF001FF803F00FFE0
3FE001FF803F01FFC0
3FE001FF803F03FFC0
3FE001FF803F03FF80
7FE001FF800007FF00
7FC001FF80000FFF00
7FC001FF80000FFE00
7FC001FF80001FFC00
FFC001FF80003FFC00
FFC001FF80007FF800
FFC001FF80007FF000
FFC001FF8000FFE000
FFE001FF8001FFE070
FFE001FF8001FFC07C
7FE001FF8003FF807C
7FF001FF8007FF80FC
7FF801FF800FFF00FC
3FFC01FFC00FFE00FC
3FFE01FFF81FFC01FC
1FFFFFFFF83FFC03FC
1FFFFFFFF83FFFFFFC
0FFFFEFFF83FFFFFFC
03FFF8FFE03FFFFFFC
01FFE0F0003FFFFFFC
000E00000000000000
ENDCHAR
STARTCHAR 01C7
ENCODING 455
SWIDTH 960 0
DWIDTH 64 0
BBX 59 62 3 -17
BITMAP
FFFFF00001FFFFE0
FFFFF00001FFFFE0
FFFFF00001FFFFE0
FFFFE00001FFFFE0
1FFF8000003FFF00
0FFE0000001FFE00
0FFE0000000FFC00
07FE0000000FFC00
07FE0000000FFC00
07FE0000000FFC00
07FE0000000FFC00
07FE0000000FFC00
07FE0000000FFC00
07FE0000000FFC00
07FE0000000FFC00
07FE0000000FFC00
07FE0000000FFC00
07FE0000000FFC00
07FE0000000FFC00
07FE0000000FFC00
07FE0000000FFC00
07FE0000000FFC00
07FE0000000FFC00
07FE0000000FFC00
07FE0000000FFC00
07FE0000000FFC00
07FE0000000FFC00
07FE0000000FFC00
07FE0000000FFC00
07FE0000000FFC00
07FE0000000FFC00
07FE0000000FFC00
07FE0001800FFC00
07FE0001E00FFC00
07FE0003F00FFC00
07FE0003F00FFC00
07FE0007F00FFC00
07FE0007E00FFC00
0FFE000FE00FFC00
0FFF001FE00FFC00
1FFF807FE00FFC00
FFFFFFFFE00FFC00
FFFFFFFFC00FFC00
FFFFFFFFC00FFC00
FFFFFFFFC00FF800
00000000000FF800
00000000000FF800
00000000000FF800
00000000001FF800
00000000001FF000
00000000001FF000
00000000003FE000
00000000003FE000
00000000007FC000
00000000007F8000
0000000000FF0000
0000000001FE0000
0000000003FC0000
0000000007F00000
0000000007E00000
0000000007800000
0000000002000000
ENDCHAR
STARTCHAR 01C8
ENCODING 456
SWIDTH 900 0
DWIDTH 60 0
BBX 54 63 3 -17
BITMAP
000000000007F0
FFFFF000000FF8
FFFFF000001FFC
FFFFF000001FFC
FFFFE000001FFC
1FFF8000001FFC
0FFE0000001FFC
0FFE0000000FF8
07FE0000000FF0
07FE00000000C0
07FE0000000000
07FE0000000000
07FE0000000000
07FE0000000000
07FE0000000000
07FE0000000038
07FE00000003F8
07FE000000FFFC
07FE000001FFFC
07FE000001FFFC
07FE000001FFFC
07FE0000003FFC
07FE0000000FFC
07FE0000000FFC
07FE0000000FFC
07FE0000000FFC
07FE0000000FFC
07FE0000000FFC
07FE0000000FFC
07FE0000000FFC
07FE0000000FFC
07FE0000000FFC
07FE0000000FFC
07FE0001800FFC
07FE0001E00FFC
07FE0003F00FFC
07FE0003F00FFC
07FE0007F00FFC
07FE0007E00FFC
0FFE000FE00FFC
0FFF001FE00FFC
1FFF807FE00FFC
FFFFFFFFE00FFC
FFFFFFFFC00FFC
FFFFFFFFC00FFC
FFFFFFFFC00FF8
00000000000FF8
00000000000FF8
00000000000FF8
00000000000FF0
00000000001FF0
00000000001FE0
00000000001FE0
00000000003FC0
00000000003FC0
00000000007F80
0000000000FF00
0000000001FE00
0000000001FC00
0000000003F800
0000000003F000
0000000001C000
00000000008000
ENDCHAR
STARTCHAR 01C9
ENCODING 457
SWIDTH 645 0
DWIDTH 43 0
BBX 38 64 2 -17
BITMAP
0008000000
00FC000000
FFFC0007E0
FFFC000FF0
FFFC001FF8
FFFC003FF8
3FFC003FFC
0FFC003FFC
0FFC001FF8
07FC001FF8
07FC000FF0
07FC000100
07FC000000
07FC000000
07FC000000
07FC000000
07FC000000
07FC000030
07FC0007F8
07FC01FFF8
07FC01FFF8
07FC01FFF8
07FC01FFF8
07FC003FF8
07FC001FF8
07FC000FF8
07FC000FF8
07FC000FF8
07FC000FF8
07FC000FF8
07FC000FF8
07FC000FF8
07FC000FF8
07FC000FF8
07FC000FF8
07FC000FF8
07FC000FF8
07FC000FF8
07FC000FF8
07FC000FF8
07FC000FF8
0FFE000FF8
0FFE000FF8
1FFF000FF8
FFFFE00FF8
FFFFE00FF8
FFFFE00FF8
FFFFE00FF8
0000000FF8
0000000FF0
0000001FF0
0000001FF0
0000001FE0
0000001FE0
0000003FC0
0000003FC0
0000007F80
0000007F00
000000FF00
000001FE00
000003FC00
000003F800
000003E000
000001C000
ENDCHAR
STARTCHAR 01CA
ENCODING 458
SWIDTH 1080 0
DWIDTH 72 0
BBX 68 61 2 -17
BITMAP
FFFC0003FFF0FFFFF0
FFFE0003FFF0FFFFF0
FFFE0003FFF07FFFF0
7FFF0003FFF07FFFF0
0FFF80007F800FFF80
07FFC0003F8007FF00
03FFC0001F0007FF00
03FFE0001F0007FE00
03FFF0001F0007FE00
03FFF8001F0007FE00
03FFF8001F0007FE00
03FFFC001F0007FE00
03FFFE001F0007FE00
03DFFF001F0007FE00
03CFFF001F0007FE00
03CFFF801F0007FE00
03C7FFC01F0007FE00
03C3FFE01F0007FE00
03C1FFE01F0007FE00
03C1FFF01F0007FE00
03C0FFF81F0007FE00
03C07FFC1F0007FE00
03C03FFC1F0007FE00
03C03FFE1F0007FE00
03C01FFF1F0007FE00
03C00FFF9F0007FE00
03C007FF9F0007FE00
03C007FFDF0007FE00
03C003FFFF0007FE00
03C001FFFF0007FE00
03C000FFFF0007FE00
03C000FFFF0007FE00
03C0007FFF0007FE00
03C0003FFF0007FE00
03C0001FFF0007FE00
03C0001FFF0007FE00
07C0000FFF0007FE00
07C00007FF0007FE00
07E00003FF0007FE00
0FE00003FF0007FE00
1FF00001FF0007FE00
7FFE0000FF0007FE00
FFFE00007F0007FE00
FFFE00007F0007FE00
FFFE00003F0007FE00
00000000100007FE00
00000000000007FC00
00000000000007FC00
00000000000007FC00
0000000000000FF800
0000000000000FF800
0000000000000FF000
0000000000001FF000
0000000000001FE000
0000000000003FC000
0000000000007F8000
000000000000FF0000
000000000001FE0000
000000000003FC0000
000000000003F00000
000000000001C00000
ENDCHAR
ENDFONT
